<?xml version="1.0" standalone="no"?>
<!DOCTYPE svg PUBLIC "-//W3C//DTD SVG 1.1//EN" "http://www.w3.org/Graphics/SVG/1.1/DTD/svg11.dtd" >
<svg>
<metadata>
Created by FontForge 20090914 at Sat Jan  7 09:35:48 2023
 By www-data
Copyright (c) 2011 by Constanza Artigas Preller. All rights reserved.
</metadata>
<defs>
<font id="Inika-Bold" horiz-adv-x="595" >
  <font-face 
    font-family="Inika"
    font-weight="700"
    font-stretch="normal"
    units-per-em="1000"
    panose-1="2 0 0 0 0 0 0 0 0 0"
    ascent="800"
    descent="-200"
    x-height="508"
    cap-height="700"
    bbox="-97.999 -296.999 1194.01 981.997"
    underline-thickness="50"
    underline-position="-50"
    unicode-range="U+0020-U+FB02"
  />
<missing-glyph horiz-adv-x="500" 
 />
    <glyph glyph-name=".notdef" horiz-adv-x="500" 
 />
    <glyph glyph-name="space" unicode=" " horiz-adv-x="260" 
 />
    <glyph glyph-name="exclam" unicode="!" horiz-adv-x="291" 
d="M214 187c-10 -2 -22.833 -3 -38.5 -3s-34.5 1.66699 -56.5 5l-24 533c19.333 2 40.5 3 63.5 3s46.167 -2.66699 69.5 -8zM100 124c26 2 48.167 3 66.5 3s40.833 -3 67.5 -9c2.66699 -19.333 4 -36.833 4 -52.5s-3 -38.5 -9 -68.5c-26 -2 -48.167 -3 -66.5 -3
s-40.833 3 -67.5 9c-2.66699 19.333 -4 36.833 -4 52.5s3 38.5 9 68.5z" />
    <glyph glyph-name="quotedbl" unicode="&#x22;" horiz-adv-x="406" 
d="M217 733c5.33301 -26.667 8 -52.001 8 -76.001s-2.33301 -52.833 -7 -86.5s-11.334 -59.5 -20.001 -77.5c-17.333 -4.66699 -29.666 -7 -36.999 -7h-15c-9.33301 1.33301 -19 2 -29 2c2.66699 18.667 4 36.334 4 53.001c0 54 -15.333 115.667 -46 185
c34 7.33301 57.5 11 70.5 11s36.833 -1.33301 71.5 -4zM390 732.999c6 -30 9 -56.168 9 -78.501s-2.33301 -50.333 -7 -84s-11.667 -59.5 -21 -77.5c-16.667 -4.66699 -31.667 -7 -45 -7l-36 2c3.33301 18.667 5 36.334 5 53.001c0 51.333 -15.333 113 -46 185
c33.333 7.33301 56.5 11 69.5 11s36.833 -1.33301 71.5 -4z" />
    <glyph glyph-name="numbersign" unicode="#" horiz-adv-x="667" 
d="M370 187l-112.003 1.00098l-22 -184c-18.667 -4.66699 -33 -7 -43 -7l-53 6l16 186l-125 2c-3.33301 17.333 -5 31.333 -5 42l4 45c45.333 4.66699 83 7 113 7h21c2 25.333 6.33301 76 13 152l-120 2c-3.33301 16.667 -5 30.667 -5 42l4 45c45.333 4.66699 83 7 113 7h16
l14 165c32.667 2 55.5 3 68.5 3s30.833 -1 53.5 -3l-21 -167c40 0 73 -0.333008 99 -1c8 86 13 142 15 168c33.333 2 56.333 3 69 3s30.334 -1 53.001 -3l-22 -169c57.333 0 98 -1 122 -3c1.33301 -18.667 2 -33.5 2 -44.5s-1.66699 -24.5 -5 -40.5
c-45.333 -4.66699 -82.666 -7 -111.999 -7h-18l-19 -153l123 -1c2.66699 -20 4 -35.333 4 -46s-1.33301 -24.334 -4 -41.001c-45.333 -4.66699 -82.666 -7 -111.999 -7h-22l-22 -182c-18.667 -4.66699 -33 -7 -43 -7l-53 6zM269.997 284.001l109.001 -2
c1.33301 18.667 5.66602 69.667 12.999 153c-46 0 -80.333 0.333008 -103 1z" />
    <glyph glyph-name="dollar" unicode="$" horiz-adv-x="503" 
d="M145 198l33.001 -2l12 -104c25.333 -9.33301 48.833 -14 70.5 -14s40 5.83301 55 17.5s22.5 25.5 22.5 41.5s-5.33301 29.333 -16 40s-21.667 19.167 -33 25.5s-28.5 15 -51.5 26s-41.667 20.5 -56 28.5s-30.833 19 -49.5 33c-35.333 27.333 -53 62.333 -53 105
s12 77.834 36 105.501s57 45.5 99 53.5l-1 117c18 6 36.333 9 55 9s36 -2.66699 52 -8c-1.33301 -52 -2 -91 -2 -117c44 -6.66699 86.333 -20.334 127 -41.001c1.33301 -12.667 2 -32.5 2 -59.5s-3.66699 -56.833 -11 -89.5c-5.33301 -2 -20 -4.66699 -44 -8
s-41.333 -5 -52 -5l-34 111c-10 3.33301 -23.333 5 -40 5s-30.667 -5.5 -42 -16.5s-17 -24.667 -17 -41s8.16699 -30.5 24.5 -42.5s37.833 -24.333 64.5 -37s45.667 -22 57 -28s25.333 -14.5 42 -25.5s29.667 -21.833 39 -32.5c22.667 -27.333 34 -56.333 34 -87
c0 -45.333 -14.333 -82.166 -43 -110.499s-66.334 -46.833 -113.001 -55.5l-1 -107c-14 -5.33301 -28.167 -8 -42.5 -8s-29.833 2.33301 -46.5 7c0 24 -0.666992 59.333 -2 106c-64 8 -117.333 28 -160 60c0 47.333 5 94.666 15 141.999c32 4 55.333 6 70 6z" />
    <glyph glyph-name="percent" unicode="%" horiz-adv-x="852" 
d="M85.5 690.5c30.333 37 75.668 55.5 136.001 55.5s106.166 -18 137.499 -54s47 -84.833 47 -146.5s-15.667 -112 -47 -151s-77 -58.5 -137 -58.5c-121.333 0 -182 68 -182 204c0 63.333 15.167 113.5 45.5 150.5zM486.502 341.5c30.333 37 75.667 55.5 136 55.5
s106 -18 137 -54s46.5 -85 46.5 -147s-15.5 -112.333 -46.5 -151s-76.5 -58 -136.5 -58c-121.333 0 -182 68 -182 204c0 63.333 15.167 113.5 45.5 150.5zM709.003 677l-505 -696c-25.333 12 -49 28.333 -71 49l479 710c40 -16.667 72.333 -37.667 97 -63zM192.003 425
c8 -5.33301 18.502 -7.99609 31.502 -7.99609s24 3.33301 33 10s15.167 17 18.5 31c5.33301 21.333 8 44.166 8 68.499s-0.5 42.166 -1.5 53.499s-3.16699 24.666 -6.5 39.999c-6.66699 30 -24.334 45 -53.001 45c-22 0 -38 -8.33301 -48 -25
c-8 -13.333 -12.333 -29.333 -13 -48s-1 -35.834 -1 -51.501s0.166992 -27.667 0.5 -36s1.66602 -18.833 3.99902 -31.5s5.5 -22.5 9.5 -29.5s10 -13.167 18 -18.5zM593.005 77.0039c8 -5.33301 17.835 -8 29.502 -8s21.5 2.66699 29.5 8s14 11.333 18 18s7.33301 16 10 28
c2.66699 15.333 4 34.166 4 56.499s-0.5 39.333 -1.5 51s-3.16699 24.834 -6.5 39.501c-6.66699 30.667 -24.334 46 -53.001 46c-22 0 -38 -8.33301 -48 -25c-8 -13.333 -12.333 -29.333 -13 -48s-1 -35.667 -1 -51s0.166992 -27.333 0.5 -36s1.66602 -19.167 3.99902 -31.5
s5.5 -22 9.5 -29s10 -13.167 18 -18.5z" />
    <glyph glyph-name="ampersand" unicode="&#x26;" horiz-adv-x="728" 
d="M320 623c-26.667 0 -45.6641 -7.8291 -56.9971 -23.4961s-17 -31.834 -17 -48.501s3.5 -32.334 10.5 -47.001s14.667 -26.834 23 -36.501s20.833 -23 37.5 -40l50 -53.5l129 -150c6.66699 6.66699 11.667 13 15 19l11.5 20c4.33301 7.33301 7.83301 15.5 10.5 24.5
s5.66699 19.833 9 32.5c5.33301 23.333 8.66602 56 9.99902 98l-79 10c0 28.667 7.66699 57.667 23 87h252l-4 -57c-23.333 -14 -49.333 -23.667 -78 -29c0 -56 -12.167 -109.333 -36.5 -160s-46.833 -86 -67.5 -106l121 -135c-14.667 -30.667 -39.334 -46 -74.001 -46
l-109 96c-26.667 -24.667 -59.167 -45.834 -97.5 -63.501s-72.5 -26.5 -102.5 -26.5c-73.333 0 -135 18.833 -185 56.5s-75 91.167 -75 160.5c0 41.333 12.167 78.5 36.5 111.5s53.833 59.167 88.5 78.5c-38.667 45.333 -58 93.5 -58 144.5s18.333 92.5 55 124.5
s87 48 151 48c34 0 67.333 -8 100 -24s58.667 -33.667 78 -53l-18 -108c-14.667 -7.33301 -30.5 -11 -47.5 -11s-29.5 0.666992 -37.5 2l-24 101c-18.667 2.66699 -33.334 4 -44.001 4zM193.003 271.504c-12.667 -20.333 -18.999 -41.8311 -18.999 -64.498
s4.66699 -42.834 14 -60.501s21.333 -30.834 36 -39.501c28 -16.667 54.333 -25 79 -25c51.333 0 95.666 20.333 132.999 61l-191 178c-22 -12.667 -39.333 -29.167 -52 -49.5z" />
    <glyph glyph-name="quotesingle" unicode="'" horiz-adv-x="205" 
d="M191 733c6 -30 9 -56.168 9 -78.501s-2.33301 -50.333 -7 -84s-11.667 -59.5 -21 -77.5c-16.667 -4.66699 -31.667 -7 -45 -7l-36 2c3.33301 18.667 5 36.334 5 53.001c0 51.333 -15.333 113 -46 185c32.667 7.33301 55.667 11 69 11s37.333 -1.33301 72 -4z" />
    <glyph glyph-name="parenleft" unicode="(" horiz-adv-x="326" 
d="M326 692c-82.667 -192 -123.999 -340 -123.999 -444s41.333 -251.333 124 -442l18 -44c-20 -22.667 -47.333 -36.667 -82 -42c-44.667 58.667 -87.834 140.5 -129.501 245.5s-62.5 199.5 -62.5 283.5s20.833 178.5 62.5 283.5s84.834 186.833 129.501 245.5
c33.333 -8.66699 60.666 -22.667 81.999 -42z" />
    <glyph glyph-name="parenright" unicode=")" horiz-adv-x="326" 
d="M33 -194c82.667 190.667 124.001 338 124.001 442s-41.333 252 -124 444l-18 44c21.333 19.333 48.666 33.333 81.999 42c44.667 -58.667 87.834 -140.5 129.501 -245.5s62.5 -199.5 62.5 -283.5s-20.833 -178.5 -62.5 -283.5s-84.834 -186.833 -129.501 -245.5
c-34.667 5.33301 -62 19.333 -82 42z" />
    <glyph glyph-name="asterisk" unicode="*" horiz-adv-x="430" 
d="M193 640l-2.99902 81c0 7.33301 0.333008 12 1 14c20 6.66699 38.167 10 54.5 10s32.166 -2 47.499 -6c8 -6.66699 14 -19.334 18 -38.001c-2 -6.66699 -11 -21.5 -27 -44.5s-24.667 -36.167 -26 -39.5c2 1.33301 15.5 9.66602 40.5 24.999s41.167 24 48.5 26
c28.667 -30 46 -55.667 52 -77c0 -9.33301 -9 -21 -27 -35c-8 -1.33301 -16.333 -2 -25 -2s-22.334 0.5 -41.001 1.5s-31.334 1.5 -38.001 1.5c4 -2.66699 14 -8.33398 30 -17.001c38 -20 60 -33 66 -39c-8.66699 -33.333 -22 -59 -40 -77
c-5.33301 -1.33301 -12.833 -2 -22.5 -2s-20.834 2.33301 -33.501 7c-8 9.33301 -20 34.333 -36 75l3 -81c0 -7.33301 -0.333008 -12 -1 -14c-21.333 -6.66699 -40.166 -10 -56.499 -10s-31.5 2 -45.5 6c-8.66699 6 -15 18.333 -19 37
c2.66699 7.33301 11.334 22.166 26.001 44.499s23 35.5 25 39.5c-2 -1.33301 -15.5 -9.66602 -40.5 -24.999s-40.833 -23.666 -47.5 -24.999c-28 30 -44.667 55.667 -50 77c0 8.66699 8.66699 20.334 26 35.001c8 1.33301 16.333 2 25 2s22 -0.5 40 -1.5s30 -1.5 36 -1.5
c-4 2.66699 -13.667 8.33398 -29 17.001c-37.333 20.667 -58.666 33.667 -63.999 39c9.33301 33.333 22.666 59 39.999 77c6.66699 1.33301 13.834 2 21.501 2s19.5 -2.66699 35.5 -8c3.33301 -4 9.83301 -16.833 19.5 -38.5s15.167 -33.5 16.5 -35.5z" />
    <glyph glyph-name="plus" unicode="+" horiz-adv-x="526" 
d="M322 1c-22 -2 -41.167 -3.00098 -57.5 -3.00098s-30.833 1.33301 -43.5 4c-9.33301 49.333 -14 88.833 -14 118.5s0.333008 59.834 1 90.501l-177 4c-2.66699 12.667 -4 26.334 -4 41.001s1 29.667 3 45c52 9.33301 96.667 14 134 14h46l4 197
c12.667 2.66699 27.167 4 43.5 4s35.5 -1 57.5 -3c8.66699 -48.667 13 -91.334 13 -128.001v-73l182 -4c2.66699 -12.667 4 -26.5 4 -41.5s-1 -29.5 -3 -43.5c-52 -10 -90 -15 -114 -15s-48 0.333008 -72 1z" />
    <glyph glyph-name="comma" unicode="," horiz-adv-x="210" 
d="M185 128c6 -24 8.99902 -51.335 8.99902 -82.002s-13 -64.5 -39 -101.5s-50.333 -62.5 -73 -76.5c-23.333 10 -42.333 23.333 -57 40c8.66699 26 27.667 56.333 57 91l-25 3c-6 20.667 -9 41.834 -9 63.501s1 40.834 3 57.501c27.333 6 47.833 9 61.5 9
s37.834 -1.33301 72.501 -4z" />
    <glyph glyph-name="hyphen" unicode="-" horiz-adv-x="327" 
d="M310 299c2.66699 -12.667 4 -26.5 4 -41.5s-1 -30.5 -3 -46.5c-46 -4.66699 -83.667 -7 -113 -7l-145 6c-3.33301 12 -5 25.833 -5 41.5s1 31.5 3 47.5c46 4.66699 83.667 7 113 7z" />
    <glyph glyph-name="period" unicode="." horiz-adv-x="208" 
d="M188 127c6 -24 9.00195 -44.5 9.00195 -61.5s-1 -36.167 -3 -57.5c-22.667 -6 -44.334 -9 -65.001 -9s-43.334 1 -68.001 3c-6.66699 26.667 -10 46.167 -10 58.5s1.33301 32.5 4 60.5c22 6 43.167 9 63.5 9s43.5 -1 69.5 -3z" />
    <glyph glyph-name="slash" unicode="/" horiz-adv-x="407" 
d="M334 703c17.333 0 43.001 -3 77.001 -9l-266 -693c-14 -3.33301 -33.333 -5 -58 -5s-43.667 1 -57 3l252 700c17.333 2.66699 34.666 4 51.999 4z" />
    <glyph glyph-name="zero" unicode="0" horiz-adv-x="527" 
d="M278 552c82.667 0 143 -23.8311 181 -71.498s57 -115.334 57 -203.001s-19 -157.834 -57 -210.501s-98.667 -79 -182 -79s-143 23.5 -179 70.5s-54 118.167 -54 213.5c0 186.667 78 280 234 280zM278 79.002c20 0 36.833 3.66699 50.5 11s24 16.333 31 27
s12.5 25.667 16.5 45c5.33301 25.333 8 62.333 8 111c0 125.333 -35.333 188 -106 188c-19.333 0 -36 -4 -50 -12s-24.667 -17.333 -32 -28s-13 -25 -17 -43c-5.33301 -24 -8 -52.5 -8 -85.5s0.5 -57.667 1.5 -74s3.33301 -34.333 7 -54s9.16699 -35 16.5 -46
s17.833 -20.333 31.5 -28s30.5 -11.5 50.5 -11.5z" />
    <glyph glyph-name="one" unicode="1" horiz-adv-x="360" 
d="M283 489c0 -8 -3.33301 -139 -10 -393l83 -9c0 -29.333 -7.66699 -58.333 -23 -87h-278l-9 55c49.333 18.667 86.666 30.667 111.999 36c-6 209.333 -9 315 -9 317c-41.333 -16 -73.666 -25.333 -96.999 -28c-17.333 30.667 -26.333 60 -27 88l211 73
c23.333 -12.667 39 -30 47 -52z" />
    <glyph glyph-name="two" unicode="2" horiz-adv-x="453" 
d="M167 341l-36.002 -1c-12 0 -31.333 2.33301 -58 7c-12.667 34.667 -19.334 78.334 -20.001 131.001c18 18 43.833 34.833 77.5 50.5s65.5 23.5 95.5 23.5c61.333 0 110.833 -15.667 148.5 -47s56.5 -67.666 56.5 -108.999s-9 -77.666 -27 -108.999s-50 -67 -96 -107
l-105 -91h109c7.33301 52.667 12 82.334 14 89.001c8 1.33301 20.333 2 37 2s34 -3.66699 52 -11c9.33301 -46.667 14 -91.334 14 -134.001l-1 -35h-365c-11.333 24 -17 49.667 -17 77c145.333 140 225.333 223 240 249c8.66699 15.333 13 37.666 13 66.999
c0 16 -6.66699 31.667 -20 47s-33.666 23 -60.999 23c-12.667 0 -22 -0.333008 -28 -1c-3.33301 -14.667 -7.66602 -36.834 -12.999 -66.501s-8.66602 -47.834 -9.99902 -54.501z" />
    <glyph glyph-name="three" unicode="3" horiz-adv-x="474" 
d="M292 381c0 56.667 -29.998 85.001 -89.998 85.001c-6 0 -13.667 -0.666992 -23 -2l-23 -122c-46.667 0 -77.667 2 -93 6c-13.333 37.333 -20 77.666 -20 120.999v9c15.333 18.667 40.5 35.5 75.5 50.5s65.5 22.5 91.5 22.5c62 0 113 -15.167 153 -45.5
s60 -67.5 60 -111.5c0 -58 -29 -105.333 -87 -142c32 -10 59 -29.5 81 -58.5s33 -65.5 33 -109.5s-14.333 -84.167 -43 -120.5s-62 -63 -100 -80s-79.167 -25.5 -123.5 -25.5s-95.833 10 -154.5 30c1.33301 34 8.66602 60.667 21.999 80l30 -6c32 -8 58.167 -12 78.5 -12
s35.833 1 46.5 3s25.667 6.33301 45 13s35.333 19 48 37s19 42 19 72s-10.333 55.167 -31 75.5s-47.334 30.5 -80.001 30.5c-2 0 -25 -2 -69 -6c-6.66699 28 -10 46.333 -10 55s0.666992 19.667 2 33l59 8c28.667 4 53 15.833 73 35.5s30 44.5 30 74.5z" />
    <glyph glyph-name="four" unicode="4" horiz-adv-x="532" 
d="M525 118l0.999023 -22.999c0 -26 -5.66699 -48.667 -17 -68h-86l-7 -156c-11.333 -2.66699 -26.666 -4 -45.999 -4s-37 1 -53 3l-7 157h-275c-13.333 19.333 -20 39.666 -20 60.999c0 5.33301 0.666992 9.33301 2 12l255 440h162c0 -2.66699 -3 -143 -9 -421z
M307.999 120.001l-7 251l-149 -253c34.667 0 86.667 0.666992 156 2z" />
    <glyph glyph-name="five" unicode="5" horiz-adv-x="451" 
d="M292 146.5c-18 23 -44.832 34.5 -80.499 34.5s-64.834 -3 -87.501 -9c-8 4.66699 -18.667 13.5 -32 26.5s-23 23.5 -29 31.5l-11 310h394c4.66699 -18 7 -44.833 7 -80.5s-7.33301 -75.5 -22 -119.5c-19.333 -4.66699 -37.833 -7 -55.5 -7s-30.5 0.333008 -38.5 1
l-21 114h-139l-12 -179c13.333 6 29 9 47 9c68.667 0 125.667 -17.667 171 -53s68 -85 68 -149s-26.167 -116.167 -78.5 -156.5s-116.833 -60.5 -193.5 -60.5c-18.667 0 -43.5 2.83301 -74.5 8.5s-55.833 12.5 -74.5 20.5c0 12 2.33301 27 7 45s9.66699 29.667 15 35
c34 -12 76 -18 126 -18c29.333 0 55.333 5 78 15c42 19.333 63 56 63 110c0 24.667 -9 48.5 -27 71.5z" />
    <glyph glyph-name="six" unicode="6" horiz-adv-x="559" 
d="M427 722c4 -14.667 6 -29.8311 6 -45.498s-1.66699 -28.167 -5 -37.5c-138 -10.667 -218 -86.334 -240 -227.001c46 24.667 87.667 37 125 37c68.667 0 123.334 -18.167 164.001 -54.5s61 -92.833 61 -169.5s-21 -135.334 -63 -176.001s-97.333 -61 -166 -61
c-47.333 0 -88.333 10 -123 30s-61.334 47.333 -80.001 82c-36.667 66 -55 147.333 -55 244c0 62 11.5 117.833 34.5 167.5s53.167 89.167 90.5 118.5c76 61.333 159.667 92 251 92zM187 296.003l3 -58.001v-2c4 -46 16 -83.833 36 -113.5s46 -44.5 78 -44.5
c68 0 102 54 102 162c0 40.667 -7.83301 70.334 -23.5 89.001s-41 28 -76 28s-74.833 -14.667 -119.5 -44v-17z" />
    <glyph glyph-name="seven" unicode="7" horiz-adv-x="464" 
d="M427 513.5c8.66699 -14.333 13 -24.502 13 -30.502s-0.333008 -10.667 -1 -14c-36.667 -117.333 -79.5 -246.666 -128.5 -387.999s-75.167 -216 -78.5 -224c-41.333 5.33301 -72 16 -92 32l164 560h-144l-23 -115c-8 -1.33301 -20 -2 -36 -2l-58 7
c-14 42 -21 88.667 -21 140c0 14.667 2 35 6 61h378c5.33301 -3.33301 12.333 -12.166 21 -26.499z" />
    <glyph glyph-name="eight" unicode="8" horiz-adv-x="528" 
d="M498 189c0 -57.333 -18.1689 -105.168 -54.502 -143.501s-92.166 -57.5 -167.499 -57.5c-53.333 0 -103.333 14 -150 42c-24 14.667 -43.5 35 -58.5 61s-22.5 56.833 -22.5 92.5s10.333 68.167 31 97.5s48.334 57.666 83.001 84.999c-66 36.667 -99 94.334 -99 173.001
c0 56.667 19.333 101.334 58 134.001s91.834 49 159.501 49s120.667 -17 159 -51s57.5 -73.5 57.5 -118.5s-10.333 -84.167 -31 -117.5s-47.334 -60.333 -80.001 -81c46.667 -32 77.5 -61 92.5 -87s22.5 -52 22.5 -78zM370.998 171.998
c0 32.667 -9.33203 59.501 -27.999 80.501s-51.334 44.167 -98.001 69.5c-45.333 -37.333 -68 -83.333 -68 -138c0 -30.667 11.167 -56.334 33.5 -77.001s44.5 -31 66.5 -31c62.667 0 94 32 94 96zM361.999 544.999c0 57.333 -28.667 86 -86 86
c-19.333 0 -41 -3.33301 -65 -10c-12.667 -25.333 -19 -51 -19 -77c0 -62.667 29 -107 87 -133c2.66699 -0.666992 6.16699 -2.16699 10.5 -4.5s7.5 -3.83301 9.5 -4.5c42 31.333 63 79 63 143z" />
    <glyph glyph-name="nine" unicode="9" horiz-adv-x="523" 
d="M98 -81c0 6.66699 0.333008 10.9971 1 12.9971c75.333 5.33301 131.5 23.333 168.5 54s62.167 76.334 75.5 137.001c-30.667 -12.667 -59 -19 -85 -19c-68.667 0 -123.334 21 -164.001 63s-61 95.333 -61 160s20.5 118.334 61.5 161.001s97.833 64 170.5 64
s129.334 -24.5 170.001 -73.5s61 -114.5 61 -196.5c0 -125.333 -32 -226.166 -96 -302.499s-159.333 -116.5 -286 -120.5c-10.667 15.333 -16 35.333 -16 60zM275 192.997c14.667 0 43.333 11.668 86 35.001c3.33301 24 5 46.5 5 67.5s-1.33301 39.667 -4 56
s-7.16699 33.5 -13.5 51.5s-16.5 32.333 -30.5 43s-30.667 16 -50 16c-67.333 0 -102 -46.667 -104 -140c0 -42.667 10 -74.834 30 -96.501s47 -32.5 81 -32.5z" />
    <glyph glyph-name="colon" unicode=":" horiz-adv-x="238" 
d="M203 127c6 -24 9 -44.5 9 -61.5s-1 -36.167 -3 -57.5c-23.333 -6 -45 -9 -65 -9s-42.667 1 -68 3c-6.66699 26.667 -10 46.167 -10 58.5s1.33301 32.5 4 60.5c22 6 43.167 9 63.5 9s43.5 -1 69.5 -3zM203 451c6 -24 9 -44.5 9 -61.5s-1 -36.167 -3 -57.5
c-23.333 -6 -45 -9 -65 -9s-42.667 1 -68 3c-6.66699 26.667 -10 46.167 -10 58.5s1.33301 32.5 4 60.5c22 6 43.167 9 63.5 9s43.5 -1 69.5 -3z" />
    <glyph glyph-name="semicolon" unicode=";" horiz-adv-x="235" 
d="M200 451c6 -24 9.00195 -44.5 9.00195 -61.5s-1 -36.167 -3 -57.5c-22.667 -6 -44.334 -9 -65.001 -9s-43.334 1 -68.001 3c-6.66699 26.667 -10 46.167 -10 58.5s1.33301 32.5 4 60.5c22 6 43.167 9 63.5 9s43.5 -1 69.5 -3zM200.002 128
c6 -24 8.99902 -51.335 8.99902 -82.002s-13 -64.5 -39 -101.5s-50.333 -62.5 -73 -76.5c-23.333 10 -42.333 23.333 -57 40c8.66699 26 27.667 56.333 57 91l-25 3c-6 20.667 -9 41.834 -9 63.501s1 40.834 3 57.501c27.333 6 47.833 9 61.5 9s37.834 -1.33301 72.501 -4z
" />
    <glyph glyph-name="less" unicode="&#x3c;" horiz-adv-x="441" 
d="M50 230c-2.66699 10.667 -4 20.834 -4 30.501s1.33301 19.167 4 28.5c81.333 81.333 136.666 135.666 165.999 162.999c42 40 88 76 138 108l49 -67c-125.333 -131.333 -200.666 -208.333 -225.999 -231l17 -15l220 -215l-60 -68c-48.667 31.333 -82.667 56 -102 74
c-124.667 116 -192 180 -202 192z" />
    <glyph glyph-name="equal" unicode="=" horiz-adv-x="596" 
d="M535 227c3.33301 -17.333 5.00098 -32.333 5.00098 -45l-3 -42c-52.667 -10 -97.334 -15 -134.001 -15l-328 7c-3.33301 16.667 -5 30.667 -5 42l4 44c52 10 96.667 15 134 15zM537.001 394c2 -18 3.00098 -33 3.00098 -45l-3 -42c-52.667 -10 -97.334 -15 -134.001 -15
l-328 7c-3.33301 16.667 -5 30.667 -5 42l4 43c52 10 96.667 15 134 15z" />
    <glyph glyph-name="greater" unicode="&#x3e;" horiz-adv-x="466" 
d="M434 289c2.66699 -9.33301 3.99805 -18.833 3.99805 -28.5s-1.33301 -19.834 -4 -30.501c-3.33301 -4 -33 -32.5 -89 -85.5l-103 -96.5c-24.667 -24 -62 -52 -112 -84l-60 68c130 128.667 209 205.334 237 230.001l-17 15l-209 216l49 67
c48.667 -31.333 91.334 -64 128.001 -98s95.334 -91.667 176.001 -173z" />
    <glyph glyph-name="question" unicode="?" horiz-adv-x="482" 
d="M309 525c7.33301 20 10.998 40.4971 10.998 61.4971s-6.66699 38.667 -20 53s-31.666 21.5 -54.999 21.5c-12 0 -24.667 -2 -38 -6l-23 -105l-92 4c-12 34 -19.333 76.333 -22 127c58.667 45.333 122.334 68 191.001 68c122.667 0 184 -59 184 -177
c0 -21.333 -4.5 -43.666 -13.5 -66.999s-18.167 -42.166 -27.5 -56.499s-23 -34.166 -41 -59.499c-38.667 -54.667 -61.667 -98 -69 -130c-2 -9.33301 -3 -36 -3 -80c-24 -4.66699 -50.667 -7 -80 -7c-12 28 -21.333 60 -28 96c6.66699 42 30.667 94.333 72 157
c13.333 20.667 23.833 37.5 31.5 50.5s15.167 29.5 22.5 49.5zM318.998 4.99707c-21.333 -5.33301 -42.667 -8.00098 -64 -8.00098s-41 1.33301 -59 4c-5.33301 22.667 -8 46 -8 70s1 42 3 54c21.333 4 42.833 6 64.5 6s41.167 -1 58.5 -3
c5.33301 -21.333 8 -43.166 8 -65.499s-1 -41.5 -3 -57.5z" />
    <glyph glyph-name="at" unicode="@" horiz-adv-x="915" 
d="M477 64c11.333 0 45 17.333 101 52c0 0.666992 -1 32 -3 94l-76 -7c-54 -5.33301 -81 -30.333 -81 -75c0 -42.667 19.667 -64 59 -64zM703 306l-3.99902 -229.999c24 -3.33301 50.667 -9.33301 80 -18c29.333 58.667 44 126 44 202c0 102 -29.333 180.333 -88 235
s-138.167 82 -238.5 82s-179.833 -27.333 -238.5 -82s-88 -134.167 -88 -238.5s32 -190.5 96 -258.5s140 -102 228 -102c52 0 114.333 7 187 21s121 28 145 42c6.66699 -6.66699 13.167 -18.167 19.5 -34.5s10.166 -31.166 11.499 -44.499
c-26 -17.333 -77.5 -33.333 -154.5 -48s-146.167 -22 -207.5 -22c-123.333 0 -225 42 -305 126s-120 190.5 -120 319.5s36.833 229.5 110.5 301.5s179 108 316 108s242.333 -34.167 316 -102.5s110.5 -164.166 110.5 -287.499c0 -52.667 -15.667 -106.667 -47 -162
s-64.666 -91.333 -99.999 -108c-14.667 -6.66699 -38.334 -13.834 -71.001 -21.501s-65 -11.5 -97 -11.5c-4.66699 9.33301 -11 26 -19 50c-59.333 -37.333 -103.666 -56 -132.999 -56c-51.333 0 -92.5 13.5 -123.5 40.5s-46.5 64.833 -46.5 113.5
c0 109.333 67.333 166.333 202 171c34 0 61.667 0.666992 83 2l-1 16c-1.33301 37.333 -7.83301 64.666 -19.5 81.999s-32.167 26 -61.5 26l-32 -6l-23 -101l-36 -1l-57 7c-12.667 34.667 -19.334 79.334 -20.001 134.001c14 7.33301 45.167 18.666 93.5 33.999
s78.833 23 91.5 23c72 0 122.833 -15.833 152.5 -47.5s44.5 -82.834 44.5 -153.501z" />
    <glyph glyph-name="A" unicode="A" horiz-adv-x="739" 
d="M519 689l1.00195 -10.0029c0 -27.333 -4.33301 -50.666 -13 -69.999c-8.66699 -6.66699 -22.334 -12 -41.001 -16l167 -494l95 -12c0 -27.333 -7.66699 -56.333 -23 -87h-243l-9 55l55 21l-40 113h-225c-20 -59.333 -30.667 -90.333 -32 -93l69 -9
c0 -14 -2.66699 -30.167 -8 -48.5s-10.333 -31.166 -15 -38.499h-243l-9 55c30 12.667 57 22 81 28l168 514c-44.667 6.66699 -78.334 15.334 -101.001 26.001c0 19.333 3 36.333 9 51c14 4.66699 46.833 10.167 98.5 16.5s101 9.5 148 9.5s83.833 -3.66699 110.5 -11z
M390.002 413.997l-29 132h-10l-32 -138l-47 -125h167z" />
    <glyph glyph-name="B" unicode="B" horiz-adv-x="630" 
d="M299 92c103.333 0 155 37 155 111c0 54 -12.5 88.167 -37.5 102.5s-81.167 21.5 -168.5 21.5l-4 -233c22.667 -1.33301 41 -2 55 -2zM402 429c21.333 12 32.001 37.167 32.001 75.5s-12.333 63.833 -37 76.5s-62 19 -112 19h-36c-1.33301 -84 -2 -147.333 -2 -190l46 -1
c51.333 1.33301 87.666 8 108.999 20zM294.001 -1l-246.999 -0.000976562l-9 55c34.667 14 62.667 23.667 84 29c0 2 -3 178.333 -9 529c-10.667 2.66699 -38.334 11.334 -83.001 26.001l8 61h277c79.333 0 141 -15.333 185 -46s66 -75 66 -133
c0 -28 -7.5 -58.333 -22.5 -91s-32.167 -52 -51.5 -58c29.333 -16 52.333 -38.333 69 -67s25 -61.667 25 -99c0 -61.333 -25 -111 -75 -149s-122.333 -57 -217 -57z" />
    <glyph glyph-name="C" unicode="C" horiz-adv-x="591" 
d="M477 474l-31.001 0.999023l-29 120c-38.667 6.66699 -67.667 10 -87 10c-38 0 -80.667 -7.66699 -128 -23c-14 -26 -25 -59.333 -33 -100s-12 -79 -12 -115c0 -184 53 -276 159 -276c45.333 0 81.333 6.66699 108 20l21 122c42 0 74 -2.33301 96 -7
c10.667 -72.667 16 -131.667 16 -177c-16 -12 -48.167 -25.333 -96.5 -40s-95.833 -22 -142.5 -22c-198.667 0 -298 122.667 -298 368c0 116.667 24.167 205.334 72.5 266.001s125.5 91 231.5 91c52.667 0 99.334 -7.66699 140.001 -23c36 -13.333 66.667 -28 92 -44
c0 -45.333 -5 -100 -15 -164c-18.667 -4.66699 -40 -7 -64 -7z" />
    <glyph glyph-name="D" unicode="D" horiz-adv-x="667" 
d="M635 365c0 -146.667 -35 -248.668 -105 -306.001c-28.667 -22.667 -59.667 -38.167 -93 -46.5s-77 -12.5 -131 -12.5h-259l-9 55c50.667 18.667 78.667 28.334 84 29.001c0 2 -3 178.333 -9 529c-29.333 7.33301 -57 16 -83 26c4 34.667 6.66699 55 8 61h265
c65.333 0 117.5 -6.66699 156.5 -20s73.5 -37 103.5 -71c48 -56 72 -137.333 72 -244zM466.5 151.999c25 36.667 37.501 100.001 37.501 190.001s-14 155.5 -42 196.5s-74.667 61.5 -140 61.5h-73c-2.66699 -224.667 -4.33398 -392.334 -5.00098 -503.001h71
c76 0 126.5 18.333 151.5 55z" />
    <glyph glyph-name="E" unicode="E" 
d="M249 600c0 -76 -0.665039 -141.334 -1.99805 -196.001h102l10 69c34 0 67 -8.33301 99 -25v-200l-66 -3c-16 24 -25.333 45 -28 63h-118c-1.33301 -93.333 -2 -163.666 -2 -210.999h171l22 87c41.333 0 72.666 -2 93.999 -6c10 -38 15 -72.5 15 -103.5
s-1 -55.833 -3 -74.5h-496l-9 55c43.333 16.667 71.333 26.334 84 29.001c-0.666992 39.333 -1.33398 94.666 -2.00098 165.999c-2.66699 160 -5 281 -7 363l-83 26l8 61h491c2 -18 3 -40.5 3 -67.5s-5 -64.5 -15 -112.5c-20.667 -6.66699 -52 -10 -94 -10l-23 90h-151z" />
    <glyph glyph-name="F" unicode="F" horiz-adv-x="556" 
d="M249 600c0 -93.333 -0.666016 -166.667 -1.99902 -220h102l10 69c34 0 67 -8.33301 99 -25v-198l-66 -5c-16 24 -25.333 45 -28 63h-118l-2 -188l99 -11c0 -26 -7.66699 -54.333 -23 -85h-273l-9 55c43.333 16.667 71.333 26.334 84 29.001
c-0.666992 39.333 -1.33398 94.666 -2.00098 165.999c-2.66699 160 -5 281 -7 363l-83 26l8 61h491c2 -18 3 -40.833 3 -68.5s-5 -65.5 -15 -113.5c-14.667 -4.66699 -37 -7 -67 -7l-22 1h-5l-23 88h-151z" />
    <glyph glyph-name="G" unicode="G" horiz-adv-x="655" 
d="M318 -13c-90.667 0 -162.999 30.667 -216.999 92s-81 152 -81 272s23.5 210.167 70.5 270.5s123.167 90.5 228.5 90.5c44.667 0 87.5 -6 128.5 -18s68.833 -22.167 83.5 -30.5s26.334 -15.833 35.001 -22.5c0 -42.667 -5.33301 -90 -16 -142
c-17.333 -8 -34.5 -12 -51.5 -12s-31.5 0.666992 -43.5 2l-21 104c-29.333 8 -58 12 -86 12c-39.333 0 -88.333 -8 -147 -24c-29.333 -58.667 -44 -130 -44 -214c0 -184 54 -276 162 -276c54 0 97 9 129 27c1.33301 34.667 2.66602 88 3.99902 160l-84 26l8 61h242
c8 -14.667 14 -41 18 -79c-22.667 -4.66699 -47 -8 -73 -10c4 -86 6 -160 6 -222c-19.333 -12.667 -54.333 -27 -105 -43s-99.334 -24 -146.001 -24z" />
    <glyph glyph-name="H" unicode="H" horiz-adv-x="744" 
d="M512 84l-4 235.998h-262c-1.33301 -100 -2 -174.667 -2 -224l69 -9c0 -27.333 -7.66699 -56.333 -23 -87h-243l-9 55c37.333 15.333 65.333 25 84 29c0 2 -3 178.333 -9 529l-83 26l8 61h259c10.667 -18 17 -44.333 19 -79c-34 -5.33301 -56.333 -8.66602 -67 -9.99902
c-1.33301 -86.667 -2 -151.667 -2 -195h259l-3 197l-83 26l8 61h259c10.667 -18 17 -44.333 19 -79c-34 -5.33301 -56.333 -8.66602 -67 -9.99902l-5 -515l69 -9c0 -27.333 -7.66699 -56.333 -23 -87h-243l-9 55c37.333 15.333 65.333 25 84 29z" />
    <glyph glyph-name="I" unicode="I" horiz-adv-x="380" 
d="M323 700c-0.666992 0 -0.5 -0.666992 0.5 -2s2.33301 -4.16602 4 -8.49902s3.5 -9.5 5.5 -15.5c4 -10.667 6.66699 -28.334 8 -53.001c-34 -5.33301 -56.333 -8.66602 -67 -9.99902l-5 -515l69 -9c0 -27.333 -7.66699 -56.333 -23 -87h-243l-9 55
c37.333 15.333 65.333 25 84 29c-0.666992 39.333 -1.66699 94.666 -3 165.999c-2 160 -4 281 -6 363l-83 26l8 61h260z" />
    <glyph glyph-name="J" unicode="J" horiz-adv-x="464" 
d="M185 93c42 0 62.9971 31.999 62.9971 95.999c0 24 -3.66699 165.333 -11 424l-83 26l8 61h260c12 -26 18 -52.333 18 -79c-40 -6.66699 -62.333 -10 -67 -10c-0.666992 -38.667 -1.16699 -107.667 -1.5 -207s-1.16602 -177.166 -2.49902 -233.499s-16 -101 -44 -134
s-68.667 -49.5 -122 -49.5c-38.667 0 -77.167 6 -115.5 18s-65.833 26 -82.5 42c0.666992 48.667 6 104 16 166c26.667 7.33301 59.334 11 98.001 11l19 -127c10.667 -2.66699 26.334 -4 47.001 -4z" />
    <glyph glyph-name="K" unicode="K" horiz-adv-x="692" 
d="M245 216l-1 -120.001l69 -9c0 -27.333 -7.66699 -56.333 -23 -87h-243l-9 55c37.333 15.333 65.333 25 84 29c0 2 -3 178.333 -9 529l-83 26l8 61h259c10.667 -18 17 -44.333 19 -79c-34 -5.33301 -56.333 -8.66602 -67 -9.99902l-3 -226l197 226l-63 10
c0 20 6 46.333 18 79h260c4 -24 6.66699 -44.333 8 -61c-35.333 -13.333 -63 -22 -83 -26l-183 -238l202 -278l89 -9c0 -28 -7.66699 -57.333 -23 -88h-143l-206 296z" />
    <glyph glyph-name="L" unicode="L" horiz-adv-x="592" 
d="M467 182c16 2.66699 28.168 4 36.501 4s26.5 -2.33301 54.5 -7c2.66699 -5.33301 6.5 -22.333 11.5 -51s7.5 -51.834 7.5 -69.501s-2 -37.167 -6 -58.5h-485l-9 55c32.667 13.333 60.667 23 84 29c0 2 -3 178.333 -9 529l-83 26l8 61h260
c-0.666992 0 -0.5 -0.666992 0.5 -2s2.33301 -4.16602 4 -8.49902s3.5 -9.5 5.5 -15.5c4 -10.667 6.66699 -28.334 8 -53.001c-34 -5.33301 -56.333 -8.66602 -67 -9.99902c-2.66699 -230 -4.33398 -401.667 -5.00098 -515h162z" />
    <glyph glyph-name="M" unicode="M" horiz-adv-x="972" 
d="M519 204l92 496h260c5.33301 -28.667 8 -49 8 -61c-32 -11.333 -59.667 -20 -83 -26l71 -517l69 -9c0 -27.333 -7.66699 -56.333 -23 -87h-243l-9 55c37.333 15.333 65.333 25 84 29l-77 408l-102 -443h-102l-158 489l-85 -442l69 -9c0 -27.333 -7.66699 -56.333 -23 -87
h-243l-9 55c37.333 15.333 65.333 25 84 29l71 529l-83 26l8 61h280l134 -496h10z" />
    <glyph glyph-name="N" unicode="N" horiz-adv-x="785" 
d="M710 611l-2.99902 -611.002h-128l-330 538c-2.66699 -195.333 -4.33398 -342.666 -5.00098 -441.999l69 -9c0 -27.333 -7.66699 -56.333 -23 -87h-243l-9 55c37.333 15.333 65.333 25 84 29c0 2 -3 178.333 -9 529l-83 26l8 61h260l291 -522l-15 435l-83 26l8 61h260
c-0.666992 0 -0.5 -0.666992 0.5 -2s2.33301 -4.16602 4 -8.49902s3.5 -9.5 5.5 -15.5c4 -10.667 6.66699 -28.334 8 -53.001c-34 -5.33301 -56.333 -8.66602 -67 -9.99902z" />
    <glyph glyph-name="O" unicode="O" horiz-adv-x="647" 
d="M330 94c110.667 0 166 84.999 166 254.999s-55.333 255 -166 255c-48 0 -90 -7.33301 -126 -22c-30.667 -64 -46 -138.167 -46 -222.5s12.667 -149.666 38 -195.999s70 -69.5 134 -69.5zM330 711.999c111.333 0 189.667 -29.168 235 -87.501s68 -147.5 68 -267.5
c0 -75.333 -9.66699 -139.666 -29 -192.999s-52 -96 -98 -128s-104.667 -48 -176 -48c-108.667 0 -187.5 30.333 -236.5 91s-73.5 149 -73.5 265c0 245.333 103.333 368 310 368z" />
    <glyph glyph-name="P" unicode="P" horiz-adv-x="575" 
d="M316 700c84.667 0 147.669 -14.6689 189.002 -44.002s62 -82.666 62 -159.999c0 -64.667 -20 -118.5 -60 -161.5s-104 -64.5 -192 -64.5c-28.667 0 -51.334 0.333008 -68.001 1l-2 -176l73 -8c0 -29.333 -7.66699 -58.333 -23 -87h-247l-9 55
c34.667 14 62.667 23.667 84 29c0 2 -3 178.333 -9 529c-10.667 2.66699 -38.334 11.334 -83.001 26.001l8 61h277zM398.002 401.998c24.667 24 36.999 55 36.999 93s-10.833 65.167 -32.5 81.5s-55.5 24.5 -101.5 24.5c-18 0 -35 -0.333008 -51 -1
c-1.33301 -105.333 -2 -184 -2 -236l46 1c44.667 0.666992 79.334 13 104.001 37z" />
    <glyph glyph-name="Q" unicode="Q" horiz-adv-x="639" 
d="M359 -45c26.667 -7.33301 53.6699 -16.833 81.0029 -28.5s44.666 -18.5 51.999 -20.5c31.333 -10 79.666 -15 144.999 -15c-2.66699 -25.333 -6.83398 -47.333 -12.501 -66s-13.167 -34 -22.5 -46c-50 2.66699 -94.333 11.334 -133 26.001c-10.667 4 -30 12.167 -58 24.5
s-52.667 21.666 -74 27.999s-41.5 9.5 -60.5 9.5s-45.667 -4.16699 -80 -12.5s-51.833 -12.5 -52.5 -12.5c-24 20.667 -36 43.667 -36 69c40.667 18.667 75.5 32.5 104.5 41.5s54 13.5 75 13.5s44.833 -3.66699 71.5 -11zM330.003 94c110.667 0 166 84.999 166 254.999
s-55.333 255 -166 255c-48 0 -90 -7.33301 -126 -22c-30.667 -64 -46 -138.167 -46 -222.5s12.667 -149.666 38 -195.999s70 -69.5 134 -69.5zM330.003 711.999c111.333 0 189.667 -29.168 235 -87.501s68 -147.5 68 -267.5c0 -75.333 -9.66699 -139.666 -29 -192.999
s-52 -96 -98 -128s-104.667 -48 -176 -48c-108.667 0 -187.5 30.333 -236.5 91s-73.5 149 -73.5 265c0 245.333 103.333 368 310 368z" />
    <glyph glyph-name="R" unicode="R" horiz-adv-x="656" 
d="M281 700c116.667 0 194 -16.666 232 -49.999c34.667 -30 52 -76.333 52 -139c0 -97.333 -50.667 -163.666 -152 -198.999l144 -217l86 -9c0 -28.667 -7.66699 -57.334 -23 -86.001h-145l-196 299h-32l-3 -204l73 -8c0 -27.333 -7.66699 -56.333 -23 -87h-247l-9 55
c40 16 68 25.667 84 29l-5 297l-4 233l-83 25c0.666992 15.333 3.66699 35.666 9 60.999h242zM360 593.001c-20.667 4.66699 -48.333 6.99902 -83 6.99902h-28c-1.33301 -92 -2 -161 -2 -207l49 1c39.333 0.666992 70.5 8.83398 93.5 24.501s34.5 46.167 34.5 91.5
s-21.333 73 -64 83z" />
    <glyph glyph-name="S" unicode="S" horiz-adv-x="573" 
d="M294 96c77.333 0 116 32.999 116 98.999c0 28 -14.667 51.667 -44 71c-21.333 14.667 -50.5 30.5 -87.5 47.5s-64.667 30.5 -83 40.5s-39.5 24 -63.5 42c-46 35.333 -69 79.333 -69 132s20.5 96.5 61.5 131.5s96.5 52.5 166.5 52.5s144.667 -22.333 224 -67
c0 -48 -5 -100 -15 -156c-21.333 -6.66699 -53 -10 -95 -10l-29 119c-24.667 7.33301 -51.667 11 -81 11s-52 -6.33301 -68 -19s-24 -31.5 -24 -56.5s12.5 -47.333 37.5 -67s55.167 -37.667 90.5 -54s59.666 -27.833 72.999 -34.5s30.333 -16.667 51 -30
s36.334 -26 47.001 -38c27.333 -32 41 -67.667 41 -107c0 -69.333 -23 -122.666 -69 -159.999s-106 -56 -180 -56c-39.333 0 -82.5 6.83301 -129.5 20.5s-86.833 31.167 -119.5 52.5c1.33301 40.667 6.66602 95.667 15.999 165c26.667 5.33301 58.667 8 96 8l21 -120
c36.667 -11.333 75.334 -17 116.001 -17z" />
    <glyph glyph-name="T" unicode="T" horiz-adv-x="621" 
d="M36 518c-10.667 46 -16 82.333 -16 109s1 51 3 73h581c2.66699 -32 4 -53.667 4 -65c0 -28.667 -5.33301 -67.667 -16 -117c-19.333 -5.33301 -51 -8 -95 -8l-23 101h-85c-0.666992 -25.333 -3.66699 -197 -9 -515l72 -9c0 -30.667 -7.66699 -59.667 -23 -87h-243l-9 55
c46 17.333 75 27 87 29c0 2.66699 -4 178 -12 526h-99l-22 -98c-39.333 0 -71 2 -95 6z" />
    <glyph glyph-name="U" unicode="U" horiz-adv-x="754" 
d="M574 363l-4.00098 249.996l-83 26l8 61h260c-0.666992 0 -0.5 -0.666992 0.5 -2s2.33301 -4.16602 4 -8.49902s3.5 -9.5 5.5 -15.5c4 -10.667 6.66699 -28.334 8 -53.001c-34 -5.33301 -56.333 -8.66602 -67 -9.99902l-2 -254
c-1.33301 -127.333 -24.5 -220.666 -69.5 -279.999s-121.833 -89 -230.5 -89s-184.334 27.667 -227.001 83s-64.667 144.833 -66 268.5s-2.66602 214.834 -3.99902 273.501l-83 26l8 61h260c-0.666992 0 -0.5 -0.666992 0.5 -2s2.33301 -4.16602 4 -8.49902
s3.5 -9.5 5.5 -15.5c4 -10.667 6.66699 -28.334 8 -53.001c-34 -5.33301 -56.333 -8.66602 -67 -9.99902l-3 -254c0 -74 4 -126.5 12 -157.5s18 -52.833 30 -65.5c26 -26.667 67.333 -40 124 -40c54.667 0 96 15.333 124 46c22.667 24.667 36.334 68 41.001 130
c2 24.667 3 55.667 3 93z" />
    <glyph glyph-name="V" unicode="V" horiz-adv-x="730" 
d="M373 187c12 41.333 56.668 183 134.001 425l-89 27l8 61h259c12 -24 18.333 -50.333 19 -79l-62 -9l-199 -612h-133l-215 612l-89 27l8 61h259c12 -24 18.333 -50.333 19 -79c-28.667 -4.66699 -48.334 -7.66699 -59.001 -9z" />
    <glyph glyph-name="W" unicode="W" horiz-adv-x="1078" 
d="M682 0l-132 545h-10l-134 -545h-156l-160 616c-20.667 5.33301 -48.667 15 -84 29l9 55h243c15.333 -30.667 23 -59.667 23 -87c-20 -4 -43 -7 -69 -9l105 -442l158 538h152l131 -532l108 448c-20.667 5.33301 -48.667 15 -84 29l9 55h243
c15.333 -30.667 23 -59.667 23 -87c-20 -4 -43 -7 -69 -9l-162 -604h-144z" />
    <glyph glyph-name="X" unicode="X" horiz-adv-x="722" 
d="M443 611c-27.333 3.33301 -48.334 6.66602 -63.001 9.99902c0 20 6 46.333 18 79h260c4 -24 6.66699 -44.333 8 -61c-35.333 -13.333 -63 -22 -83 -26l-180 -253l190 -263l89 -9c0 -28 -7.66699 -57.333 -23 -88h-244l-9 55c12.667 4.66699 31.334 12.334 56.001 23.001
l-135 185l-111 -167l69 -9c0 -28 -8 -57 -24 -87h-242l-9 55c28.667 13.333 56.667 23 84 29l164 276l-182 253l-61 8c2.66699 36 8.66699 62.333 18 79h270c5.33301 -28.667 8 -49 8 -61c-38 -14 -65.667 -22.667 -83 -26l52 -74.5c24 -33.667 43.667 -62.167 59 -85.5z
" />
    <glyph glyph-name="Y" unicode="Y" horiz-adv-x="678" 
d="M408 262l-0.999023 -166.001l69 -9c0 -27.333 -7.66699 -56.333 -23 -87h-243l-9 55c46 18 74 27.667 84 29c0 39.333 -0.666992 98.333 -2 177l-189 351l-88 27l8 61h260c12 -22 18 -48.333 18 -79c-15.333 -2.66699 -35 -5.66699 -59 -9l107 -241h9l114 242
c-22.667 4.66699 -50.334 13.334 -83.001 26.001l7 61h261c11.333 -16.667 17.333 -43 18 -79c-26 -5.33301 -52 -9 -78 -11z" />
    <glyph glyph-name="Z" unicode="Z" horiz-adv-x="596" 
d="M182 494l-30.999 -0.999023c-18.667 0 -38 4 -58 12c-12 52 -18 92.667 -18 122s1.33301 53.666 4 72.999h459c16 -21.333 26.667 -47.666 32 -78.999l-352 -525h217l22 107l32 1c18.667 0 38 -4 58 -12c11.333 -50 17 -89.333 17 -118s-1.33301 -53.334 -4 -74.001h-483
c-16.667 21.333 -27.334 47 -32.001 77l351 524h-190z" />
    <glyph glyph-name="bracketleft" unicode="[" horiz-adv-x="368" 
d="M218 667l-3.99805 -775.005l119 -8c0 -34 -1.33301 -58 -4 -72c-10.667 -3.33301 -42.834 -7.16602 -96.501 -11.499s-91.5 -6.5 -113.5 -6.5c-2.66699 2.66699 -6.5 11.334 -11.5 26.001s-7.83301 27.334 -8.5 38.001c-2.66699 186 -7.33398 469.667 -14.001 851
c0.666992 10.667 3.66699 23.5 9 38.5s9 23.5 11 25.5c22.667 0 63 -2.16699 121 -6.5s92.333 -8.16602 103 -11.499c2 -16 3 -40 3 -72c-10.667 -3.33301 -48.667 -8.66602 -114 -15.999z" />
    <glyph glyph-name="backslash" unicode="\" horiz-adv-x="407" 
d="M411 -1c-13.333 -2 -32.332 -3 -56.999 -3s-44 1.66699 -58 5l-266 693c34 6 59.667 9 77 9s34.666 -1.33301 51.999 -4z" />
    <glyph glyph-name="bracketright" unicode="]" horiz-adv-x="318" 
d="M159 -108l-3.99805 775.005c-65.333 7.33301 -103.333 12.666 -114 15.999c0 32 1 56 3 72c10.667 3.33301 45 7.16602 103 11.499s98.333 6.5 121 6.5c2 -2 5.66699 -10.5 11 -25.5s8.33301 -27.833 9 -38.5c-6.66699 -381.333 -11.334 -665 -14.001 -851
c-0.666992 -10.667 -3.5 -23.334 -8.5 -38.001s-8.83301 -23.334 -11.5 -26.001c-22 0 -59.833 2.16699 -113.5 6.5s-85.834 8.16602 -96.501 11.499c-2.66699 14 -4 38 -4 72c45.333 4 85 6.66699 119 8z" />
    <glyph glyph-name="asciicircum" unicode="^" horiz-adv-x="512" 
d="M223 700c2.66699 1.33301 13.665 2.00098 32.998 2.00098s32 -1 38 -3l158 -303c-3.33301 -4 -10.666 -8.16699 -21.999 -12.5s-19.333 -6.5 -24 -6.5c-46.667 34 -78.667 67 -96 99c-4 6.66699 -11.167 21.334 -21.5 44.001l-32.5 68l-32.5 -68
c-10.333 -22.667 -18.5 -39.167 -24.5 -49.5s-17 -23.833 -33 -40.5s-36 -34.334 -60 -53.001c-4.66699 0 -12.667 2.16699 -24 6.5s-18.666 8.5 -21.999 12.5c104.667 199.333 159 300.666 163 303.999z" />
    <glyph glyph-name="underscore" unicode="_" horiz-adv-x="503" 
d="M511 -125c2 -16.667 3 -31.333 3 -44l-4 -41c-52 -10 -96.333 -15 -133 -15l-371 7c-4 18.667 -6 32.667 -6 42l5 43c52 10 96.667 15 134 15z" />
    <glyph glyph-name="grave" unicode="`" horiz-adv-x="833" 
d="M259 747l158.002 -130.999c-18.667 -24 -39.334 -45 -62.001 -63c-67.333 33.333 -120.333 69 -159 107c1.33301 12 7.16602 25.167 17.499 39.5s25.5 30.166 45.5 47.499z" />
    <glyph glyph-name="a" unicode="a" horiz-adv-x="539" 
d="M219 -12c-56.667 0 -100.498 11.668 -131.498 35.001s-46.5 62.666 -46.5 117.999c0 52.667 18.333 95.667 55 129c21.333 19.333 51 30.666 89 33.999s90.333 5 157 5v16c0 40.667 -6.5 70.5 -19.5 89.5s-35.833 28.5 -68.5 28.5c-16.667 0 -31.667 -3.33301 -45 -10
l-24 -87l-74 2c-16.667 25.333 -25.667 65.666 -27 120.999c13.333 6.66699 44.666 16.834 93.999 30.501s81 20.5 95 20.5c72 0 124.333 -14.833 157 -44.5s49 -76.667 49 -141s-3 -149.166 -9 -254.499c38 -3.33301 67.333 -9 88 -17c0.666992 -8 1 -17.667 1 -29l-1 -22
c-48 -16 -96.333 -24 -145 -24c-12.667 0 -22 0.333008 -28 1c-10 20 -16 44 -18 72h-5c-12.667 -12 -34.834 -27.167 -66.501 -45.5s-57.167 -27.5 -76.5 -27.5zM189.502 86.501c13.667 -10.333 29.168 -15.501 46.501 -15.501s38 7.83301 62 23.5s43.333 29.834 58 42.501
l-5 92c-52.667 -2.66699 -92.334 -7.66699 -119.001 -15c-42 -8.66699 -63 -35 -63 -79c0 -22 6.83301 -38.167 20.5 -48.5z" />
    <glyph glyph-name="b" unicode="b" horiz-adv-x="529" 
d="M209 743c16 0 26.3311 -0.333008 30.998 -1c0 -34.667 -4.33301 -65 -13 -91l-3 -168c62 24.667 104.667 37 128 37c66 0 114.833 -24.5 146.5 -73.5s47.5 -112.5 47.5 -190.5s-17.667 -142.167 -53 -192.5s-86.666 -75.5 -153.999 -75.5c-44 0 -90.333 16.667 -139 50
c-2.66699 -15.333 -6.66699 -29.333 -12 -42c-12 -1.33301 -24 -2 -36 -2s-27 2 -45 6l-21 640c-31.333 3.33301 -57.666 8.33301 -78.999 15c0 24.667 2.33301 48.667 7 72c38.667 10.667 103.667 16 195 16zM334.998 415c-43.333 0 -80.6689 -7.66699 -112.002 -23
c-1.33301 -112 -2.66602 -196.667 -3.99902 -254c16 -13.333 34.333 -25.333 55 -36s38.334 -16 53.001 -16c58 0 87 53.333 87 160c0 45.333 -6.16699 84.833 -18.5 118.5s-32.5 50.5 -60.5 50.5z" />
    <glyph glyph-name="c" unicode="c" horiz-adv-x="472" 
d="M307 437l-16 0.999023c-37.333 0 -67.166 -12.833 -89.499 -38.5s-33.5 -68.667 -33.5 -129s8.5 -106.166 25.5 -137.499s49.833 -47 98.5 -47c22.667 0 70.667 15.333 144 46c16.667 -23.333 25.667 -47.666 27 -72.999c-36.667 -22.667 -72.5 -40.334 -107.5 -53.001
s-59.833 -19 -74.5 -19c-82 0 -143.333 22.5 -184 67.5s-61 108.167 -61 189.5c0 184 83 276 249 276c28.667 0 58.167 -3.5 88.5 -10.5s54.166 -15.833 71.499 -26.5c-2 -66.667 -9.33301 -115 -22 -145c-22 -5.33301 -53 -8 -93 -8z" />
    <glyph glyph-name="d" unicode="d" horiz-adv-x="565" 
d="M479 743c12.667 0 20.667 -0.333008 24 -1c0 -34.667 -4.33301 -65 -13 -91c-2.66699 -72 -5.83398 -174.5 -9.50098 -307.5s-6.16699 -220.833 -7.5 -263.5c39.333 -5.33301 68.666 -11 87.999 -17v-48c-42 -18 -99.667 -27 -173 -27c-4 7.33301 -9.33301 25.333 -16 54
c-61.333 -33.333 -105.666 -51.333 -132.999 -54c-68 0 -118.833 24.667 -152.5 74s-50.5 112.833 -50.5 190.5s17 143 51 196s84.333 79.5 151 79.5c36.667 0 75.334 -11.333 116.001 -34l-5 146c-31.333 3.33301 -57.666 8.33301 -78.999 15c0 16.667 2.33301 40.667 7 72
c39.333 10.667 106.666 16 201.999 16zM254 430c-57.333 0 -86 -55.333 -86 -166c0 -63.333 11.333 -111 34 -143c12.667 -18.667 29 -28 49 -28c34 0 72.333 11.667 115 35l-9 258c-38 29.333 -72.333 44 -103 44z" />
    <glyph glyph-name="e" unicode="e" horiz-adv-x="512" 
d="M297 86c22.667 0 68.6689 15.668 138.002 47.001c14.667 -21.333 25.667 -46 33 -74c-36.667 -22.667 -72.5 -40.167 -107.5 -52.5s-59.833 -18.5 -74.5 -18.5c-80.667 0 -141.834 22.333 -183.501 67s-62.5 108.167 -62.5 190.5s20.667 148.666 62 198.999
s102.666 75.5 183.999 75.5c64.667 0 114 -21 148 -63s51 -96.667 51 -164c0 -14 -8 -30 -24 -48l-288 5c1.33301 -53.333 11.333 -94 30 -122s50 -42 94 -42zM277.002 437.001c-25.333 0 -49 -5 -71 -15c-15.333 -32 -25 -61.667 -29 -89c52 2 111 3.33301 177 4
c-3.33301 66.667 -29 100 -77 100z" />
    <glyph glyph-name="f" unicode="f" horiz-adv-x="368" 
d="M304 656l-17.9971 1c-21.333 0 -36.333 -10.5 -45 -31.5s-13.334 -57.5 -14.001 -109.5c40 -0.666992 71.333 -3.66699 94 -9c1.33301 0 9.33301 -1 24 -3c-2 -30 -10 -58.667 -24 -86h-94c-2.66699 -142.667 -4.33398 -249.667 -5.00098 -321
c66 -4.66699 102.667 -10.667 110 -18c0 -22 -8.33301 -48.333 -25 -79h-278l-9 55c52 18.667 82 28.667 90 30l-11 333h-70l3 57c17.333 12 39.666 20.667 66.999 26v27c0 78.667 15.333 136 46 172c28 32.667 68.833 49 122.5 49s110.5 -14.667 170.5 -44l1 -16
c0 -36.667 -4.66699 -77.667 -14 -123c-20 -5.33301 -38.333 -8 -55 -8s-29 0.666992 -37 2z" />
    <glyph glyph-name="g" unicode="g" horiz-adv-x="578" 
d="M364 142.5c-24.667 -6.33301 -48.499 -9.50098 -71.499 -9.50098s-43.167 2.33301 -60.5 7c-7.33301 -17.333 -14.333 -30.333 -21 -39c5.33301 -8 61.333 -12 168 -12c66.667 0 113.667 -10.333 141 -31c12.667 -8.66699 23.834 -22.334 33.501 -41.001
s14.5 -42.834 14.5 -72.501s-14.667 -59.5 -44 -89.5s-66 -53.667 -110 -71s-87.667 -26 -131 -26c-72 0 -130.333 14.167 -175 42.5s-67 63.5 -67 105.5c0 8 11.667 27.5 35 58.5s38.666 48.833 45.999 53.5c-6.66699 3.33301 -18.334 14.5 -35.001 33.5s-26 32.5 -28 40.5
c8.66699 24 35.334 54 80.001 90c-52 31.333 -78 84 -78 158c0 58.667 20.167 103.334 60.5 134.001s93.666 46 159.999 46s116.5 -9 150.5 -27c56.667 10 96.834 15 120.501 15s39.167 -0.333008 46.5 -1c0 -16 -3.83301 -34.167 -11.5 -54.5s-14.834 -34.5 -21.501 -42.5
l-86 20c16.667 -24 25 -55 25 -93s-6.33301 -71.167 -19 -99.5s-30 -49.666 -52 -63.999s-45.333 -24.666 -70 -30.999zM436.001 -69.001c0 16.667 -7.33594 28.833 -22.0029 36.5s-32 11.5 -52 11.5c-78 0 -129.667 0.666992 -155 2c-5.33301 -11.333 -12 -27.5 -20 -48.5
s-12 -33.5 -12 -37.5s2.66699 -9.83301 8 -17.5s16.833 -15.834 34.5 -24.501s39.334 -13 65.001 -13s55.834 6 90.501 18s53.334 21.667 56.001 29c4.66699 12.667 7 27.334 7 44.001zM282.998 444.998c-28 0 -49.833 -9.00098 -65.5 -27.001s-23.5 -44.167 -23.5 -78.5
s8 -61.166 24 -80.499s37.667 -29 65 -29c59.333 0 89 36.667 89 110c0 34 -7.83301 60 -23.5 78s-37.5 27 -65.5 27z" />
    <glyph glyph-name="h" unicode="h" horiz-adv-x="617" 
d="M229 743l23.999 -0.998047c0 -34.667 -4.33301 -65 -13 -91c-1.33301 -76 -2 -133 -2 -171c21.333 9.33301 45.666 18.333 72.999 27s44.333 13 51 13c68 0 116.833 -15.333 146.5 -46s44.5 -79 44.5 -145c0 -6.66699 -3.33301 -84.334 -10 -233.001l78 -10
c0 -28.667 -7.66699 -57.334 -23 -86.001h-249l-9 55c44.667 18 73.334 27.667 86.001 29c-1.33301 72 -3 135.833 -5 191.5s-7.33301 92.5 -16 110.5s-22.5 27 -41.5 27s-40.667 -2.16699 -65 -6.5s-43.166 -9.5 -56.499 -15.5l-11 -295l78 -9
c0 -27.333 -7.66699 -56.333 -23 -87h-249l-9 55c41.333 15.333 71.333 25.333 90 30l-19 555c-31.333 3.33301 -57.666 8.33301 -78.999 15c0 16.667 2.33301 40.667 7 72c39.333 10.667 106.666 16 201.999 16z" />
    <glyph glyph-name="i" unicode="i" horiz-adv-x="308" 
d="M239 512c12.667 0 20.6689 -0.333008 24.002 -1c0 -32.667 -5.66699 -63 -17 -91c-2.66699 -144 -4.33398 -252 -5.00098 -324l78 -9c0 -27.333 -7.66699 -56.333 -23 -87h-249l-9 55c41.333 15.333 71.333 25.333 90 30l-11 324c-39.333 4 -68.333 9 -87 15
c0 16.667 2.33301 40.667 7 72c39.333 10.667 106.666 16 201.999 16zM239.002 701c6 -30 9 -52.833 9 -68.5s-1.33301 -33.167 -4 -52.5c-26.667 -6 -49.167 -9 -67.5 -9s-40.5 1 -66.5 3c-6 30 -9 52.833 -9 68.5s1.33301 33.167 4 52.5c26.667 6 49.167 9 67.5 9
s40.5 -1 66.5 -3z" />
    <glyph glyph-name="j" unicode="j" horiz-adv-x="285" 
d="M41 -150l21.0029 -0.999023c22 0 38.167 11.5 48.5 34.5s15.5 51.5 15.5 85.5c0 83.333 -5 230 -15 440c-39.333 4 -68.333 9 -87 15c0 16.667 2.33301 40.667 7 72c39.333 10.667 106.666 16 201.999 16c12.667 0 20.667 -0.333008 24 -1
c0 -32.667 -5.66699 -63 -17 -91l-4 -433c-0.666992 -78.667 -13 -136.167 -37 -172.5s-71 -54.5 -141 -54.5c-22.667 0 -50.834 5.16699 -84.501 15.5s-57.5 20.166 -71.5 29.499c3.33301 64 10.333 112 21 144c15.333 6 35.666 9 60.999 9l33 -1zM233.003 701.001
c6 -30 9 -52.833 9 -68.5s-1.33301 -33.167 -4 -52.5c-26.667 -6 -49.167 -9 -67.5 -9s-40.5 1 -66.5 3c-6 30 -9 52.833 -9 68.5s1.33301 33.167 4 52.5c26.667 6 49.167 9 67.5 9s40.5 -1 66.5 -3z" />
    <glyph glyph-name="k" unicode="k" horiz-adv-x="591" 
d="M231 173l-1 -77l78 -9c0 -27.333 -7.66699 -56.333 -23 -87h-249l-9 55c41.333 15.333 71.333 25.333 90 30l-19 555c-31.333 3.33301 -57.666 8.33301 -78.999 15c0 24.667 2.33301 48.667 7 72c39.333 10.667 106.666 16 201.999 16c12.667 0 20.667 -0.333008 24 -1
c0 -34.667 -4.33301 -65 -13 -91c-4 -160 -6 -278.667 -6 -356l119 118l-62 8c0 27.333 7.66699 56.333 23 87h249l9 -55c-41.333 -15.333 -71.333 -25.333 -90 -30l-110 -110l140 -217l78 -9c0 -27.333 -7.66699 -56.333 -23 -87h-128l-148 232z" />
    <glyph glyph-name="l" unicode="l" horiz-adv-x="295" 
d="M228 743c12.667 0 20.667 -0.333984 24 -1.00098c0 -34.667 -4.33301 -65 -13 -91c-0.666992 -41.333 -1.66699 -99.666 -3 -174.999l-6 -380l78 -9c0 -27.333 -7.66699 -56.333 -23 -87h-249l-9 55c41.333 15.333 71.333 25.333 90 30l-19 555
c-31.333 3.33301 -57.666 8.33301 -78.999 15c0 24.667 2.33301 48.667 7 72c39.333 10.667 106.666 16 201.999 16z" />
    <glyph glyph-name="m" unicode="m" horiz-adv-x="928" 
d="M718.5 386c-9.66699 18 -31.667 27 -66 27s-66.166 -7.33301 -95.499 -22c0 -85.333 -4.33301 -183.666 -13 -294.999l79 -9c0 -27.333 -7.66699 -56.333 -23 -87h-249l-9 55c34.667 12.667 65 22.667 91 30l-8 208c-1.33301 43.333 -6.5 74.166 -15.5 92.499
s-26.167 27.5 -51.5 27.5c-13.333 0 -32.666 -2.33301 -57.999 -7s-44.666 -9.66699 -57.999 -15c0 -2 -3 -100.333 -9 -295l78 -9c0 -29.333 -7.66699 -58.333 -23 -87h-249l-9 55c39.333 15.333 69.333 25.333 90 30l-13 323c-27.333 2.66699 -53.666 7.66699 -78.999 15
l5 72c11.333 3.33301 35.666 7.33301 72.999 12s65.666 7 84.999 7c2.66699 -2 7.66699 -8.16699 15 -18.5s12.333 -18.5 15 -24.5c22.667 11.333 50.167 22.333 82.5 33s52.166 16 59.499 16c70.667 0 122.334 -18.333 155.001 -55c25.333 13.333 56 25.833 92 37.5
s58.333 17.5 67 17.5c63.333 0 110.666 -15 141.999 -45s47 -80 47 -150c0 -38.667 -3 -115 -9 -229l78 -9c0 -29.333 -7.66699 -58.333 -23 -87h-248l-9 55c31.333 12.667 60 22.667 86 30c-0.666992 15.333 -1.33398 37 -2.00098 65l-4 139
c-1.33301 46.667 -6.83301 79 -16.5 97z" />
    <glyph glyph-name="n" unicode="n" horiz-adv-x="616" 
d="M509 471c30 -32.667 45 -78.333 45 -137s-3.33301 -138 -10 -238l79 -9c0 -27.333 -7.66699 -56.333 -23 -87h-249l-9 55c31.333 12.667 60.333 22.667 87 30c-2 76.667 -4 141.167 -6 193.5s-7 87.833 -15 106.5s-25.667 28 -53 28c-41.333 0 -78.333 -7.33301 -111 -22
c-0.666992 -28.667 -2.5 -75.5 -5.5 -140.5s-4.83301 -116.5 -5.5 -154.5l78 -9c0 -27.333 -7.66699 -56.333 -23 -87h-249l-9 55c33.333 12.667 63.333 22.667 90 30c-0.666992 40 -2.83398 95.333 -6.50098 166s-5.83398 123 -6.50098 157
c-24.667 2.66699 -51 7.66699 -79 15l5 72c46.667 12.667 99.334 19 158.001 19c7.33301 -4.66699 17.333 -19 30 -43c22.667 11.333 50.334 22.333 83.001 33s52.667 16 60 16c66.667 0 115 -16.333 145 -49z" />
    <glyph glyph-name="o" unicode="o" horiz-adv-x="538" 
d="M295 440c-24 0 -51.334 -5.99805 -82.001 -17.998c-8.66699 -13.333 -16.834 -36.833 -24.501 -70.5s-11.5 -67.5 -11.5 -101.5c0 -62.667 9.33301 -107.167 28 -133.5s48.834 -39.5 90.501 -39.5s71.834 13.167 90.501 39.5s28 71.666 28 135.999
s-9.5 111.666 -28.5 141.999s-49.167 45.5 -90.5 45.5zM483.499 448.502c47.667 -47.667 71.5 -114 71.5 -199s-23.667 -149.833 -71 -194.5s-110.333 -67 -189 -67s-141.5 22.333 -188.5 67s-70.5 109.5 -70.5 194.5s23.667 151.333 71 199s110 71.5 188 71.5
s140.833 -23.833 188.5 -71.5z" />
    <glyph glyph-name="p" unicode="p" horiz-adv-x="541" 
d="M350 -12c-38.667 0 -79.334 12.668 -122.001 38.001c-1.33301 -70.667 -2 -124 -2 -160l78 -9c0 -29.333 -7.66699 -58.333 -23 -87h-249l-9 55c42.667 16 72.667 26 90 30l-19 555c-31.333 2.66699 -57.666 7.66699 -78.999 15c0 24.667 2.33301 48.667 7 72
c28 6 90 11.333 186 16c5.33301 -8.66699 11.333 -23.334 18 -44.001c69.333 34 115 51 137 51c66 0 115 -23.167 147 -69.5s48 -108.5 48 -186.5s-17.833 -143.5 -53.5 -196.5s-87.167 -79.5 -154.5 -79.5zM234 381.001l-4.00098 -252.999
c15.333 -14 33.5 -26.167 54.5 -36.5s38.833 -15.5 53.5 -15.5c58.667 0 88 56.333 88 169c0 42 -4.16699 75.667 -12.5 101s-18 43.166 -29 53.499s-23.833 15.5 -38.5 15.5c-29.333 0 -66.666 -11.333 -111.999 -34z" />
    <glyph glyph-name="q" unicode="q" horiz-adv-x="575" 
d="M87 61c-34 49.333 -51 112.832 -51 190.499s17 141.834 51 192.501s84.667 76 152 76c42 0 87 -14.333 135 -43l24 36c54 0 113 -12.667 177 -38c2.66699 -12 4 -30 4 -54c-42 -10.667 -68.667 -16.667 -80 -18l-9 -537l78 -9c0 -29.333 -7.66699 -58.333 -23 -87h-249
l-9 55c38 14.667 68 24.667 90 30l-6 171c-42 -20.667 -85.667 -33.667 -131 -39c-68 0 -119 24.667 -153 74zM188 134.999c13.333 -34 35.667 -51.001 67 -51.001s68.333 11.333 111 34c-2 90.667 -4.33301 177.334 -7 260.001c-38 29.333 -72.667 44 -104 44
c-58 0 -87 -55.667 -87 -167c0 -46 6.66699 -86 20 -120z" />
    <glyph glyph-name="r" unicode="r" horiz-adv-x="449" 
d="M326 412c-1.33301 3.33301 -8 5.00195 -20 5.00195s-32.667 -9 -62 -27c-2.66699 -130.667 -4.33398 -228.667 -5.00098 -294l78 -10c0 -28.667 -7.66699 -57.334 -23 -86.001h-249l-9 55c41.333 15.333 71.333 25.333 90 30l-11 324
c-34.667 2.66699 -63.667 7.66699 -87 15l7 72c18 8 83 13.333 195 16c6 -6 9 -17.667 9 -35c58.667 28.667 95.834 43 111.501 43s35 -3.83301 58 -11.5s40.5 -15.834 52.5 -24.501v-17c0 -54.667 -6.66699 -105.334 -20 -152.001c-11.333 -4.66699 -26.333 -7 -45 -7
s-36 1 -52 3c-2 8.66699 -8 42.334 -18 101.001z" />
    <glyph glyph-name="s" unicode="s" horiz-adv-x="452" 
d="M399 477l1.00391 -30.9961c0 -52 -4 -86 -12 -102c-22 -8 -52.667 -12 -92 -12l-32 101c-8.66699 3.33301 -20.667 5 -36 5s-27.833 -4.66699 -37.5 -14s-14.5 -20.333 -14.5 -33s5 -24.167 15 -34.5s20.333 -18.5 31 -24.5s26.167 -13.833 46.5 -23.5
s35.666 -17.167 45.999 -22.5s23.666 -13.333 39.999 -24s28.833 -20.667 37.5 -30c21.333 -25.333 32 -53 32 -83c0 -51.333 -19.5 -91 -58.5 -119s-86.833 -42 -143.5 -42c-30 0 -62.833 5.33301 -98.5 16s-65.834 25 -90.501 43c0 48 4.66699 92.667 14 134
c26.667 3.33301 48.334 5 65.001 5s28 -0.333008 34 -1l12 -97c16.667 -6 36.667 -9 60 -9s41.833 4.66699 55.5 14s20.5 22.5 20.5 39.5s-7.66699 31.167 -23 42.5s-36.333 23.166 -63 35.499s-47.334 22.666 -62.001 30.999s-30.334 19.166 -47.001 32.499
c-34 26 -51 58 -51 96c0 47.333 16.5 84.166 49.5 110.499s77.5 39.5 133.5 39.5s112 -14.333 168 -43z" />
    <glyph glyph-name="t" unicode="t" horiz-adv-x="348" 
d="M152 -12l-21.9971 1.00098c-4 7.33301 -9.33301 21 -16 41s-10.334 35 -11.001 45c-3.33301 66 -7 180.333 -11 343h-70l3 57c15.333 10.667 33.666 20.334 54.999 29.001l81 128c26 -2.66699 46.333 -9.66699 61 -21l-1 -95c42 -1.33301 81 -5.33301 117 -12
c0 -26.667 -8.33301 -55.334 -25 -86.001h-93c-2.66699 -140 -4.33398 -245 -5.00098 -315c26.667 -2.66699 63 -10.334 109 -23.001l-1 -52c-11.333 -7.33301 -36.5 -15.833 -75.5 -25.5s-70.833 -14.5 -95.5 -14.5z" />
    <glyph glyph-name="u" unicode="u" 
d="M509 512c12.667 0 20.668 -0.332031 24.001 -0.999023c0 -34 -5.66699 -63.333 -17 -88c-4 -146.667 -7.33301 -255 -10 -325c30 -2.66699 56.333 -7.66699 79 -15l-2 -70c-40.667 -12.667 -75.667 -19 -105 -19s-49.333 0.666992 -60 2c-8 16 -14.667 32 -20 48
c-55.333 -37.333 -95.333 -56 -120 -56c-119.333 0 -179 60.333 -179 181c0 32.667 2.66699 113 8 241c-35.333 0 -67.666 4.66699 -96.999 14c0 16.667 2.33301 40.667 7 72c39.333 10.667 106.666 16 201.999 16c12.667 0 20.667 -0.333008 24 -1
c0 -32.667 -5.66699 -63 -17 -91v-202c0 -42.667 4.5 -73.834 13.5 -93.501s28.333 -29.5 58 -29.5s60.167 10.333 91.5 31l-6 284c-29.333 1.33301 -57 6 -83 14c0 16.667 2.33301 40.667 7 72c39.333 10.667 106.666 16 201.999 16z" />
    <glyph glyph-name="v" unicode="v" horiz-adv-x="590" 
d="M304 150l37 149.001l53 128c-22.667 4 -50.667 12.667 -84 26l9 55h249c15.333 -30.667 23 -59.667 23 -87c-26 -4 -52 -6.66699 -78 -8c-13.333 -44.667 -39.5 -113.667 -78.5 -207s-65.167 -162 -78.5 -206h-129l-159 412l-78 9c0 27.333 7.66699 56.333 23 87h249
l9 -55c-27.333 -12.667 -50.333 -21.334 -69 -26.001l48 -127l35 -150h19z" />
    <glyph glyph-name="w" unicode="w" horiz-adv-x="860" 
d="M367 508c8.66699 0.666992 25.5 1.00098 50.5 1.00098s47.5 -0.666992 67.5 -2l64 -206l31 -141h17l29 139l38 128c-22.667 4 -50.667 12.667 -84 26l9 55h249c15.333 -30.667 23 -59.667 23 -87c-26 -4 -52 -6.66699 -78 -8l-70.5 -229.5l-57.5 -183.5h-136l-93 308h-4
l-96 -308h-129l-129 412l-78 9c0 27.333 7.66699 56.333 23 87h249l9 -55c-27.333 -12.667 -50.333 -21.334 -69 -26.001l33 -127l25 -140h16l29 141z" />
    <glyph glyph-name="x" unicode="x" horiz-adv-x="548" 
d="M551 508c4 -7.33301 6.00195 -14.166 6.00195 -20.499s-0.666992 -12.166 -2 -17.499s-3.33301 -11.333 -6 -18s-4.33398 -11.334 -5.00098 -14.001c-28.667 -9.33301 -59.334 -15.333 -92.001 -18l-108 -155l135 -170c24 0 50.667 -2.66699 80 -8
c0 -28.667 -5.66699 -57.667 -17 -87h-270l-8 52c24.667 13.333 51 24 79 32l-70 91l-123 -175h-154c-4.66699 16 -7 35 -7 57c38 18 75.333 30.667 112 38l113 154l-128 161l-94 13c0 27.333 5.66699 55.666 17 84.999h270l6 -55c-24.667 -12.667 -47.667 -21 -69 -25
l68 -88l124 168h143z" />
    <glyph glyph-name="y" unicode="y" horiz-adv-x="590" 
d="M169 -242c-19.333 0 -40.667 3.33301 -64 10s-48.333 16.667 -75 30c4 76.667 7.66699 122.334 11 137.001c25.333 6.66699 46.166 10 62.499 10s26.833 -0.333008 31.5 -1l32 -100l9 1c15.333 2 31 20.333 47 55s27.667 68 35 100h-42l-148 412l-78 9
c0 27.333 7.66699 56.333 23 87h249l9 -55c-27.333 -12.667 -50.333 -21.334 -69 -26.001l76 -237l9 -43h22l85 280c-22.667 4 -50.667 12.667 -84 26l9 55h249c15.333 -30.667 23 -59.667 23 -87c-26 -4 -52 -6.66699 -78 -8l-140.5 -408
c-33.667 -96 -64.167 -161.167 -91.5 -195.5s-64.666 -51.5 -111.999 -51.5z" />
    <glyph glyph-name="z" unicode="z" horiz-adv-x="485" 
d="M442 183c10.667 -38 15.998 -71 15.998 -99s-1.33301 -56 -4 -84h-388c-13.333 19.333 -20.666 43 -21.999 71l254 351h-103l-22 -99c-5.33301 -0.666992 -17.166 -1 -35.499 -1s-38.166 2.33301 -59.499 7c-9.33301 48 -14 85.333 -14 112s1 49 3 67h367
c9.33301 -18.667 14 -43 14 -73l-243 -345h121l22 99c41.333 0 72.666 -2 93.999 -6z" />
    <glyph glyph-name="braceleft" unicode="{" horiz-adv-x="405" 
d="M260 174l-3.99805 -165.001v-37c68 -36.667 108.333 -60 121 -70c-6 -18 -16 -40.667 -30 -68c-29.333 3.33301 -94 21.333 -194 54c-6.66699 4.66699 -14 15.834 -22 33.501s-12 29.834 -12 36.501l32 202c-19.333 20 -55 53.333 -107 100l-6 5
c-4.66699 10 -7 23.667 -7 41l6 34c11.333 9.33301 31.166 27 59.499 53s46.5 43.333 54.5 52c-14.667 89.333 -25.334 156.666 -32.001 201.999c0 6 4 17.833 12 35.5s15.333 29.167 22 34.5c100 32.667 164.667 50.667 194 54c13.333 -26 23.333 -49 30 -69
c-16 -12 -56.333 -35 -121 -69v-38l4 -165c0 -44 -44 -84.667 -132 -122v-11c88 -37.333 132 -78.333 132 -123z" />
    <glyph glyph-name="bar" unicode="|" horiz-adv-x="298" 
d="M228 -199c-16 -6.66699 -34.334 -9.99902 -55.001 -9.99902s-41 2.66699 -61 8c-1.33301 165.333 -3.5 346.166 -6.5 542.499s-4.83301 329.5 -5.5 399.5c22.667 5.33301 46.334 8 71.001 8s47 -2 67 -6z" />
    <glyph glyph-name="braceright" unicode="}" horiz-adv-x="395" 
d="M146 430l4.00195 165.002v38c-64.667 34 -105 57 -121 69c6.66699 20 16.667 43 30 69c29.333 -3.33301 94 -21.333 194 -54c6.66699 -5.33301 14 -16.833 22 -34.5s12 -29.5 12 -35.5c-6.66699 -45.333 -17.334 -112.666 -32.001 -201.999
c8 -8.66699 26.167 -26 54.5 -52s48.166 -43.667 59.499 -53c4 -12.667 6 -23.334 6 -32.001c0 -18 -2.33301 -32.333 -7 -43l-6 -5c-52 -46.667 -87.667 -80 -107 -100l32 -202c0 -6.66699 -4 -18.834 -12 -36.501s-15.333 -28.834 -22 -33.501
c-100 -32.667 -164.667 -50.667 -194 -54c-14 27.333 -24 50 -30 68c12.667 10 53 33.333 121 70v37l-4 165c0 44.667 44 85.667 132 123v11c-88 37.333 -132 78 -132 122z" />
    <glyph glyph-name="asciitilde" unicode="~" horiz-adv-x="565" 
d="M81 215c-14 18 -24.3311 34.666 -30.998 49.999c9.33301 13.333 32.666 32.333 69.999 57s64.666 37 81.999 37l192 -66c12 6 48.333 18.667 109 38c12 -16 22 -32.667 30 -50c-8 -13.333 -30.833 -32.5 -68.5 -57.5s-64.834 -37.5 -81.501 -37.5l-193 66
c-43.333 -19.333 -79.666 -31.666 -108.999 -36.999z" />
    <glyph glyph-name="exclamdown" unicode="&#xa1;" horiz-adv-x="291" 
d="M228 -234c-23.333 -5.33301 -46.5 -8 -69.5 -8s-44.167 1 -63.5 3l24 533c22 3.33301 40.833 5 56.5 5s28.5 -1 38.5 -3zM100 359c-6 30 -9 52.833 -9 68.5s1.33301 33.167 4 52.5c26.667 6 49.167 9 67.5 9s40.5 -1 66.5 -3c6 -30 9 -52.833 9 -68.5
s-1.33301 -33.167 -4 -52.5c-26.667 -6 -49.167 -9 -67.5 -9s-40.5 1 -66.5 3z" />
    <glyph glyph-name="cent" unicode="&#xa2;" horiz-adv-x="521" 
d="M344 -8l-1.00098 -107c-14 -5.33301 -28 -8 -42 -8s-30 2.33301 -48 7l-1 108c-134.667 19.333 -202 112.333 -202 279s65.333 261 196 283l-1 117c18 6 36.333 9 55 9s36 -2.66699 52 -8c-1.33301 -52 -2 -90.667 -2 -116c48 -6.66699 90.667 -21 128 -43
c-2 -68 -9.66699 -120 -23 -156c-20.667 -4 -40.667 -6 -60 -6l-37 1l-24 115c-4 0.666992 -10 1 -18 1c-40 0 -72 -14 -96 -42s-36 -74.5 -36 -139.5s9.16699 -115.667 27.5 -152s53.5 -54.5 105.5 -54.5c7.33301 0 24.833 4.33301 52.5 13s57.834 20.667 90.501 36
c22.667 -28 35 -53.333 37 -76c-52 -32 -103 -52.333 -153 -61z" />
    <glyph glyph-name="sterling" unicode="&#xa3;" horiz-adv-x="526" 
d="M389 178l32.001 2.00098c16 0 35 -3.66699 57 -11c8.66699 -46.667 13 -85.5 13 -116.5s-0.333008 -48.5 -1 -52.5h-408c-14 22.667 -21 49 -21 79c3.33301 7.33301 17 23 41 47c45.333 45.333 68 79.333 68 102s-10.333 54.667 -31 96l-70 3
c-2.66699 12.667 -5.33398 35.667 -8.00098 69c10.667 5.33301 24 9 40 11c-14 35.333 -21 68.333 -21 99c0 61.333 15.833 111 47.5 149s78.5 57 140.5 57s123 -25.333 183 -76c0 -48 -6.66699 -92 -20 -132c-20 -4.66699 -38.667 -7 -56 -7s-30 0.666992 -38 2l-22 120
c-10 2 -24.5 3 -43.5 3s-34.5 -10.833 -46.5 -32.5s-18 -46.667 -18 -75s9 -61.166 27 -98.499l184 -6c2.66699 -16.667 4 -30.334 4 -41.001l-5 -35c-53.333 -9.33301 -98.333 -14 -135 -14c12 -26 18 -49.667 18 -71c0 -52.667 -22.333 -105.667 -67 -159h142
c3.33301 37.333 8 66.666 14 87.999z" />
    <glyph glyph-name="currency" unicode="&#xa4;" horiz-adv-x="597" 
d="M192 533c31.333 19.333 70.5 28.999 117.5 28.999s86.167 -9 117.5 -27c38.667 40 67.334 66 86.001 78c37.333 -21.333 62 -42.666 74 -63.999c0 -7.33301 -4.66699 -19.666 -14 -36.999c-20 -10 -46.333 -26.333 -79 -49c14.667 -31.333 22 -68 22 -110
s-10.333 -81 -31 -117l5 -4c36.667 -25.333 64.667 -42.666 84 -51.999c9.33301 -16.667 14 -29.334 14 -38.001c-10 -17.333 -34.667 -38.333 -74 -63c-24 14.667 -57 44.667 -99 90c-29.333 -16.667 -63.833 -25 -103.5 -25s-73.834 6.66699 -102.501 20l-3 -2
c-40.667 -42 -71 -70 -91 -84c-37.333 22 -62.333 43.333 -75 64c0 8 4.66699 20.667 14 38c14 6 40 22 78 48c-22 34.667 -33 74 -33 118s8.66699 82.333 26 115c-34.667 24 -61.667 41 -81 51c-9.33301 16 -14 28.333 -14 37c10 18 35 39.333 75 64
c17.333 -10.667 46.333 -37.334 87 -80.001zM310 233.999c50 0 75 38.667 75 116c0 40.667 -5.16699 71.167 -15.5 91.5s-28 30.5 -53 30.5s-45.5 -3.33301 -61.5 -10c-16.667 -32.667 -25 -67.667 -25 -105c0 -82 26.667 -123 80 -123z" />
    <glyph glyph-name="yen" unicode="&#xa5;" horiz-adv-x="687" 
d="M537 325c1.33301 -8.66699 2.00195 -20.6699 2.00195 -36.0029s-0.333008 -26.666 -1 -33.999c-45.333 -8 -83 -12 -113 -12h-13v-28c80 -1.33301 124 -2 132 -2c1.33301 -18.667 2 -31.667 2 -39s-0.666992 -18.333 -2 -33c-45.333 -8 -82.666 -12 -111.999 -12h-21v-33
l69 -9c0 -27.333 -7.66699 -56.333 -23 -87h-243l-9 55c46 18 73.667 27.667 83 29v46l-120 3c-2.66699 18.667 -4 32.834 -4 42.501s1 19.834 3 30.501c34 8 74 12 120 12l-1 26l-125 3c-2 12.667 -3 25.167 -3 37.5s1.33301 23.833 4 34.5
c29.333 5.33301 57.666 9 84.999 11l-149 282l-88 27l8 61h260c12 -22 18 -48.333 18 -79c-15.333 -2.66699 -35 -5.66699 -59 -9l116 -241l114 242c-22.667 4.66699 -50.334 13.334 -83.001 26.001l7 61h261c2 -6 4.16699 -11.333 6.5 -16
s4.16602 -9.33398 5.49902 -14.001s2.33301 -9 3 -13c2 -12 3 -24 3 -36c-26 -5.33301 -52 -9 -78 -11l-142 -283z" />
    <glyph glyph-name="brokenbar" unicode="&#xa6;" horiz-adv-x="298" 
d="M238 747l-4 -365l-129 -1c-0.666992 82 -2.33398 203.333 -5.00098 364c22.667 5.33301 46.334 8 71.001 8s47 -2 67 -6zM112 -212c-1.33301 150.667 -2.66797 263.667 -4.00098 339l124 1c-1.33301 -76 -2.66602 -188.667 -3.99902 -338
c-16 -6.66699 -34.333 -10 -55 -10s-41 2.66699 -61 8z" />
    <glyph glyph-name="section" unicode="&#xa7;" horiz-adv-x="510" 
d="M444 692l1.00293 -31.0029c0 -52 -4 -86 -12 -102c-22 -8 -52.667 -12 -92 -12l-32 101c-8.66699 3.33301 -20.667 5 -36 5s-27.833 -4.66699 -37.5 -14s-14.5 -20.333 -14.5 -33s5 -24.167 15 -34.5s20.333 -18.5 31 -24.5s26.167 -13.833 46.5 -23.5
s35.666 -17.167 45.999 -22.5s23.666 -13.333 39.999 -24s28.5 -21 36.5 -31c22 -24.667 33 -51.167 33 -79.5s-3.66699 -53.666 -11 -75.999s-18 -42.166 -32 -59.499c-22 -27.333 -47.333 -51.666 -76 -72.999c37.333 -18.667 66.5 -38.667 87.5 -60
s31.5 -48.333 31.5 -81c0 -51.333 -19.5 -91 -58.5 -119s-86.833 -42 -143.5 -42c-30 0 -62.833 5.33301 -98.5 16s-65.834 25 -90.501 43c0 48 4.66699 92 14 132c33.333 4 66.333 6 99 6l12 -97c16.667 -6 36.667 -9 60 -9s41.833 4.66699 55.5 14s20.5 22.5 20.5 39.5
s-7.66699 31.167 -23 42.5s-42.5 26 -81.5 44s-76.167 43.667 -111.5 77s-53 71.666 -53 114.999c0 52.667 16.667 93.667 50 123c26.667 24 52.667 40.667 78 50c-70 38.667 -105 82.334 -105 131.001s16.5 86.167 49.5 112.5s77.5 39.5 133.5 39.5s112 -14.333 168 -43z
M191.003 302.997c0 -28 7.5 -50.167 22.5 -66.5s35.833 -30.833 62.5 -43.5c23.333 16 41.333 32.833 54 50.5s19 39.5 19 65.5c0 44 -26 79.667 -78 107c-53.333 -31.333 -80 -69 -80 -113z" />
    <glyph glyph-name="dieresis" unicode="&#xa8;" horiz-adv-x="833" 
d="M325 683c5.33301 -22.667 8 -40.834 8 -54.501s-1 -29.5 -3 -47.5c-20 -5.33301 -38.5 -8 -55.5 -8s-36.5 1 -58.5 3c-5.33301 22.667 -8 40.834 -8 54.501s1 29.5 3 47.5c20 5.33301 38.5 8 55.5 8s36.5 -1 58.5 -3zM488 683c5.33301 -22.667 8 -40.834 8 -54.501
s-1 -29.5 -3 -47.5c-20 -5.33301 -38.5 -8 -55.5 -8s-36.5 1 -58.5 3c-5.33301 22.667 -8 40.834 -8 54.501s1 29.5 3 47.5c20 5.33301 38.5 8 55.5 8s36.5 -1 58.5 -3z" />
    <glyph glyph-name="copyright" unicode="&#xa9;" horiz-adv-x="833" 
d="M50 195c-20.667 50 -30.999 107.832 -30.999 173.499s10.333 123.334 31 173.001s49.334 89.167 86.001 118.5c72 59.333 163 89 273 89c108.667 0 199.667 -30.667 273 -92c36 -30 64.5 -69.667 85.5 -119s31.5 -106.333 31.5 -171s-10.333 -122 -31 -172
s-49.334 -89.667 -86.001 -119s-77.834 -51.333 -123.501 -66s-95.5 -22 -149.5 -22s-104 7.33301 -150 22s-87.167 36.667 -123.5 66s-64.833 69 -85.5 119zM214.501 580.999c-43 -50.667 -64.5 -120.5 -64.5 -209.5s22 -160.833 66 -215.5s107.5 -82 190.5 -82
s147.5 27.667 193.5 83s69 127.333 69 216s-21.667 158.167 -65 208.5s-108.333 75.5 -195 75.5s-151.5 -25.333 -194.5 -76zM468.001 516.999l-46.999 4.00391c-16.667 0 -41 -4.33301 -73 -13c-16.667 -30.667 -25 -73.334 -25 -128.001c0 -107.333 29.667 -161 89 -161
c24 0 44 3.33301 60 10l13 78l29 1l47 -6c6.66699 -50.667 10 -91 10 -121c-10 -8 -31.167 -17 -63.5 -27s-63.5 -15 -93.5 -15c-62 0 -112 18.667 -150 56s-57 94.666 -57 171.999s17.667 135.666 53 174.999s87.666 59 156.999 59c26.667 0 52.667 -4.33301 78 -13
s44.333 -17.334 57 -26.001l18 -13v-12c0 -22 -3.33301 -52.333 -10 -91c-18 -4 -33.333 -6 -46 -6l-28 1z" />
    <glyph glyph-name="ordfeminine" unicode="&#xaa;" horiz-adv-x="374" 
d="M325 426l56 -11.001l-2 -44c-9.33301 -5.33301 -27 -11.166 -53 -17.499s-51.333 -9.5 -76 -9.5c-4.66699 9.33301 -9 20 -13 32c-41.333 -24 -71 -36 -89 -36c-38 0 -68.5 10 -91.5 30s-34.5 47.667 -34.5 83c0 79.333 49.333 120.666 148 123.999l51 2l-1 19
c-0.666992 23.333 -4.16699 38.5 -10.5 45.5s-19.166 10.5 -38.499 10.5l-16 -4l-17 -56l-29 -1l-48 6c-9.33301 15.333 -14 43 -14 83c9.33301 4.66699 31.666 10.834 66.999 18.501s58.333 11.5 69 11.5c54.667 0 92.5 -9 113.5 -27s31.5 -52.667 31.5 -104
s-1 -103 -3 -155zM162 418.999c6 0 27.667 11.332 65 33.999l-3 58l-46 -5c-33.333 -3.33301 -50 -18.666 -50 -45.999s11.333 -41 34 -41z" />
    <glyph glyph-name="guillemotleft" unicode="&#xab;" horiz-adv-x="479" 
d="M58 245c-2 4 -3 9.83398 -3 17.501s0.333008 13.167 1 16.5l47 66c17.333 24 45.333 56 84 96c21.333 -5.33301 48 -22 80 -50c-54.667 -81.333 -84.334 -124.333 -89.001 -129c7.33301 -8.66699 13.333 -16.334 18 -23.001l70 -106c-25.333 -30 -52.333 -46.333 -81 -49
c-35.333 35.333 -62.666 67 -81.999 95zM225 245.001c-2 4 -3 9.83398 -3 17.501s0.333008 13.167 1 16.5l47 66c17.333 24 45.333 56 84 96c21.333 -5.33301 48 -22 80 -50c-54.667 -81.333 -84.334 -124.333 -89.001 -129c7.33301 -8.66699 13.333 -16.334 18 -23.001
l70 -106c-25.333 -30 -52.333 -46.333 -81 -49c-35.333 35.333 -62.666 67 -81.999 95z" />
    <glyph glyph-name="logicalnot" unicode="&#xac;" horiz-adv-x="518" 
d="M40 314c51.333 10 88.333 15.001 111 15.001s46.167 -0.333008 70.5 -1s51.166 -1.33398 80.499 -2.00098c81.333 -2 142.333 -3.66699 183 -5v-219c-15.333 -2.66699 -31.666 -4 -48.999 -4s-35 1 -53 3l-12 120h-33l-297 6c-4 15.333 -6 29.333 -6 42z" />
    <glyph glyph-name="uni00AD" unicode="&#xad;" horiz-adv-x="386" 
d="M339 299c2.66699 -12.667 4 -26.5 4 -41.5s-1 -30.5 -3 -46.5c-46 -4.66699 -83.667 -7 -113 -7l-145 6c-3.33301 12 -5 25.833 -5 41.5s1 31.5 3 47.5c46 4.66699 83.667 7 113 7z" />
    <glyph glyph-name="registered" unicode="&#xae;" horiz-adv-x="530" 
d="M364 569c84 0 126.002 -24.665 126.002 -73.998c0 -32.667 -16 -56.667 -48 -72l59 -59l35 -4c0 -16.667 -4.66699 -33.334 -14 -50.001h-78l-83 81v-28l26 -12c-0.666992 -14.667 -4.33398 -28.334 -11.001 -41.001h-122l-9 31c13.333 8.66699 24.666 14 33.999 16v162
l-31 13l3 37h113zM363.002 470.002h11c18 0 27 7.66699 27 23c0 10.667 -9 16 -27 16h-11v-39zM217.502 609.002c-45 -36 -67.5 -90.167 -67.5 -162.5s22.833 -128 68.5 -167s101 -58.5 166 -58.5s120.167 19.5 165.5 58.5s68 94.167 68 165.5s-22.667 125.5 -68 162.5
s-100.833 55.5 -166.5 55.5s-121 -18 -166 -54zM83.502 309.002c-18.333 41.333 -27.499 85.5 -27.499 132.5s6 87.5 18 121.5s28.333 62.5 49 85.5s45 42.167 73 57.5c53.333 30 112.666 45 177.999 45s122.166 -10.5 170.499 -31.5s88.333 -54.833 120 -101.5
s47.5 -99.5 47.5 -158.5s-9 -109.167 -27 -150.5s-42.5 -74.5 -73.5 -99.5s-65.833 -44 -104.5 -57s-79.667 -19.5 -123 -19.5s-84.166 6.5 -122.499 19.5s-73 32 -104 57s-55.667 58.167 -74 99.5z" />
    <glyph glyph-name="macron" unicode="&#xaf;" horiz-adv-x="297" 
d="M45 697c46 4.66699 86.5 7.00098 121.5 7.00098s77.167 -2.33301 126.5 -7c1.33301 -6 2 -19 2 -39l-3 -48c-46 -4 -83.667 -6 -113 -6l-133 5c-3.33301 15.333 -5 28.666 -5 39.999z" />
    <glyph glyph-name="degree" unicode="&#xb0;" horiz-adv-x="442" 
d="M130 715c23.333 20.667 54.832 31.001 94.499 31.001s70.834 -10.5 93.501 -31.5s34 -52.333 34 -94s-11.333 -74.334 -34 -98.001s-53.667 -35.5 -93 -35.5c-86.667 0 -130 46 -130 138c0 39.333 11.667 69.333 35 90zM223.999 556.001c20.667 0 31 19.333 31 58
s-10.333 58 -31 58c-24 0 -36 -19.333 -36 -58s12 -58 36 -58z" />
    <glyph glyph-name="plusminus" unicode="&#xb1;" horiz-adv-x="566" 
d="M184 412l45.001 -0.998047l5 198c21.333 4.66699 37.666 7 48.999 7l51 -6c9.33301 -48.667 14 -87.334 14 -116.001s-0.333008 -57 -1 -85l183 -4c3.33301 -16.667 5 -31.334 5 -44.001l-4 -41c-52 -10 -96.333 -15 -133 -15h-53l-2 -203
c-20.667 -5.33301 -38 -8 -52 -8l-50 5c-9.33301 49.333 -14 88.833 -14 118.5s0.333008 59.5 1 89.5l-177 5c-4 20 -6 34 -6 42l5 43c52 10 96.667 15 134 15zM50.001 13.002c52 9.33301 93.333 14 124 14s95.5 -1.16699 194.5 -3.5s153.833 -3.83301 164.5 -4.5
c2 -6.66699 3 -20.667 3 -42l-5 -42c-52 -10 -96.333 -15 -133 -15l-347 7c-4 20 -6 34 -6 42z" />
    <glyph glyph-name="twosuperior" unicode="&#xb2;" horiz-adv-x="347" 
d="M348 293l-0.999023 -30.002h-306c-10 18 -15 33.833 -15 47.5s0.333008 22.834 1 27.501c84 94 136.333 156.167 157 186.5s31 57.833 31 82.5c0 36.667 -17 55 -51 55h-14l-16 -84c-6.66699 -1.33301 -17.667 -2 -33 -2l-44 6c-10 29.333 -15 66.333 -15 111
c37.333 37.333 84.166 56 140.499 56s97.333 -11.667 123 -35s38.5 -53.166 38.5 -89.499s-9.16699 -69.333 -27.5 -99s-65.833 -88.5 -142.5 -176.5l79 1c1.33301 21.333 5 42 11 62l26 1c10.667 0 26.667 -3 48 -9c6.66699 -39.333 10 -76.333 10 -111z" />
    <glyph glyph-name="threesuperior" unicode="&#xb3;" horiz-adv-x="346" 
d="M35 682l1.00195 10.001c11.333 14 29.833 27 55.5 39s48.167 18 67.5 18c49.333 0 90 -11.5 122 -34.5s48 -50.5 48 -82.5c0 -42 -18.333 -75.667 -55 -101c49.333 -18.667 74 -54.667 74 -108c0 -34 -11.333 -64.167 -34 -90.5s-48.834 -45.5 -78.501 -57.5
s-61.334 -18 -95.001 -18s-72.167 8 -115.5 24c1.33301 32 7.33301 58.333 18 79c44 -9.33301 72 -14 84 -14s21.5 0.5 28.5 1.5s16.667 3.33301 29 7s22.5 10.334 30.5 20.001s12 22.5 12 38.5s-6.5 28.667 -19.5 38s-30.5 14 -52.5 14h-12l-40 -4
c-6.66699 13.333 -10 25.666 -10 36.999s1 26 3 44l48 6c18 2 33.5 8.5 46.5 19.5s19.5 24.5 19.5 40.5c0 36.667 -19 55 -57 55l-9 -1l-17 -86l-27 -1l-50 7c-10 31.333 -15 64.666 -15 99.999z" />
    <glyph glyph-name="acute" unicode="&#xb4;" horiz-adv-x="280" 
d="M64 616l157.999 131c39.333 -31.333 60.333 -60.333 63 -87c-17.333 -16.667 -39.166 -34 -65.499 -52s-57.5 -36.333 -93.5 -55c-21.333 16 -42 37 -62 63z" />
    <glyph glyph-name="mu" unicode="&#xb5;" horiz-adv-x="600" 
d="M232 422l-1.00293 -203.999c0 -42.667 4.5 -73.834 13.5 -93.501s28.333 -29.5 58 -29.5s60.167 10.333 91.5 31c0 61.333 -2 156 -6 284c-38.667 4 -66.334 8.66699 -83.001 14l7 72c10.667 2.66699 38.334 6 83.001 10s78.334 6 101.001 6s36.667 -0.333008 42 -1
c0 -32.667 -5.66699 -62 -17 -88c-2.66699 -70 -6 -178.333 -10 -325c30 -2.66699 56.333 -7.66699 79 -15l-2 -70c-38.667 -12.667 -80 -19 -124 -19c-11.333 0 -25 0.666992 -41 2c-8 16 -14.667 32 -20 48c-55.333 -37.333 -93.666 -56 -114.999 -56
s-42.333 2.33301 -63 7l-3 -187c-12.667 -19.333 -27 -32 -43 -38h-147l-6 54c27.333 13.333 54.333 24 81 32c-6 367.333 -9 552 -9 554c-30 2.66699 -57.667 7.33398 -83 14.001c0 24.667 2.33301 48.667 7 72c14 3.33301 41.833 6.83301 83.5 10.5s74.334 5.5 98.001 5.5
s38.5 -0.333008 44.5 -1c0 -28.667 -5.33301 -58.334 -16 -89.001z" />
    <glyph glyph-name="mu" unicode="&#x3bc;" horiz-adv-x="600" 
d="M232 422l-1.00293 -203.999c0 -42.667 4.5 -73.834 13.5 -93.501s28.333 -29.5 58 -29.5s60.167 10.333 91.5 31c0 61.333 -2 156 -6 284c-38.667 4 -66.334 8.66699 -83.001 14l7 72c10.667 2.66699 38.334 6 83.001 10s78.334 6 101.001 6s36.667 -0.333008 42 -1
c0 -32.667 -5.66699 -62 -17 -88c-2.66699 -70 -6 -178.333 -10 -325c30 -2.66699 56.333 -7.66699 79 -15l-2 -70c-38.667 -12.667 -80 -19 -124 -19c-11.333 0 -25 0.666992 -41 2c-8 16 -14.667 32 -20 48c-55.333 -37.333 -93.666 -56 -114.999 -56
s-42.333 2.33301 -63 7l-3 -187c-12.667 -19.333 -27 -32 -43 -38h-147l-6 54c27.333 13.333 54.333 24 81 32c-6 367.333 -9 552 -9 554c-30 2.66699 -57.667 7.33398 -83 14.001c0 24.667 2.33301 48.667 7 72c14 3.33301 41.833 6.83301 83.5 10.5s74.334 5.5 98.001 5.5
s38.5 -0.333008 44.5 -1c0 -28.667 -5.33301 -58.334 -16 -89.001z" />
    <glyph glyph-name="paragraph" unicode="&#xb6;" horiz-adv-x="657" 
d="M65 489c0 77.333 22.6689 133.832 68.002 169.499s105.333 53.5 180 53.5c41.333 0 73 -1 95 -3c-3.33301 -36 -8 -64.333 -14 -85l-7 -729h-198l-5 61c29.333 10.667 57.666 19 84.999 25c-0.666992 64.667 -2.33398 160 -5.00098 286
c-68 4.66699 -118.167 27.334 -150.5 68.001s-48.5 92 -48.5 154zM430.002 708.999c16.667 2 46.667 3 90 3s88.333 -6.33301 135 -19c3.33301 -25.333 5 -49.666 5 -72.999c-24.667 -7.33301 -52 -12.333 -82 -15c-0.666992 -46 -1.66699 -111.667 -3 -197l-6 -427l85 -25
l-5 -61h-198l-7 729c-5.33301 19.333 -10 47.666 -14 84.999z" />
    <glyph glyph-name="periodcentered" unicode="&#xb7;" horiz-adv-x="208" 
d="M188 351c6 -24 8.99902 -44.5 8.99902 -61.5s-1 -36.167 -3 -57.5c-23.333 -6 -45.166 -9 -65.499 -9s-42.833 1 -67.5 3c-6.66699 26.667 -10 46.167 -10 58.5s1.33301 32.5 4 60.5c22 6 43.167 9 63.5 9s43.5 -1 69.5 -3z" />
    <glyph glyph-name="cedilla" unicode="&#xb8;" horiz-adv-x="330" 
d="M229 -101c0 4 -19.332 13.668 -57.999 29.001c0 25.333 12 65.333 36 120c11.333 2 20.666 3 27.999 3s20 -3 38 -9c-2 -32.667 -5.33301 -55.334 -10 -68.001c47.333 -25.333 71 -48 71 -68s-11.667 -42.167 -35 -66.5s-50 -41.833 -80 -52.5l-26 31
c1.33301 3.33301 5.33301 11.333 12 24c16 29.333 24 48.333 24 57z" />
    <glyph glyph-name="onesuperior" unicode="&#xb9;" horiz-adv-x="343" 
d="M242 705l-5.00098 -347.001l56 -10c0 -29.333 -6 -57.666 -18 -84.999h-231l-17 57c18 7.33301 36.5 14 55.5 20s32.167 10.333 39.5 13c-1.33301 121.333 -2.66602 213 -3.99902 275c-34.667 -10.667 -61 -16 -79 -16c-12.667 25.333 -19 53 -19 83l165 53
c8 -1.33301 19 -7 33 -17s22 -18.667 24 -26z" />
    <glyph glyph-name="ordmasculine" unicode="&#xba;" horiz-adv-x="431" 
d="M169.5 428c9.66699 -21.333 28 -32.001 55 -32.001s45.167 10.333 54.5 31s14 50.167 14 88.5s-4.66699 68.333 -14 90s-27 32.5 -53 32.5c-18 0 -34.333 -3 -49 -9c-14.667 -30 -22 -65.667 -22 -107s4.83301 -72.666 14.5 -93.999zM92.5 659.999
c29 34.667 73.833 51.999 134.5 51.999s104.5 -15.833 131.5 -47.5s40.5 -78.667 40.5 -141s-14.333 -111.333 -43 -147s-72 -53.5 -130 -53.5c-118 0 -177 63.667 -177 191c0 62.667 14.5 111.334 43.5 146.001z" />
    <glyph glyph-name="guillemotright" unicode="&#xbb;" horiz-adv-x="479" 
d="M448 279c0.666992 -3.33301 1 -8.83301 1 -16.5s-1 -13.5 -3 -17.5l-45 -66c-16 -23.333 -43.333 -55 -82 -95c-12.667 1.33301 -25.834 6 -39.501 14s-27.5 19.667 -41.5 35c32.667 53.333 62 96.333 88 129c-5.33301 5.33301 -35 48.333 -89 129
c28.667 27.333 55.334 44 80.001 50c36.667 -36.667 64.667 -68.667 84 -96zM281 279c0.666992 -3.33301 1 -8.83301 1 -16.5s-1 -13.5 -3 -17.5l-45 -66c-16 -23.333 -43.333 -55 -82 -95c-12.667 1.33301 -25.834 6 -39.501 14s-27.5 19.667 -41.5 35
c32.667 53.333 62 96.333 88 129c-5.33301 5.33301 -35 48.333 -89 129c28.667 27.333 55.334 44 80.001 50c36.667 -36.667 64.667 -68.667 84 -96z" />
    <glyph glyph-name="onequarter" unicode="&#xbc;" horiz-adv-x="857" 
d="M746 -3l-43 -3.00098c-17.333 0 -35 2.33301 -53 7l-6 106h-192c-8.66699 20.667 -13 44.334 -13 71.001l182 298h138c0 -1.33301 -2 -95 -6 -281l70 -1c0 -38.667 -4.33301 -67.667 -13 -87h-59zM642 195.999l-1.00098 123l-76 -124c30.667 0 56.334 0.333008 77.001 1z
M241.999 704.999l-5.00098 -347.001l56 -10c0 -29.333 -6 -57.666 -18 -84.999h-231l-17 57c18 7.33301 36.5 14 55.5 20s32.167 10.333 39.5 13c-1.33301 121.333 -2.66602 213 -3.99902 275c-34.667 -10.667 -61 -16 -79 -16c-12.667 25.333 -19 53 -19 83l165 53
c8 -1.33301 19 -7 33 -17s22 -18.667 24 -26zM723.998 676.998l-505 -696c-25.333 12 -49 28.333 -71 49l479 710c40 -16.667 72.333 -37.667 97 -63z" />
    <glyph glyph-name="onehalf" unicode="&#xbd;" horiz-adv-x="847" 
d="M242 705l-5.00098 -347.001l56 -10c0 -29.333 -6 -57.666 -18 -84.999h-231l-17 57c18 7.33301 36.5 14 55.5 20s32.167 10.333 39.5 13c-1.33301 121.333 -2.66602 213 -3.99902 275c-34.667 -10.667 -61 -16 -79 -16c-12.667 25.333 -19 53 -19 83l165 53
c8 -1.33301 19 -7 33 -17s22 -18.667 24 -26zM894.999 29.999l-0.999023 -30.001h-306c-10 18.667 -15 34.667 -15 48s0.333008 22.333 1 27c84 94 136.333 156.167 157 186.5s31 57.833 31 82.5c0 36.667 -17 55 -51 55h-14l-16 -84c-6.66699 -1.33301 -17.667 -2 -33 -2
l-44 6c-10 29.333 -15 66.333 -15 111c37.333 37.333 84.166 56 140.499 56s97.333 -11.667 123 -35s38.5 -53.166 38.5 -89.499s-9.16699 -69.333 -27.5 -99s-65.833 -88.5 -142.5 -176.5l79 1c1.33301 21.333 5 42 11 62l26 1c15.333 0 31.333 -3 48 -9
c6.66699 -39.333 10 -76.333 10 -111zM724 676.998l-505 -696c-25.333 12 -49 28.333 -71 49l479 710c40 -16.667 72.333 -37.667 97 -63z" />
    <glyph glyph-name="threequarters" unicode="&#xbe;" horiz-adv-x="837" 
d="M746 -3l-43 -3.00098c-17.333 0 -35 2.33301 -53 7l-6 106h-192c-8.66699 20.667 -13 44.334 -13 71.001l182 298h138c0 -1.33301 -2 -95 -6 -281l70 -1c0 -38.667 -4.33301 -67.667 -13 -87h-59zM642 195.999l-1.00098 123l-76 -124c30.667 0 56.334 0.333008 77.001 1z
M34.999 681.999l1.00195 10.001c11.333 14 29.833 27 55.5 39s48.167 18 67.5 18c49.333 0 90 -11.5 122 -34.5s48 -50.5 48 -82.5c0 -42 -18.333 -75.667 -55 -101c49.333 -18.667 74 -54.667 74 -108c0 -34 -11.333 -64.167 -34 -90.5s-48.834 -45.5 -78.501 -57.5
s-61.334 -18 -95.001 -18s-72.167 8 -115.5 24c1.33301 32 7.33301 58.333 18 79c44 -9.33301 72 -14 84 -14s21.5 0.5 28.5 1.5s16.667 3.33301 29 7s22.5 10.334 30.5 20.001s12 22.5 12 38.5s-6.5 28.667 -19.5 38s-30.5 14 -52.5 14h-12l-40 -4
c-6.66699 13.333 -10 25.666 -10 36.999s1 26 3 44l48 6c18 2 33.5 8.5 46.5 19.5s19.5 24.5 19.5 40.5c0 36.667 -19 55 -57 55l-9 -1l-17 -86l-27 -1l-50 7c-10 31.333 -15 64.666 -15 99.999zM724.001 677l-505 -696c-25.333 12 -49 28.333 -71 49l479 710
c40 -16.667 72.333 -37.667 97 -63z" />
    <glyph glyph-name="questiondown" unicode="&#xbf;" horiz-adv-x="487" 
d="M196 -18c-7.33301 -20 -10.998 -40.4971 -10.998 -61.4971s6.66699 -38.667 20 -53s31.666 -21.5 54.999 -21.5c12 0 24.667 2 38 6l23 105l92 -4c12 -34 19.333 -76.333 22 -127c-58.667 -45.333 -122.334 -68 -191.001 -68c-122.667 0 -184 59 -184 177
c0 21.333 4.5 43.666 13.5 66.999s18.167 42.166 27.5 56.499s23 34.166 41 59.499c38.667 54.667 61.667 98 69 130c2 9.33301 3 36 3 80c24 4.66699 50.667 7 80 7c12 -28 21.333 -60 28 -96c-6.66699 -42 -30.667 -94.333 -72 -157
c-13.333 -20.667 -23.833 -37.5 -31.5 -50.5s-15.167 -29.5 -22.5 -49.5zM186.002 502.003c21.333 5.33301 42.667 8.00098 64 8.00098s41 -1.33301 59 -4c5.33301 -22.667 8 -46 8 -70s-1 -42 -3 -54c-21.333 -4 -43 -6 -65 -6s-41.333 1 -58 3
c-5.33301 21.333 -8 43.166 -8 65.499s1 41.5 3 57.5z" />
    <glyph glyph-name="Agrave" unicode="&#xc0;" horiz-adv-x="739" 
d="M519 689l1.00195 -10.0029c0 -27.333 -4.33301 -50.666 -13 -69.999c-8.66699 -6.66699 -22.334 -12 -41.001 -16l167 -494l95 -12c0 -27.333 -7.66699 -56.333 -23 -87h-243l-9 55l55 21l-40 113h-225c-20 -59.333 -30.667 -90.333 -32 -93l69 -9
c0 -14 -2.66699 -30.167 -8 -48.5s-10.333 -31.166 -15 -38.499h-243l-9 55c30 12.667 57 22 81 28l168 514c-44.667 6.66699 -78.334 15.334 -101.001 26.001c0 19.333 3 36.333 9 51c14 4.66699 46.833 10.167 98.5 16.5s101 9.5 148 9.5s83.833 -3.66699 110.5 -11z
M390.002 413.997l-29 132h-10l-32 -138l-47 -125h167zM280.002 938.997l158.002 -130.999c-18.667 -24 -39.334 -45 -62.001 -63c-67.333 33.333 -120.333 69 -159 107c1.33301 12 7.16602 25.167 17.499 39.5s25.5 30.166 45.5 47.499z" />
    <glyph glyph-name="Aacute" unicode="&#xc1;" horiz-adv-x="739" 
d="M519 689l1.00195 -10.0029c0 -27.333 -4.33301 -50.666 -13 -69.999c-8.66699 -6.66699 -22.334 -12 -41.001 -16l167 -494l95 -12c0 -27.333 -7.66699 -56.333 -23 -87h-243l-9 55l55 21l-40 113h-225c-20 -59.333 -30.667 -90.333 -32 -93l69 -9
c0 -14 -2.66699 -30.167 -8 -48.5s-10.333 -31.166 -15 -38.499h-243l-9 55c30 12.667 57 22 81 28l168 514c-44.667 6.66699 -78.334 15.334 -101.001 26.001c0 19.333 3 36.333 9 51c14 4.66699 46.833 10.167 98.5 16.5s101 9.5 148 9.5s83.833 -3.66699 110.5 -11z
M390.002 413.997l-29 132h-10l-32 -138l-47 -125h167zM291.002 807.997l157.999 131c39.333 -31.333 60.333 -60.333 63 -87c-17.333 -16.667 -39.166 -34 -65.499 -52s-57.5 -36.333 -93.5 -55c-21.333 16 -42 37 -62 63z" />
    <glyph glyph-name="Acircumflex" unicode="&#xc2;" horiz-adv-x="739" 
d="M519 689l1.00195 -10.0029c0 -27.333 -4.33301 -50.666 -13 -69.999c-8.66699 -6.66699 -22.334 -12 -41.001 -16l167 -494l95 -12c0 -27.333 -7.66699 -56.333 -23 -87h-243l-9 55l55 21l-40 113h-225c-20 -59.333 -30.667 -90.333 -32 -93l69 -9
c0 -14 -2.66699 -30.167 -8 -48.5s-10.333 -31.166 -15 -38.499h-243l-9 55c30 12.667 57 22 81 28l168 514c-44.667 6.66699 -78.334 15.334 -101.001 26.001c0 19.333 3 36.333 9 51c14 4.66699 46.833 10.167 98.5 16.5s101 9.5 148 9.5s83.833 -3.66699 110.5 -11z
M390.002 413.997l-29 132h-10l-32 -138l-47 -125h167zM473.002 746.997c-48.667 24.667 -83.667 44.999 -105 60.999c-12 -9.33301 -47 -29.666 -105 -60.999c-25.333 24 -43 44 -53 60l158 131l159 -131c-9.33301 -14.667 -27.333 -34.667 -54 -60z" />
    <glyph glyph-name="Atilde" unicode="&#xc3;" horiz-adv-x="739" 
d="M519 689l1.00195 -10.0029c0 -27.333 -4.33301 -50.666 -13 -69.999c-8.66699 -6.66699 -22.334 -12 -41.001 -16l167 -494l95 -12c0 -27.333 -7.66699 -56.333 -23 -87h-243l-9 55l55 21l-40 113h-225c-20 -59.333 -30.667 -90.333 -32 -93l69 -9
c0 -14 -2.66699 -30.167 -8 -48.5s-10.333 -31.166 -15 -38.499h-243l-9 55c30 12.667 57 22 81 28l168 514c-44.667 6.66699 -78.334 15.334 -101.001 26.001c0 19.333 3 36.333 9 51c14 4.66699 46.833 10.167 98.5 16.5s101 9.5 148 9.5s83.833 -3.66699 110.5 -11z
M390.002 413.997l-29 132h-10l-32 -138l-47 -125h167zM204.002 756.997c-12.667 16.667 -23.334 34.333 -32.001 53c12 16.667 42.333 43.334 91 80.001c12.667 9.33301 25 14 37 14s33 -6.66699 63 -20s50.667 -21.333 62 -24c58.667 28 88.334 42.333 89.001 43
c16 -22.667 27 -40.334 33 -53.001c-18.667 -27.333 -49.667 -55 -93 -83c-13.333 -9.33301 -25 -14 -35 -14c-15.333 4.66699 -36 12.5 -62 23.5s-45.667 18.167 -59 21.5c-10 -6 -25.667 -13.167 -47 -21.5s-37 -14.833 -47 -19.5z" />
    <glyph glyph-name="Adieresis" unicode="&#xc4;" horiz-adv-x="739" 
d="M519 689l1.00195 -10.0029c0 -27.333 -4.33301 -50.666 -13 -69.999c-8.66699 -6.66699 -22.334 -12 -41.001 -16l167 -494l95 -12c0 -27.333 -7.66699 -56.333 -23 -87h-243l-9 55l55 21l-40 113h-225c-20 -59.333 -30.667 -90.333 -32 -93l69 -9
c0 -14 -2.66699 -30.167 -8 -48.5s-10.333 -31.166 -15 -38.499h-243l-9 55c30 12.667 57 22 81 28l168 514c-44.667 6.66699 -78.334 15.334 -101.001 26.001c0 19.333 3 36.333 9 51c14 4.66699 46.833 10.167 98.5 16.5s101 9.5 148 9.5s83.833 -3.66699 110.5 -11z
M390.002 413.997l-29 132h-10l-32 -138l-47 -125h167zM337.002 874.997c5.33301 -22.667 8 -40.834 8 -54.501s-1 -29.5 -3 -47.5c-20 -5.33301 -38.5 -8 -55.5 -8s-36.5 1 -58.5 3c-5.33301 22.667 -8 40.834 -8 54.501s1 29.5 3 47.5c20 5.33301 38.5 8 55.5 8
s36.5 -1 58.5 -3zM500.002 874.997c5.33301 -22.667 8 -40.834 8 -54.501s-1 -29.5 -3 -47.5c-20 -5.33301 -38.5 -8 -55.5 -8s-36.5 1 -58.5 3c-5.33301 22.667 -8 40.834 -8 54.501s1 29.5 3 47.5c20 5.33301 38.5 8 55.5 8s36.5 -1 58.5 -3z" />
    <glyph glyph-name="Aring" unicode="&#xc5;" horiz-adv-x="739" 
d="M519 689l1.00195 -10.0029c0 -27.333 -4.33301 -50.666 -13 -69.999c-8.66699 -6.66699 -22.334 -12 -41.001 -16l167 -494l95 -12c0 -27.333 -7.66699 -56.333 -23 -87h-243l-9 55l55 21l-40 113h-225c-20 -59.333 -30.667 -90.333 -32 -93l69 -9
c0 -14 -2.66699 -30.167 -8 -48.5s-10.333 -31.166 -15 -38.499h-243l-9 55c30 12.667 57 22 81 28l168 514c-44.667 6.66699 -78.334 15.334 -101.001 26.001c0 19.333 3 36.333 9 51c14 4.66699 46.833 10.167 98.5 16.5s101 9.5 148 9.5s83.833 -3.66699 110.5 -11z
M390.002 413.997l-29 132h-10l-32 -138l-47 -125h167zM331.002 898.497c-7.33301 -8.33301 -11 -19.666 -11 -33.999s3.66699 -25.5 11 -33.5s17.166 -12 29.499 -12s22.166 4 29.499 12s11 19.167 11 33.5s-3.66699 25.666 -11 33.999s-17.166 12.5 -29.499 12.5
s-22.166 -4.16699 -29.499 -12.5zM452.502 949.997c25.667 -21.333 38.501 -50.167 38.501 -86.5s-12.667 -64.333 -38 -84s-56 -29.5 -92 -29.5s-67 10 -93 30s-39 48 -39 84s13.167 64.667 39.5 86s57.166 32 92.499 32s65.833 -10.667 91.5 -32z" />
    <glyph glyph-name="AE" unicode="&#xc6;" horiz-adv-x="959" 
d="M459 84c0 43.333 -0.666992 78.335 -2 105.002h-184l-51 -94l67 -9c0 -26.667 -7.66699 -55.334 -23 -86.001h-253l-8 56c26.667 12.667 55.667 22 87 28l276 530l-72 22l8 64h562c2.66699 -18.667 4 -36.667 4 -54c0 -32.667 -5 -75.334 -15 -128.001
c-20.667 -4.66699 -40.334 -7 -59.001 -7l-35 1l-23 89h-149c-1.33301 -44.667 -2.66602 -110.334 -3.99902 -197.001h102l10 69c34 0 67 -8.33301 99 -25v-204h-66c-16 24.667 -25.667 46 -29 64h-117l-3 -212h171l23 88l35 1l59 -7c10 -43.333 15 -79.166 15 -107.499
s-1.33301 -51.833 -4 -70.5h-496l3 56c22 14 46 23.333 72 28zM455 283.002c0 30.667 -0.666992 74.5 -2 131.5s-2 94.5 -2 112.5l-64 -124l-66 -120h134z" />
    <glyph glyph-name="Ccedilla" unicode="&#xc7;" horiz-adv-x="591" 
d="M477 474l-31.001 1.00098l-29 120c-38.667 6.66699 -67.667 10 -87 10c-38 0 -80.667 -7.66699 -128 -23c-14 -26 -25 -59.333 -33 -100s-12 -79 -12 -115c0 -184 53 -276 159 -276c45.333 0 81.333 6.66699 108 20l21 122c42 0 74 -2.33301 96 -7
c10.667 -72.667 16 -131.667 16 -177c-14 -10.667 -42.333 -22.834 -85 -36.501s-86 -21.834 -130 -24.501l-3 -14c47.333 -25.333 71 -48 71 -68s-11.667 -42.167 -35 -66.5s-50 -41.833 -80 -52.5l-26 31c1.33301 3.33301 5.33301 11.333 12 24c16 29.333 24 48.333 24 57
c0 4 -19.333 13.667 -58 29c0 16 4.33301 37 13 63c-160 22 -240 143.333 -240 364c0 116.667 24.167 205.334 72.5 266.001s125.5 91 231.5 91c52.667 0 99.334 -7.66699 140.001 -23c36 -13.333 66.667 -28 92 -44c0 -45.333 -5 -100 -15 -164
c-18.667 -4.66699 -40 -7 -64 -7z" />
    <glyph glyph-name="Egrave" unicode="&#xc8;" 
d="M249 600c0 -76 -0.665039 -141.334 -1.99805 -196.001h102l10 69c34 0 67 -8.33301 99 -25v-200l-66 -3c-16 24 -25.333 45 -28 63h-118c-1.33301 -93.333 -2 -163.666 -2 -210.999h171l22 87c41.333 0 72.666 -2 93.999 -6c10 -38 15 -72.5 15 -103.5
s-1 -55.833 -3 -74.5h-496l-9 55c43.333 16.667 71.333 26.334 84 29.001c-0.666992 39.333 -1.33398 94.666 -2.00098 165.999c-2.66699 160 -5 281 -7 363l-83 26l8 61h491c2 -18 3 -40.5 3 -67.5s-5 -64.5 -15 -112.5c-20.667 -6.66699 -52 -10 -94 -10l-23 90h-151z
M218.002 938.999l158.002 -130.999c-18.667 -24 -39.334 -45 -62.001 -63c-67.333 33.333 -120.333 69 -159 107c1.33301 12 7.16602 25.167 17.499 39.5s25.5 30.166 45.5 47.499z" />
    <glyph glyph-name="Eacute" unicode="&#xc9;" 
d="M249 600c0 -76 -0.665039 -141.334 -1.99805 -196.001h102l10 69c34 0 67 -8.33301 99 -25v-200l-66 -3c-16 24 -25.333 45 -28 63h-118c-1.33301 -93.333 -2 -163.666 -2 -210.999h171l22 87c41.333 0 72.666 -2 93.999 -6c10 -38 15 -72.5 15 -103.5
s-1 -55.833 -3 -74.5h-496l-9 55c43.333 16.667 71.333 26.334 84 29.001c-0.666992 39.333 -1.33398 94.666 -2.00098 165.999c-2.66699 160 -5 281 -7 363l-83 26l8 61h491c2 -18 3 -40.5 3 -67.5s-5 -64.5 -15 -112.5c-20.667 -6.66699 -52 -10 -94 -10l-23 90h-151z
M203.002 807.999l157.999 131c39.333 -31.333 60.333 -60.333 63 -87c-17.333 -16.667 -39.166 -34 -65.499 -52s-57.5 -36.333 -93.5 -55c-21.333 16 -42 37 -62 63z" />
    <glyph glyph-name="Ecircumflex" unicode="&#xca;" 
d="M249 600c0 -76 -0.665039 -141.334 -1.99805 -196.001h102l10 69c34 0 67 -8.33301 99 -25v-200l-66 -3c-16 24 -25.333 45 -28 63h-118c-1.33301 -93.333 -2 -163.666 -2 -210.999h171l22 87c41.333 0 72.666 -2 93.999 -6c10 -38 15 -72.5 15 -103.5
s-1 -55.833 -3 -74.5h-496l-9 55c43.333 16.667 71.333 26.334 84 29.001c-0.666992 39.333 -1.33398 94.666 -2.00098 165.999c-2.66699 160 -5 281 -7 363l-83 26l8 61h491c2 -18 3 -40.5 3 -67.5s-5 -64.5 -15 -112.5c-20.667 -6.66699 -52 -10 -94 -10l-23 90h-151z
M420.002 746.999c-48.667 24.667 -83.667 44.999 -105 60.999c-12 -9.33301 -47 -29.666 -105 -60.999c-25.333 24 -43 44 -53 60l158 131l159 -131c-9.33301 -14.667 -27.333 -34.667 -54 -60z" />
    <glyph glyph-name="Edieresis" unicode="&#xcb;" 
d="M249 600c0 -76 -0.665039 -141.334 -1.99805 -196.001h102l10 69c34 0 67 -8.33301 99 -25v-200l-66 -3c-16 24 -25.333 45 -28 63h-118c-1.33301 -93.333 -2 -163.666 -2 -210.999h171l22 87c41.333 0 72.666 -2 93.999 -6c10 -38 15 -72.5 15 -103.5
s-1 -55.833 -3 -74.5h-496l-9 55c43.333 16.667 71.333 26.334 84 29.001c-0.666992 39.333 -1.33398 94.666 -2.00098 165.999c-2.66699 160 -5 281 -7 363l-83 26l8 61h491c2 -18 3 -40.5 3 -67.5s-5 -64.5 -15 -112.5c-20.667 -6.66699 -52 -10 -94 -10l-23 90h-151z
M301.002 874.999c5.33301 -22.667 8 -40.834 8 -54.501s-1 -29.5 -3 -47.5c-20 -5.33301 -38.5 -8 -55.5 -8s-36.5 1 -58.5 3c-5.33301 22.667 -8 40.834 -8 54.501s1 29.5 3 47.5c20 5.33301 38.5 8 55.5 8s36.5 -1 58.5 -3zM464.002 874.999
c5.33301 -22.667 8 -40.834 8 -54.501s-1 -29.5 -3 -47.5c-20 -5.33301 -38.5 -8 -55.5 -8s-36.5 1 -58.5 3c-5.33301 22.667 -8 40.834 -8 54.501s1 29.5 3 47.5c20 5.33301 38.5 8 55.5 8s36.5 -1 58.5 -3z" />
    <glyph glyph-name="Igrave" unicode="&#xcc;" horiz-adv-x="380" 
d="M323 700c-0.666992 0 -0.5 -0.666992 0.5 -2s2.33301 -4.16602 4 -8.49902s3.5 -9.5 5.5 -15.5c4 -10.667 6.66699 -28.334 8 -53.001c-34 -5.33301 -56.333 -8.66602 -67 -9.99902l-5 -515l69 -9c0 -27.333 -7.66699 -56.333 -23 -87h-243l-9 55
c37.333 15.333 65.333 25 84 29c-0.666992 39.333 -1.66699 94.666 -3 165.999c-2 160 -4 281 -6 363l-83 26l8 61h260zM113 939l158.002 -130.999c-18.667 -24 -39.334 -45 -62.001 -63c-67.333 33.333 -120.333 69 -159 107c1.33301 12 7.16602 25.167 17.499 39.5
s25.5 30.166 45.5 47.499z" />
    <glyph glyph-name="Iacute" unicode="&#xcd;" horiz-adv-x="380" 
d="M323 700c-0.666992 0 -0.5 -0.666992 0.5 -2s2.33301 -4.16602 4 -8.49902s3.5 -9.5 5.5 -15.5c4 -10.667 6.66699 -28.334 8 -53.001c-34 -5.33301 -56.333 -8.66602 -67 -9.99902l-5 -515l69 -9c0 -27.333 -7.66699 -56.333 -23 -87h-243l-9 55
c37.333 15.333 65.333 25 84 29c-0.666992 39.333 -1.66699 94.666 -3 165.999c-2 160 -4 281 -6 363l-83 26l8 61h260zM156 808l157.999 131c39.333 -31.333 60.333 -60.333 63 -87c-17.333 -16.667 -39.166 -34 -65.499 -52s-57.5 -36.333 -93.5 -55
c-21.333 16 -42 37 -62 63z" />
    <glyph glyph-name="Icircumflex" unicode="&#xce;" horiz-adv-x="380" 
d="M323 700c-0.666992 0 -0.5 -0.666992 0.5 -2s2.33301 -4.16602 4 -8.49902s3.5 -9.5 5.5 -15.5c4 -10.667 6.66699 -28.334 8 -53.001c-34 -5.33301 -56.333 -8.66602 -67 -9.99902l-5 -515l69 -9c0 -27.333 -7.66699 -56.333 -23 -87h-243l-9 55
c37.333 15.333 65.333 25 84 29c-0.666992 39.333 -1.66699 94.666 -3 165.999c-2 160 -4 281 -6 363l-83 26l8 61h260zM312 747c-48.667 24.667 -83.667 44.999 -105 60.999c-12 -9.33301 -47 -29.666 -105 -60.999c-25.333 24 -43 44 -53 60l158 131l159 -131
c-9.33301 -14.667 -27.333 -34.667 -54 -60z" />
    <glyph glyph-name="Idieresis" unicode="&#xcf;" horiz-adv-x="380" 
d="M323 700c-0.666992 0 -0.5 -0.666992 0.5 -2s2.33301 -4.16602 4 -8.49902s3.5 -9.5 5.5 -15.5c4 -10.667 6.66699 -28.334 8 -53.001c-34 -5.33301 -56.333 -8.66602 -67 -9.99902l-5 -515l69 -9c0 -27.333 -7.66699 -56.333 -23 -87h-243l-9 55
c37.333 15.333 65.333 25 84 29c-0.666992 39.333 -1.66699 94.666 -3 165.999c-2 160 -4 281 -6 363l-83 26l8 61h260zM203 875c5.33301 -22.667 8 -40.834 8 -54.501s-1 -29.5 -3 -47.5c-20 -5.33301 -38.5 -8 -55.5 -8s-36.5 1 -58.5 3
c-5.33301 22.667 -8 40.834 -8 54.501s1 29.5 3 47.5c20 5.33301 38.5 8 55.5 8s36.5 -1 58.5 -3zM366 875c5.33301 -22.667 8 -40.834 8 -54.501s-1 -29.5 -3 -47.5c-20 -5.33301 -38.5 -8 -55.5 -8s-36.5 1 -58.5 3c-5.33301 22.667 -8 40.834 -8 54.501s1 29.5 3 47.5
c20 5.33301 38.5 8 55.5 8s36.5 -1 58.5 -3z" />
    <glyph glyph-name="Eth" unicode="&#xd0;" horiz-adv-x="666" 
d="M635 365c0 -146.667 -35.001 -248.669 -105.001 -306.002c-28.667 -22.667 -59.667 -38.167 -93 -46.5s-77 -12.5 -131 -12.5h-259l-9 55c50.667 18.667 78.667 28.334 84 29.001c-1.33301 100 -2.66602 175 -3.99902 225l-79 3c-2 10.667 -3.83301 24.667 -5.5 42
s-2.83398 29 -3.50098 35c31.333 8.66699 60.333 13.334 87 14.001c-1.33301 46.667 -2.66602 116.667 -3.99902 210c-29.333 7.33301 -57 16 -83 26c4 34.667 6.66699 55 8 61h265c65.333 0 117.5 -6.66699 156.5 -20s73.5 -37 103.5 -71c48 -56 72 -137.333 72 -244z
M244.999 305.998l-1.00098 -209h71c76 0 126.5 18.333 151.5 55s37.5 100 37.5 190s-14 155.5 -42 196.5s-74.667 61.5 -140 61.5h-73l-3 -197l118 -4c4.66699 -12 7 -25.167 7 -39.5s-1.66699 -29.833 -5 -46.5c-45.333 -4.66699 -82.666 -7 -111.999 -7h-9z" />
    <glyph glyph-name="Ntilde" unicode="&#xd1;" horiz-adv-x="785" 
d="M710 611l-2.99902 -611.002h-128l-330 538c-2.66699 -195.333 -4.33398 -342.666 -5.00098 -441.999l69 -9c0 -27.333 -7.66699 -56.333 -23 -87h-243l-9 55c37.333 15.333 65.333 25 84 29c0 2 -3 178.333 -9 529l-83 26l8 61h260l291 -522l-15 435l-83 26l8 61h260
c-0.666992 0 -0.5 -0.666992 0.5 -2s2.33301 -4.16602 4 -8.49902s3.5 -9.5 5.5 -15.5c4 -10.667 6.66699 -28.334 8 -53.001c-34 -5.33301 -56.333 -8.66602 -67 -9.99902zM251.001 756.998c-12.667 16.667 -23.334 34.333 -32.001 53c12 16.667 42.333 43.334 91 80.001
c12.667 9.33301 25 14 37 14s33 -6.66699 63 -20s50.667 -21.333 62 -24c58.667 28 88.334 42.333 89.001 43c16 -22.667 27 -40.334 33 -53.001c-18.667 -27.333 -49.667 -55 -93 -83c-13.333 -9.33301 -25 -14 -35 -14c-15.333 4.66699 -36 12.5 -62 23.5
s-45.667 18.167 -59 21.5c-10 -6 -25.667 -13.167 -47 -21.5s-37 -14.833 -47 -19.5z" />
    <glyph glyph-name="Ograve" unicode="&#xd2;" horiz-adv-x="647" 
d="M330 94c110.667 0 166 84.999 166 254.999s-55.333 255 -166 255c-48 0 -90 -7.33301 -126 -22c-30.667 -64 -46 -138.167 -46 -222.5s12.667 -149.666 38 -195.999s70 -69.5 134 -69.5zM330 711.999c111.333 0 189.667 -29.168 235 -87.501s68 -147.5 68 -267.5
c0 -75.333 -9.66699 -139.666 -29 -192.999s-52 -96 -98 -128s-104.667 -48 -176 -48c-108.667 0 -187.5 30.333 -236.5 91s-73.5 149 -73.5 265c0 245.333 103.333 368 310 368zM255.001 938.998l158.002 -130.999c-18.667 -24 -39.334 -45 -62.001 -63
c-67.333 33.333 -120.333 69 -159 107c1.33301 12 7.16602 25.167 17.499 39.5s25.5 30.166 45.5 47.499z" />
    <glyph glyph-name="Oacute" unicode="&#xd3;" horiz-adv-x="647" 
d="M330 94c110.667 0 166 84.999 166 254.999s-55.333 255 -166 255c-48 0 -90 -7.33301 -126 -22c-30.667 -64 -46 -138.167 -46 -222.5s12.667 -149.666 38 -195.999s70 -69.5 134 -69.5zM330 711.999c111.333 0 189.667 -29.168 235 -87.501s68 -147.5 68 -267.5
c0 -75.333 -9.66699 -139.666 -29 -192.999s-52 -96 -98 -128s-104.667 -48 -176 -48c-108.667 0 -187.5 30.333 -236.5 91s-73.5 149 -73.5 265c0 245.333 103.333 368 310 368zM262.001 807.998l157.999 131c39.333 -31.333 60.333 -60.333 63 -87
c-17.333 -16.667 -39.166 -34 -65.499 -52s-57.5 -36.333 -93.5 -55c-21.333 16 -42 37 -62 63z" />
    <glyph glyph-name="Ocircumflex" unicode="&#xd4;" horiz-adv-x="647" 
d="M330 94c110.667 0 166 84.999 166 254.999s-55.333 255 -166 255c-48 0 -90 -7.33301 -126 -22c-30.667 -64 -46 -138.167 -46 -222.5s12.667 -149.666 38 -195.999s70 -69.5 134 -69.5zM330 711.999c111.333 0 189.667 -29.168 235 -87.501s68 -147.5 68 -267.5
c0 -75.333 -9.66699 -139.666 -29 -192.999s-52 -96 -98 -128s-104.667 -48 -176 -48c-108.667 0 -187.5 30.333 -236.5 91s-73.5 149 -73.5 265c0 245.333 103.333 368 310 368zM430.001 746.998c-48.667 24.667 -83.667 44.999 -105 60.999
c-12 -9.33301 -47 -29.666 -105 -60.999c-25.333 24 -43 44 -53 60l158 131l159 -131c-9.33301 -14.667 -27.333 -34.667 -54 -60z" />
    <glyph glyph-name="Otilde" unicode="&#xd5;" horiz-adv-x="647" 
d="M330 94c110.667 0 166 84.999 166 254.999s-55.333 255 -166 255c-48 0 -90 -7.33301 -126 -22c-30.667 -64 -46 -138.167 -46 -222.5s12.667 -149.666 38 -195.999s70 -69.5 134 -69.5zM330 711.999c111.333 0 189.667 -29.168 235 -87.501s68 -147.5 68 -267.5
c0 -75.333 -9.66699 -139.666 -29 -192.999s-52 -96 -98 -128s-104.667 -48 -176 -48c-108.667 0 -187.5 30.333 -236.5 91s-73.5 149 -73.5 265c0 245.333 103.333 368 310 368zM190.001 756.998c-12.667 16.667 -23.334 34.333 -32.001 53
c12 16.667 42.333 43.334 91 80.001c12.667 9.33301 25 14 37 14s33 -6.66699 63 -20s50.667 -21.333 62 -24c58.667 28 88.334 42.333 89.001 43c16 -22.667 27 -40.334 33 -53.001c-18.667 -27.333 -49.667 -55 -93 -83c-13.333 -9.33301 -25 -14 -35 -14
c-15.333 4.66699 -36 12.5 -62 23.5s-45.667 18.167 -59 21.5c-10 -6 -25.667 -13.167 -47 -21.5s-37 -14.833 -47 -19.5z" />
    <glyph glyph-name="Odieresis" unicode="&#xd6;" horiz-adv-x="647" 
d="M330 94c110.667 0 166 84.999 166 254.999s-55.333 255 -166 255c-48 0 -90 -7.33301 -126 -22c-30.667 -64 -46 -138.167 -46 -222.5s12.667 -149.666 38 -195.999s70 -69.5 134 -69.5zM330 711.999c111.333 0 189.667 -29.168 235 -87.501s68 -147.5 68 -267.5
c0 -75.333 -9.66699 -139.666 -29 -192.999s-52 -96 -98 -128s-104.667 -48 -176 -48c-108.667 0 -187.5 30.333 -236.5 91s-73.5 149 -73.5 265c0 245.333 103.333 368 310 368zM300.001 874.998c5.33301 -22.667 8 -40.834 8 -54.501s-1 -29.5 -3 -47.5
c-20 -5.33301 -38.5 -8 -55.5 -8s-36.5 1 -58.5 3c-5.33301 22.667 -8 40.834 -8 54.501s1 29.5 3 47.5c20 5.33301 38.5 8 55.5 8s36.5 -1 58.5 -3zM463.001 874.998c5.33301 -22.667 8 -40.834 8 -54.501s-1 -29.5 -3 -47.5c-20 -5.33301 -38.5 -8 -55.5 -8
s-36.5 1 -58.5 3c-5.33301 22.667 -8 40.834 -8 54.501s1 29.5 3 47.5c20 5.33301 38.5 8 55.5 8s36.5 -1 58.5 -3z" />
    <glyph glyph-name="multiply" unicode="&#xd7;" horiz-adv-x="526" 
d="M416 475c28 -17.333 52 -38.666 72 -63.999c-26 -39.333 -53 -73 -81 -101l-53 -52l137 -147c-14.667 -21.333 -36.667 -43.333 -66 -66c-52 37.333 -102.333 82 -151 134l-142 -138c-25.333 17.333 -48 39.333 -68 66c25.333 39.333 52.333 73 81 101
c2.66699 2 6 5.16699 10 9.5s10 10.333 18 18l24 23.5l-137 147c12 20 34 42 66 66c54.667 -40.667 105 -85.334 151 -134.001z" />
    <glyph glyph-name="Oslash" unicode="&#xd8;" horiz-adv-x="647" 
d="M330 712c28 0 53.666 -2 76.999 -6l33 93c20.667 -2 48.334 -12 83.001 -30l-32 -87c50.667 -24 87 -62.833 109 -116.5s33 -120.667 33 -201s-9.66699 -147.166 -29 -200.499s-52 -96 -98 -128s-104.667 -48 -176 -48c-33.333 0 -64 3 -92 9l-35 -96
c-18.667 2 -32.167 4.66699 -40.5 8s-18.5 9.66602 -30.5 18.999l33 94c-96.667 50 -145 157.333 -145 322c0 245.333 103.333 368 310 368zM329.999 90c113.333 0 170 85.333 170 256c0 97.333 -18.333 168 -55 212l-170 -461c14.667 -4.66699 33 -7 55 -7zM199.999 582
c-30.667 -64 -45.999 -142.832 -45.999 -236.499s17.667 -161.834 53 -204.501l164 462c-14.667 3.33301 -28.334 5 -41.001 5c-50 0 -93.333 -8.66699 -130 -26z" />
    <glyph glyph-name="Ugrave" unicode="&#xd9;" horiz-adv-x="754" 
d="M574 363l-4.00098 249.996l-83 26l8 61h260c-0.666992 0 -0.5 -0.666992 0.5 -2s2.33301 -4.16602 4 -8.49902s3.5 -9.5 5.5 -15.5c4 -10.667 6.66699 -28.334 8 -53.001c-34 -5.33301 -56.333 -8.66602 -67 -9.99902l-2 -254
c-1.33301 -127.333 -24.5 -220.666 -69.5 -279.999s-121.833 -89 -230.5 -89s-184.334 27.667 -227.001 83s-64.667 144.833 -66 268.5s-2.66602 214.834 -3.99902 273.501l-83 26l8 61h260c-0.666992 0 -0.5 -0.666992 0.5 -2s2.33301 -4.16602 4 -8.49902
s3.5 -9.5 5.5 -15.5c4 -10.667 6.66699 -28.334 8 -53.001c-34 -5.33301 -56.333 -8.66602 -67 -9.99902l-3 -254c0 -74 4 -126.5 12 -157.5s18 -52.833 30 -65.5c26 -26.667 67.333 -40 124 -40c54.667 0 96 15.333 124 46c22.667 24.667 36.334 68 41.001 130
c2 24.667 3 55.667 3 93zM434.999 938.996l158.002 -130.999c-18.667 -24 -39.334 -45 -62.001 -63c-67.333 33.333 -120.333 69 -159 107c1.33301 12 7.16602 25.167 17.499 39.5s25.5 30.166 45.5 47.499z" />
    <glyph glyph-name="Uacute" unicode="&#xda;" horiz-adv-x="754" 
d="M574 363l-4.00098 249.996l-83 26l8 61h260c-0.666992 0 -0.5 -0.666992 0.5 -2s2.33301 -4.16602 4 -8.49902s3.5 -9.5 5.5 -15.5c4 -10.667 6.66699 -28.334 8 -53.001c-34 -5.33301 -56.333 -8.66602 -67 -9.99902l-2 -254
c-1.33301 -127.333 -24.5 -220.666 -69.5 -279.999s-121.833 -89 -230.5 -89s-184.334 27.667 -227.001 83s-64.667 144.833 -66 268.5s-2.66602 214.834 -3.99902 273.501l-83 26l8 61h260c-0.666992 0 -0.5 -0.666992 0.5 -2s2.33301 -4.16602 4 -8.49902
s3.5 -9.5 5.5 -15.5c4 -10.667 6.66699 -28.334 8 -53.001c-34 -5.33301 -56.333 -8.66602 -67 -9.99902l-3 -254c0 -74 4 -126.5 12 -157.5s18 -52.833 30 -65.5c26 -26.667 67.333 -40 124 -40c54.667 0 96 15.333 124 46c22.667 24.667 36.334 68 41.001 130
c2 24.667 3 55.667 3 93zM329.999 807.996l157.999 131c39.333 -31.333 60.333 -60.333 63 -87c-17.333 -16.667 -39.166 -34 -65.499 -52s-57.5 -36.333 -93.5 -55c-21.333 16 -42 37 -62 63z" />
    <glyph glyph-name="Ucircumflex" unicode="&#xdb;" horiz-adv-x="754" 
d="M574 363l-4.00098 249.996l-83 26l8 61h260c-0.666992 0 -0.5 -0.666992 0.5 -2s2.33301 -4.16602 4 -8.49902s3.5 -9.5 5.5 -15.5c4 -10.667 6.66699 -28.334 8 -53.001c-34 -5.33301 -56.333 -8.66602 -67 -9.99902l-2 -254
c-1.33301 -127.333 -24.5 -220.666 -69.5 -279.999s-121.833 -89 -230.5 -89s-184.334 27.667 -227.001 83s-64.667 144.833 -66 268.5s-2.66602 214.834 -3.99902 273.501l-83 26l8 61h260c-0.666992 0 -0.5 -0.666992 0.5 -2s2.33301 -4.16602 4 -8.49902
s3.5 -9.5 5.5 -15.5c4 -10.667 6.66699 -28.334 8 -53.001c-34 -5.33301 -56.333 -8.66602 -67 -9.99902l-3 -254c0 -74 4 -126.5 12 -157.5s18 -52.833 30 -65.5c26 -26.667 67.333 -40 124 -40c54.667 0 96 15.333 124 46c22.667 24.667 36.334 68 41.001 130
c2 24.667 3 55.667 3 93zM493.999 746.996c-48.667 24.667 -83.667 44.999 -105 60.999c-12 -9.33301 -47 -29.666 -105 -60.999c-25.333 24 -43 44 -53 60l158 131l159 -131c-9.33301 -14.667 -27.333 -34.667 -54 -60z" />
    <glyph glyph-name="Udieresis" unicode="&#xdc;" horiz-adv-x="754" 
d="M574 363l-4.00098 249.996l-83 26l8 61h260c-0.666992 0 -0.5 -0.666992 0.5 -2s2.33301 -4.16602 4 -8.49902s3.5 -9.5 5.5 -15.5c4 -10.667 6.66699 -28.334 8 -53.001c-34 -5.33301 -56.333 -8.66602 -67 -9.99902l-2 -254
c-1.33301 -127.333 -24.5 -220.666 -69.5 -279.999s-121.833 -89 -230.5 -89s-184.334 27.667 -227.001 83s-64.667 144.833 -66 268.5s-2.66602 214.834 -3.99902 273.501l-83 26l8 61h260c-0.666992 0 -0.5 -0.666992 0.5 -2s2.33301 -4.16602 4 -8.49902
s3.5 -9.5 5.5 -15.5c4 -10.667 6.66699 -28.334 8 -53.001c-34 -5.33301 -56.333 -8.66602 -67 -9.99902l-3 -254c0 -74 4 -126.5 12 -157.5s18 -52.833 30 -65.5c26 -26.667 67.333 -40 124 -40c54.667 0 96 15.333 124 46c22.667 24.667 36.334 68 41.001 130
c2 24.667 3 55.667 3 93zM366.999 874.996c5.33301 -22.667 8 -40.834 8 -54.501s-1 -29.5 -3 -47.5c-20 -5.33301 -38.5 -8 -55.5 -8s-36.5 1 -58.5 3c-5.33301 22.667 -8 40.834 -8 54.501s1 29.5 3 47.5c20 5.33301 38.5 8 55.5 8s36.5 -1 58.5 -3zM529.999 874.996
c5.33301 -22.667 8 -40.834 8 -54.501s-1 -29.5 -3 -47.5c-20 -5.33301 -38.5 -8 -55.5 -8s-36.5 1 -58.5 3c-5.33301 22.667 -8 40.834 -8 54.501s1 29.5 3 47.5c20 5.33301 38.5 8 55.5 8s36.5 -1 58.5 -3z" />
    <glyph glyph-name="Yacute" unicode="&#xdd;" horiz-adv-x="678" 
d="M408 262l-0.999023 -166.001l69 -9c0 -27.333 -7.66699 -56.333 -23 -87h-243l-9 55c46 18 74 27.667 84 29c0 39.333 -0.666992 98.333 -2 177l-189 351l-88 27l8 61h260c12 -22 18 -48.333 18 -79c-15.333 -2.66699 -35 -5.66699 -59 -9l107 -241h9l114 242
c-22.667 4.66699 -50.334 13.334 -83.001 26.001l7 61h261c11.333 -16.667 17.333 -43 18 -79c-26 -5.33301 -52 -9 -78 -11zM281.001 807.999l157.999 131c39.333 -31.333 60.333 -60.333 63 -87c-17.333 -16.667 -39.166 -34 -65.499 -52s-57.5 -36.333 -93.5 -55
c-21.333 16 -42 37 -62 63z" />
    <glyph glyph-name="Thorn" unicode="&#xde;" horiz-adv-x="579" 
d="M233 173l-1.99902 -77.001l78 -9c0 -26 -7.66699 -55 -23 -87h-249l-9 55c37.333 14 67.333 24 90 30l-19 515c-30.667 3.33301 -57 8.33301 -79 15c0 21.333 2.66699 45.333 8 72c42.667 10.667 107.334 16 194.001 16c15.333 0 25.666 -0.333008 30.999 -1
c0 -33.333 -4.33301 -63.666 -13 -90.999l-3 -75c48 21.333 79.667 32 95 32c72.667 0 127.667 -16 165 -48s56 -89 56 -171c0 -61.333 -18.5 -111.833 -55.5 -151.5s-93.5 -59.5 -169.5 -59.5c-22.667 0 -54.334 11.667 -95.001 35zM276.501 250.999
c18.333 -10 33.6689 -15 46.002 -15s23 0.833008 32 2.5s19.5 5.5 31.5 11.5c26 12.667 39 44 39 94c0 52.667 -9 86.667 -27 102c-13.333 12 -30.333 18 -51 18c-36.667 0 -72.334 -8.66699 -107.001 -26c-3.33301 -88 -5 -140.667 -5 -158
c9.33301 -9.33301 23.166 -19 41.499 -29z" />
    <glyph glyph-name="germandbls" unicode="&#xdf;" horiz-adv-x="652" 
d="M345 749c58 0 110.671 -15.3359 158.004 -46.0029s71 -66.667 71 -108c0 -22 -4.83301 -42.333 -14.5 -61s-19.5 -32.5 -29.5 -41.5s-21.667 -18.333 -35 -28s-22.333 -16.5 -27 -20.5s-9.5 -10.333 -14.5 -19s-7.5 -18 -7.5 -28s4 -19.833 12 -29.5s16 -17 24 -22
s21.833 -12.667 41.5 -23s34.667 -18.666 45 -24.999s23.5 -16.166 39.5 -29.499c30 -25.333 45 -59.666 45 -102.999c0 -118 -69.667 -177 -209 -177c-40 0 -79.333 7.33301 -118 22c0 57.333 6 105.333 18 144l88 7l12 -91c19.333 0 37 7.33301 53 22s24 32.834 24 54.501
s-6.16699 37.667 -18.5 48s-29 20.833 -50 31.5l-43.5 22.5c-8 4.33301 -19.333 11.666 -34 21.999s-25.334 20.166 -32.001 29.499c-18 26.667 -27 52.667 -27 78s4 46.333 12 63s16.667 29.667 26 39s20.666 18.833 33.999 28.5s22.666 17.167 27.999 22.5
c16.667 15.333 25 33.333 25 54s-11.333 35.667 -34 45s-45.334 14 -68.001 14c-66.667 0 -101 -50 -103 -150c-4 -263.333 -6 -395.666 -6 -396.999l79 -6c0 -30 -7.66699 -60.333 -23 -91h-253l-8 55c31.333 14.667 60.666 24.334 87.999 29.001
c0 1.33301 -2 112.666 -6 333.999h-71l-2 57c18.667 10 43.334 19 74.001 27c5.33301 73.333 28 132.833 68 178.5s96.333 68.5 169 68.5z" />
    <glyph glyph-name="agrave" unicode="&#xe0;" horiz-adv-x="539" 
d="M219 -12c-56.667 0 -100.498 11.668 -131.498 35.001s-46.5 62.666 -46.5 117.999c0 52.667 18.333 95.667 55 129c21.333 19.333 51 30.666 89 33.999s90.333 5 157 5v16c0 40.667 -6.5 70.5 -19.5 89.5s-35.833 28.5 -68.5 28.5c-16.667 0 -31.667 -3.33301 -45 -10
l-24 -87l-74 2c-16.667 25.333 -25.667 65.666 -27 120.999c13.333 6.66699 44.666 16.834 93.999 30.501s81 20.5 95 20.5c72 0 124.333 -14.833 157 -44.5s49 -76.667 49 -141s-3 -149.166 -9 -254.499c38 -3.33301 67.333 -9 88 -17c0.666992 -8 1 -17.667 1 -29l-1 -22
c-48 -16 -96.333 -24 -145 -24c-12.667 0 -22 0.333008 -28 1c-10 20 -16 44 -18 72h-5c-12.667 -12 -34.834 -27.167 -66.501 -45.5s-57.167 -27.5 -76.5 -27.5zM189.502 86.501c13.667 -10.333 29.168 -15.501 46.501 -15.501s38 7.83301 62 23.5s43.333 29.834 58 42.501
l-5 92c-52.667 -2.66699 -92.334 -7.66699 -119.001 -15c-42 -8.66699 -63 -35 -63 -79c0 -22 6.83301 -38.167 20.5 -48.5zM213.003 747l158.002 -130.999c-18.667 -24 -39.334 -45 -62.001 -63c-67.333 33.333 -120.333 69 -159 107
c1.33301 12 7.16602 25.167 17.499 39.5s25.5 30.166 45.5 47.499z" />
    <glyph glyph-name="aacute" unicode="&#xe1;" horiz-adv-x="539" 
d="M219 -12c-56.667 0 -100.498 11.668 -131.498 35.001s-46.5 62.666 -46.5 117.999c0 52.667 18.333 95.667 55 129c21.333 19.333 51 30.666 89 33.999s90.333 5 157 5v16c0 40.667 -6.5 70.5 -19.5 89.5s-35.833 28.5 -68.5 28.5c-16.667 0 -31.667 -3.33301 -45 -10
l-24 -87l-74 2c-16.667 25.333 -25.667 65.666 -27 120.999c13.333 6.66699 44.666 16.834 93.999 30.501s81 20.5 95 20.5c72 0 124.333 -14.833 157 -44.5s49 -76.667 49 -141s-3 -149.166 -9 -254.499c38 -3.33301 67.333 -9 88 -17c0.666992 -8 1 -17.667 1 -29l-1 -22
c-48 -16 -96.333 -24 -145 -24c-12.667 0 -22 0.333008 -28 1c-10 20 -16 44 -18 72h-5c-12.667 -12 -34.834 -27.167 -66.501 -45.5s-57.167 -27.5 -76.5 -27.5zM189.502 86.501c13.667 -10.333 29.168 -15.501 46.501 -15.501s38 7.83301 62 23.5s43.333 29.834 58 42.501
l-5 92c-52.667 -2.66699 -92.334 -7.66699 -119.001 -15c-42 -8.66699 -63 -35 -63 -79c0 -22 6.83301 -38.167 20.5 -48.5zM205.003 616l157.999 131c39.333 -31.333 60.333 -60.333 63 -87c-17.333 -16.667 -39.166 -34 -65.499 -52s-57.5 -36.333 -93.5 -55
c-21.333 16 -42 37 -62 63z" />
    <glyph glyph-name="acircumflex" unicode="&#xe2;" horiz-adv-x="539" 
d="M219 -12c-56.667 0 -100.498 11.668 -131.498 35.001s-46.5 62.666 -46.5 117.999c0 52.667 18.333 95.667 55 129c21.333 19.333 51 30.666 89 33.999s90.333 5 157 5v16c0 40.667 -6.5 70.5 -19.5 89.5s-35.833 28.5 -68.5 28.5c-16.667 0 -31.667 -3.33301 -45 -10
l-24 -87l-74 2c-16.667 25.333 -25.667 65.666 -27 120.999c13.333 6.66699 44.666 16.834 93.999 30.501s81 20.5 95 20.5c72 0 124.333 -14.833 157 -44.5s49 -76.667 49 -141s-3 -149.166 -9 -254.499c38 -3.33301 67.333 -9 88 -17c0.666992 -8 1 -17.667 1 -29l-1 -22
c-48 -16 -96.333 -24 -145 -24c-12.667 0 -22 0.333008 -28 1c-10 20 -16 44 -18 72h-5c-12.667 -12 -34.834 -27.167 -66.501 -45.5s-57.167 -27.5 -76.5 -27.5zM189.502 86.501c13.667 -10.333 29.168 -15.501 46.501 -15.501s38 7.83301 62 23.5s43.333 29.834 58 42.501
l-5 92c-52.667 -2.66699 -92.334 -7.66699 -119.001 -15c-42 -8.66699 -63 -35 -63 -79c0 -22 6.83301 -38.167 20.5 -48.5zM392.003 555c-48.667 24.667 -83.667 44.999 -105 60.999c-12 -9.33301 -47 -29.666 -105 -60.999c-25.333 24 -43 44 -53 60l158 131l159 -131
c-9.33301 -14.667 -27.333 -34.667 -54 -60z" />
    <glyph glyph-name="atilde" unicode="&#xe3;" horiz-adv-x="539" 
d="M219 -12c-56.667 0 -100.498 11.668 -131.498 35.001s-46.5 62.666 -46.5 117.999c0 52.667 18.333 95.667 55 129c21.333 19.333 51 30.666 89 33.999s90.333 5 157 5v16c0 40.667 -6.5 70.5 -19.5 89.5s-35.833 28.5 -68.5 28.5c-16.667 0 -31.667 -3.33301 -45 -10
l-24 -87l-74 2c-16.667 25.333 -25.667 65.666 -27 120.999c13.333 6.66699 44.666 16.834 93.999 30.501s81 20.5 95 20.5c72 0 124.333 -14.833 157 -44.5s49 -76.667 49 -141s-3 -149.166 -9 -254.499c38 -3.33301 67.333 -9 88 -17c0.666992 -8 1 -17.667 1 -29l-1 -22
c-48 -16 -96.333 -24 -145 -24c-12.667 0 -22 0.333008 -28 1c-10 20 -16 44 -18 72h-5c-12.667 -12 -34.834 -27.167 -66.501 -45.5s-57.167 -27.5 -76.5 -27.5zM189.502 86.501c13.667 -10.333 29.168 -15.501 46.501 -15.501s38 7.83301 62 23.5s43.333 29.834 58 42.501
l-5 92c-52.667 -2.66699 -92.334 -7.66699 -119.001 -15c-42 -8.66699 -63 -35 -63 -79c0 -22 6.83301 -38.167 20.5 -48.5zM136.003 565c-12.667 16.667 -23.334 34.333 -32.001 53c12 16.667 42.333 43.334 91 80.001c12.667 9.33301 25 14 37 14s33 -6.66699 63 -20
s50.667 -21.333 62 -24c58.667 28 88.334 42.333 89.001 43c16 -22.667 27 -40.334 33 -53.001c-18.667 -27.333 -49.667 -55 -93 -83c-13.333 -9.33301 -25 -14 -35 -14c-15.333 4.66699 -36 12.5 -62 23.5s-45.667 18.167 -59 21.5c-10 -6 -25.667 -13.167 -47 -21.5
s-37 -14.833 -47 -19.5z" />
    <glyph glyph-name="adieresis" unicode="&#xe4;" horiz-adv-x="539" 
d="M219 -12c-56.667 0 -100.498 11.668 -131.498 35.001s-46.5 62.666 -46.5 117.999c0 52.667 18.333 95.667 55 129c21.333 19.333 51 30.666 89 33.999s90.333 5 157 5v16c0 40.667 -6.5 70.5 -19.5 89.5s-35.833 28.5 -68.5 28.5c-16.667 0 -31.667 -3.33301 -45 -10
l-24 -87l-74 2c-16.667 25.333 -25.667 65.666 -27 120.999c13.333 6.66699 44.666 16.834 93.999 30.501s81 20.5 95 20.5c72 0 124.333 -14.833 157 -44.5s49 -76.667 49 -141s-3 -149.166 -9 -254.499c38 -3.33301 67.333 -9 88 -17c0.666992 -8 1 -17.667 1 -29l-1 -22
c-48 -16 -96.333 -24 -145 -24c-12.667 0 -22 0.333008 -28 1c-10 20 -16 44 -18 72h-5c-12.667 -12 -34.834 -27.167 -66.501 -45.5s-57.167 -27.5 -76.5 -27.5zM189.502 86.501c13.667 -10.333 29.168 -15.501 46.501 -15.501s38 7.83301 62 23.5s43.333 29.834 58 42.501
l-5 92c-52.667 -2.66699 -92.334 -7.66699 -119.001 -15c-42 -8.66699 -63 -35 -63 -79c0 -22 6.83301 -38.167 20.5 -48.5zM267.003 683c5.33301 -22.667 8 -40.834 8 -54.501s-1 -29.5 -3 -47.5c-20 -5.33301 -38.5 -8 -55.5 -8s-36.5 1 -58.5 3
c-5.33301 22.667 -8 40.834 -8 54.501s1 29.5 3 47.5c20 5.33301 38.5 8 55.5 8s36.5 -1 58.5 -3zM430.003 683c5.33301 -22.667 8 -40.834 8 -54.501s-1 -29.5 -3 -47.5c-20 -5.33301 -38.5 -8 -55.5 -8s-36.5 1 -58.5 3c-5.33301 22.667 -8 40.834 -8 54.501
s1 29.5 3 47.5c20 5.33301 38.5 8 55.5 8s36.5 -1 58.5 -3z" />
    <glyph glyph-name="aring" unicode="&#xe5;" horiz-adv-x="539" 
d="M219 -12c-56.667 0 -100.498 11.668 -131.498 35.001s-46.5 62.666 -46.5 117.999c0 52.667 18.333 95.667 55 129c21.333 19.333 51 30.666 89 33.999s90.333 5 157 5v16c0 40.667 -6.5 70.5 -19.5 89.5s-35.833 28.5 -68.5 28.5c-16.667 0 -31.667 -3.33301 -45 -10
l-24 -87l-74 2c-16.667 25.333 -25.667 65.666 -27 120.999c13.333 6.66699 44.666 16.834 93.999 30.501s81 20.5 95 20.5c72 0 124.333 -14.833 157 -44.5s49 -76.667 49 -141s-3 -149.166 -9 -254.499c38 -3.33301 67.333 -9 88 -17c0.666992 -8 1 -17.667 1 -29l-1 -22
c-48 -16 -96.333 -24 -145 -24c-12.667 0 -22 0.333008 -28 1c-10 20 -16 44 -18 72h-5c-12.667 -12 -34.834 -27.167 -66.501 -45.5s-57.167 -27.5 -76.5 -27.5zM189.502 86.501c13.667 -10.333 29.168 -15.501 46.501 -15.501s38 7.83301 62 23.5s43.333 29.834 58 42.501
l-5 92c-52.667 -2.66699 -92.334 -7.66699 -119.001 -15c-42 -8.66699 -63 -35 -63 -79c0 -22 6.83301 -38.167 20.5 -48.5zM246.003 719.5c-7.33301 -8.33301 -11 -19.666 -11 -33.999s3.66699 -25.5 11 -33.5s17.166 -12 29.499 -12s22.166 4 29.499 12s11 19.167 11 33.5
s-3.66699 25.666 -11 33.999s-17.166 12.5 -29.499 12.5s-22.166 -4.16699 -29.499 -12.5zM367.503 771c25.667 -21.333 38.501 -50.167 38.501 -86.5s-12.667 -64.333 -38 -84s-56 -29.5 -92 -29.5s-67 10 -93 30s-39 48 -39 84s13.167 64.667 39.5 86s57.166 32 92.499 32
s65.833 -10.667 91.5 -32z" />
    <glyph glyph-name="ae" unicode="&#xe6;" horiz-adv-x="826" 
d="M584 -12c-85.333 0 -149.663 28.666 -192.996 85.999c-16 -16 -43.333 -34.333 -82 -55s-68.667 -31 -90 -31c-116 0 -174 51 -174 153c0 54.667 17.667 97.667 53 129c20.667 18 47 29 79 33s88.333 6 169 6v21c0 38.667 -7 67.167 -21 85.5s-36.333 27.5 -67 27.5
c-15.333 0 -30.333 -3.33301 -45 -10l-24 -86c-39.333 0 -64 0.333008 -74 1c-17.333 26 -26.333 66.333 -27 121c14 6.66699 44.667 16.834 92 30.501s77.666 20.5 90.999 20.5c73.333 0 122.666 -14 147.999 -42c39.333 33.333 92 50 158 50s116.5 -21.833 151.5 -65.5
s52.5 -99.834 52.5 -168.501c0 -8.66699 -0.333008 -14.667 -1 -18c-6 -11.333 -13.333 -21.666 -22 -30.999c-128.667 2.66699 -224.334 4.33398 -287.001 5.00098c1.33301 -46.667 10.666 -85.834 27.999 -117.501s44 -47.5 80 -47.5s87.333 16 154 48
c12.667 -16 23.667 -40.667 33 -74c-84 -47.333 -144.667 -71 -182 -71zM193.503 86.499c13.667 -10.333 29.168 -15.501 46.501 -15.501s38 7.83301 62 23.5s43.333 29.834 58 42.501l-5 92c-52.667 -2.66699 -92.334 -7.66699 -119.001 -15c-42 -8.66699 -63 -35 -63 -79
c0 -22 6.83301 -38.167 20.5 -48.5zM575.004 436.998c-25.333 0 -49 -5 -71 -15c-15.333 -32 -25 -61.667 -29 -89c52 2 111 3.33301 177 4c-3.33301 66.667 -29 100 -77 100z" />
    <glyph glyph-name="ccedilla" unicode="&#xe7;" horiz-adv-x="475" 
d="M307 437l-15.999 0.999023c-37.333 0 -67.166 -12.833 -89.499 -38.5s-33.5 -68.667 -33.5 -129s8.5 -106.166 25.5 -137.499s49.833 -47 98.5 -47c22.667 0 70.667 15.333 144 46c16.667 -23.333 25.667 -47.666 27 -72.999c-58.667 -36 -112.334 -59 -161.001 -69
l-4 -16c47.333 -25.333 71 -48 71 -68s-11.667 -42.167 -35 -66.5s-50 -41.833 -80 -52.5l-26 31c1.33301 3.33301 5.33301 11.333 12 24c16 29.333 24 48.333 24 57c0 4 -19.333 13.667 -58 29c0 15.333 4.33301 36.666 13 63.999c-122 21.333 -183 105.333 -183 252
c0 184 83 276 249 276c28.667 0 58.167 -3.5 88.5 -10.5s54.166 -15.833 71.499 -26.5c-2 -66.667 -9.33301 -115 -22 -145c-22 -5.33301 -53 -8 -93 -8z" />
    <glyph glyph-name="egrave" unicode="&#xe8;" horiz-adv-x="512" 
d="M297 86c22.667 0 68.6689 15.668 138.002 47.001c14.667 -21.333 25.667 -46 33 -74c-36.667 -22.667 -72.5 -40.167 -107.5 -52.5s-59.833 -18.5 -74.5 -18.5c-80.667 0 -141.834 22.333 -183.501 67s-62.5 108.167 -62.5 190.5s20.667 148.666 62 198.999
s102.666 75.5 183.999 75.5c64.667 0 114 -21 148 -63s51 -96.667 51 -164c0 -14 -8 -30 -24 -48l-288 5c1.33301 -53.333 11.333 -94 30 -122s50 -42 94 -42zM277.002 437.001c-25.333 0 -49 -5 -71 -15c-15.333 -32 -25 -61.667 -29 -89c52 2 111 3.33301 177 4
c-3.33301 66.667 -29 100 -77 100zM189.002 747.001l158.002 -130.999c-18.667 -24 -39.334 -45 -62.001 -63c-67.333 33.333 -120.333 69 -159 107c1.33301 12 7.16602 25.167 17.499 39.5s25.5 30.166 45.5 47.499z" />
    <glyph glyph-name="eacute" unicode="&#xe9;" horiz-adv-x="512" 
d="M297 86c22.667 0 68.6689 15.668 138.002 47.001c14.667 -21.333 25.667 -46 33 -74c-36.667 -22.667 -72.5 -40.167 -107.5 -52.5s-59.833 -18.5 -74.5 -18.5c-80.667 0 -141.834 22.333 -183.501 67s-62.5 108.167 -62.5 190.5s20.667 148.666 62 198.999
s102.666 75.5 183.999 75.5c64.667 0 114 -21 148 -63s51 -96.667 51 -164c0 -14 -8 -30 -24 -48l-288 5c1.33301 -53.333 11.333 -94 30 -122s50 -42 94 -42zM277.002 437.001c-25.333 0 -49 -5 -71 -15c-15.333 -32 -25 -61.667 -29 -89c52 2 111 3.33301 177 4
c-3.33301 66.667 -29 100 -77 100zM184.002 616.001l157.999 131c39.333 -31.333 60.333 -60.333 63 -87c-17.333 -16.667 -39.166 -34 -65.499 -52s-57.5 -36.333 -93.5 -55c-21.333 16 -42 37 -62 63z" />
    <glyph glyph-name="ecircumflex" unicode="&#xea;" horiz-adv-x="512" 
d="M297 86c22.667 0 68.6689 15.668 138.002 47.001c14.667 -21.333 25.667 -46 33 -74c-36.667 -22.667 -72.5 -40.167 -107.5 -52.5s-59.833 -18.5 -74.5 -18.5c-80.667 0 -141.834 22.333 -183.501 67s-62.5 108.167 -62.5 190.5s20.667 148.666 62 198.999
s102.666 75.5 183.999 75.5c64.667 0 114 -21 148 -63s51 -96.667 51 -164c0 -14 -8 -30 -24 -48l-288 5c1.33301 -53.333 11.333 -94 30 -122s50 -42 94 -42zM277.002 437.001c-25.333 0 -49 -5 -71 -15c-15.333 -32 -25 -61.667 -29 -89c52 2 111 3.33301 177 4
c-3.33301 66.667 -29 100 -77 100zM366.002 555.001c-48.667 24.667 -83.667 44.999 -105 60.999c-12 -9.33301 -47 -29.666 -105 -60.999c-25.333 24 -43 44 -53 60l158 131l159 -131c-9.33301 -14.667 -27.333 -34.667 -54 -60z" />
    <glyph glyph-name="edieresis" unicode="&#xeb;" horiz-adv-x="512" 
d="M297 86c22.667 0 68.6689 15.668 138.002 47.001c14.667 -21.333 25.667 -46 33 -74c-36.667 -22.667 -72.5 -40.167 -107.5 -52.5s-59.833 -18.5 -74.5 -18.5c-80.667 0 -141.834 22.333 -183.501 67s-62.5 108.167 -62.5 190.5s20.667 148.666 62 198.999
s102.666 75.5 183.999 75.5c64.667 0 114 -21 148 -63s51 -96.667 51 -164c0 -14 -8 -30 -24 -48l-288 5c1.33301 -53.333 11.333 -94 30 -122s50 -42 94 -42zM277.002 437.001c-25.333 0 -49 -5 -71 -15c-15.333 -32 -25 -61.667 -29 -89c52 2 111 3.33301 177 4
c-3.33301 66.667 -29 100 -77 100zM232.002 683.001c5.33301 -22.667 8 -40.834 8 -54.501s-1 -29.5 -3 -47.5c-20 -5.33301 -38.5 -8 -55.5 -8s-36.5 1 -58.5 3c-5.33301 22.667 -8 40.834 -8 54.501s1 29.5 3 47.5c20 5.33301 38.5 8 55.5 8s36.5 -1 58.5 -3z
M395.002 683.001c5.33301 -22.667 8 -40.834 8 -54.501s-1 -29.5 -3 -47.5c-20 -5.33301 -38.5 -8 -55.5 -8s-36.5 1 -58.5 3c-5.33301 22.667 -8 40.834 -8 54.501s1 29.5 3 47.5c20 5.33301 38.5 8 55.5 8s36.5 -1 58.5 -3z" />
    <glyph glyph-name="igrave" unicode="&#xec;" horiz-adv-x="308" 
d="M83 747l158.002 -130.999c-18.667 -24 -39.334 -45 -62.001 -63c-67.333 33.333 -120.333 69 -159 107c1.33301 12 7.16602 25.167 17.499 39.5s25.5 30.166 45.5 47.499zM239.002 512.001c12.667 0 20.6689 -0.333008 24.002 -1c0 -32.667 -5.66699 -63 -17 -91
c-2.66699 -144 -4.33398 -252 -5.00098 -324l78 -9c0 -27.333 -7.66699 -56.333 -23 -87h-249l-9 55c41.333 15.333 71.333 25.333 90 30l-11 324c-39.333 4 -68.333 9 -87 15c0 16.667 2.33301 40.667 7 72c39.333 10.667 106.666 16 201.999 16z" />
    <glyph glyph-name="iacute" unicode="&#xed;" horiz-adv-x="308" 
d="M87 616l157.999 131c39.333 -31.333 60.333 -60.333 63 -87c-17.333 -16.667 -39.166 -34 -65.499 -52s-57.5 -36.333 -93.5 -55c-21.333 16 -42 37 -62 63zM238.999 512c12.667 0 20.6689 -0.333008 24.002 -1c0 -32.667 -5.66699 -63 -17 -91
c-2.66699 -144 -4.33398 -252 -5.00098 -324l78 -9c0 -27.333 -7.66699 -56.333 -23 -87h-249l-9 55c41.333 15.333 71.333 25.333 90 30l-11 324c-39.333 4 -68.333 9 -87 15c0 16.667 2.33301 40.667 7 72c39.333 10.667 106.666 16 201.999 16z" />
    <glyph glyph-name="icircumflex" unicode="&#xee;" horiz-adv-x="308" 
d="M283 555c-48.667 24.667 -83.667 44.999 -105 60.999c-12 -9.33301 -47 -29.666 -105 -60.999c-25.333 24 -43 44 -53 60l158 131l159 -131c-9.33301 -14.667 -27.333 -34.667 -54 -60zM239 511.999c12.667 0 20.6689 -0.333008 24.002 -1
c0 -32.667 -5.66699 -63 -17 -91c-2.66699 -144 -4.33398 -252 -5.00098 -324l78 -9c0 -27.333 -7.66699 -56.333 -23 -87h-249l-9 55c41.333 15.333 71.333 25.333 90 30l-11 324c-39.333 4 -68.333 9 -87 15c0 16.667 2.33301 40.667 7 72
c39.333 10.667 106.666 16 201.999 16z" />
    <glyph glyph-name="idieresis" unicode="&#xef;" horiz-adv-x="308" 
d="M132 683c5.33301 -22.667 8 -40.834 8 -54.501s-1 -29.5 -3 -47.5c-20 -5.33301 -38.5 -8 -55.5 -8s-36.5 1 -58.5 3c-5.33301 22.667 -8 40.834 -8 54.501s1 29.5 3 47.5c20 5.33301 38.5 8 55.5 8s36.5 -1 58.5 -3zM295 683c5.33301 -22.667 8 -40.834 8 -54.501
s-1 -29.5 -3 -47.5c-20 -5.33301 -38.5 -8 -55.5 -8s-36.5 1 -58.5 3c-5.33301 22.667 -8 40.834 -8 54.501s1 29.5 3 47.5c20 5.33301 38.5 8 55.5 8s36.5 -1 58.5 -3zM239 512c12.667 0 20.6689 -0.333008 24.002 -1c0 -32.667 -5.66699 -63 -17 -91
c-2.66699 -144 -4.33398 -252 -5.00098 -324l78 -9c0 -27.333 -7.66699 -56.333 -23 -87h-249l-9 55c41.333 15.333 71.333 25.333 90 30l-11 324c-39.333 4 -68.333 9 -87 15c0 16.667 2.33301 40.667 7 72c39.333 10.667 106.666 16 201.999 16z" />
    <glyph glyph-name="eth" unicode="&#xf0;" horiz-adv-x="579" 
d="M528 334c0 -230.667 -84.3359 -345.999 -253.003 -345.999c-71.333 0 -129 26.333 -173 79s-66 112.667 -66 180s20.833 125.833 62.5 175.5s97.834 74.5 168.501 74.5c29.333 0 67 -10.667 113 -32c-9.33301 49.333 -25 88.333 -47 117l-105 -69
c-21.333 21.333 -39 45.333 -53 72c24.667 22.667 49.334 43 74.001 61c-31.333 11.333 -70 19 -116 23c-0.666992 4 -1 12.833 -1 26.5s5 29.167 15 46.5c68 0 128.667 -13.333 182 -40l98 63c14 -17.333 28 -42.333 42 -75c-15.333 -17.333 -33.666 -34.333 -54.999 -51
c76 -74.667 114 -176.334 114 -305.001zM192.497 365.501c-15.667 -26.333 -23.5 -67.667 -23.5 -124s8.5 -97.5 25.5 -123.5s45.5 -39 85.5 -39c78 0 117 85.667 117 257c0 12 -0.333008 21 -1 27c-52 28 -95 42 -129 42s-58.833 -13.167 -74.5 -39.5z" />
    <glyph glyph-name="ntilde" unicode="&#xf1;" horiz-adv-x="616" 
d="M509 471c30 -32.667 45 -78.333 45 -137s-3.33301 -138 -10 -238l79 -9c0 -27.333 -7.66699 -56.333 -23 -87h-249l-9 55c31.333 12.667 60.333 22.667 87 30c-2 76.667 -4 141.167 -6 193.5s-7 87.833 -15 106.5s-25.667 28 -53 28c-41.333 0 -78.333 -7.33301 -111 -22
c-0.666992 -28.667 -2.5 -75.5 -5.5 -140.5s-4.83301 -116.5 -5.5 -154.5l78 -9c0 -27.333 -7.66699 -56.333 -23 -87h-249l-9 55c33.333 12.667 63.333 22.667 90 30c-0.666992 40 -2.83398 95.333 -6.50098 166s-5.83398 123 -6.50098 157
c-24.667 2.66699 -51 7.66699 -79 15l5 72c46.667 12.667 99.334 19 158.001 19c7.33301 -4.66699 17.333 -19 30 -43c22.667 11.333 50.334 22.333 83.001 33s52.667 16 60 16c66.667 0 115 -16.333 145 -49zM158 565.001c-12.667 16 -23.334 33.667 -32.001 53
c12 16.667 42.333 43.334 91 80.001c12.667 9.33301 25 14 37 14s33 -6.66699 63 -20s50.667 -21.333 62 -24c58.667 28 88.334 42.333 89.001 43c16 -22.667 27 -40.334 33 -53.001c-18.667 -27.333 -49.667 -55 -93 -83c-13.333 -9.33301 -25 -14 -35 -14
c-15.333 4.66699 -36 12.5 -62 23.5s-45.667 18.167 -59 21.5c-10 -6 -25.667 -13.167 -47 -21.5s-37 -14.833 -47 -19.5z" />
    <glyph glyph-name="ograve" unicode="&#xf2;" horiz-adv-x="538" 
d="M295 440c-24 0 -51.334 -5.99805 -82.001 -17.998c-8.66699 -13.333 -16.834 -36.833 -24.501 -70.5s-11.5 -67.5 -11.5 -101.5c0 -62.667 9.33301 -107.167 28 -133.5s48.834 -39.5 90.501 -39.5s71.834 13.167 90.501 39.5s28 71.666 28 135.999
s-9.5 111.666 -28.5 141.999s-49.167 45.5 -90.5 45.5zM483.499 448.502c47.667 -47.667 71.5 -114 71.5 -199s-23.667 -149.833 -71 -194.5s-110.333 -67 -189 -67s-141.5 22.333 -188.5 67s-70.5 109.5 -70.5 194.5s23.667 151.333 71 199s110 71.5 188 71.5
s140.833 -23.833 188.5 -71.5zM217.999 747.002l158.002 -130.999c-18.667 -24 -39.334 -45 -62.001 -63c-67.333 33.333 -120.333 69 -159 107c1.33301 12 7.16602 25.167 17.499 39.5s25.5 30.166 45.5 47.499z" />
    <glyph glyph-name="oacute" unicode="&#xf3;" horiz-adv-x="538" 
d="M295 440c-24 0 -51.334 -5.99805 -82.001 -17.998c-8.66699 -13.333 -16.834 -36.833 -24.501 -70.5s-11.5 -67.5 -11.5 -101.5c0 -62.667 9.33301 -107.167 28 -133.5s48.834 -39.5 90.501 -39.5s71.834 13.167 90.501 39.5s28 71.666 28 135.999
s-9.5 111.666 -28.5 141.999s-49.167 45.5 -90.5 45.5zM483.499 448.502c47.667 -47.667 71.5 -114 71.5 -199s-23.667 -149.833 -71 -194.5s-110.333 -67 -189 -67s-141.5 22.333 -188.5 67s-70.5 109.5 -70.5 194.5s23.667 151.333 71 199s110 71.5 188 71.5
s140.833 -23.833 188.5 -71.5zM202.999 616.002l157.999 131c39.333 -31.333 60.333 -60.333 63 -87c-17.333 -16.667 -39.166 -34 -65.499 -52s-57.5 -36.333 -93.5 -55c-21.333 16 -42 37 -62 63z" />
    <glyph glyph-name="ocircumflex" unicode="&#xf4;" horiz-adv-x="538" 
d="M295 440c-24 0 -51.334 -5.99805 -82.001 -17.998c-8.66699 -13.333 -16.834 -36.833 -24.501 -70.5s-11.5 -67.5 -11.5 -101.5c0 -62.667 9.33301 -107.167 28 -133.5s48.834 -39.5 90.501 -39.5s71.834 13.167 90.501 39.5s28 71.666 28 135.999
s-9.5 111.666 -28.5 141.999s-49.167 45.5 -90.5 45.5zM483.499 448.502c47.667 -47.667 71.5 -114 71.5 -199s-23.667 -149.833 -71 -194.5s-110.333 -67 -189 -67s-141.5 22.333 -188.5 67s-70.5 109.5 -70.5 194.5s23.667 151.333 71 199s110 71.5 188 71.5
s140.833 -23.833 188.5 -71.5zM379.999 555.002c-48.667 24.667 -83.667 44.999 -105 60.999c-12 -9.33301 -47 -29.666 -105 -60.999c-25.333 24 -43 44 -53 60l158 131l159 -131c-9.33301 -14.667 -27.333 -34.667 -54 -60z" />
    <glyph glyph-name="otilde" unicode="&#xf5;" horiz-adv-x="538" 
d="M295 440c-24 0 -51.334 -5.99805 -82.001 -17.998c-8.66699 -13.333 -16.834 -36.833 -24.501 -70.5s-11.5 -67.5 -11.5 -101.5c0 -62.667 9.33301 -107.167 28 -133.5s48.834 -39.5 90.501 -39.5s71.834 13.167 90.501 39.5s28 71.666 28 135.999
s-9.5 111.666 -28.5 141.999s-49.167 45.5 -90.5 45.5zM483.499 448.502c47.667 -47.667 71.5 -114 71.5 -199s-23.667 -149.833 -71 -194.5s-110.333 -67 -189 -67s-141.5 22.333 -188.5 67s-70.5 109.5 -70.5 194.5s23.667 151.333 71 199s110 71.5 188 71.5
s140.833 -23.833 188.5 -71.5zM132.999 565.002c-12.667 16.667 -23.334 34.333 -32.001 53c12 16.667 42.333 43.334 91 80.001c12.667 9.33301 25 14 37 14s33 -6.66699 63 -20s50.667 -21.333 62 -24c58.667 28 88.334 42.333 89.001 43
c16 -22.667 27 -40.334 33 -53.001c-18.667 -27.333 -49.667 -55 -93 -83c-13.333 -9.33301 -25 -14 -35 -14c-15.333 4.66699 -36 12.5 -62 23.5s-45.667 18.167 -59 21.5c-10 -6 -25.667 -13.167 -47 -21.5s-37 -14.833 -47 -19.5z" />
    <glyph glyph-name="odieresis" unicode="&#xf6;" horiz-adv-x="538" 
d="M295 440c-24 0 -51.334 -5.99805 -82.001 -17.998c-8.66699 -13.333 -16.834 -36.833 -24.501 -70.5s-11.5 -67.5 -11.5 -101.5c0 -62.667 9.33301 -107.167 28 -133.5s48.834 -39.5 90.501 -39.5s71.834 13.167 90.501 39.5s28 71.666 28 135.999
s-9.5 111.666 -28.5 141.999s-49.167 45.5 -90.5 45.5zM483.499 448.502c47.667 -47.667 71.5 -114 71.5 -199s-23.667 -149.833 -71 -194.5s-110.333 -67 -189 -67s-141.5 22.333 -188.5 67s-70.5 109.5 -70.5 194.5s23.667 151.333 71 199s110 71.5 188 71.5
s140.833 -23.833 188.5 -71.5zM254.999 683.002c5.33301 -22.667 8 -40.834 8 -54.501s-1 -29.5 -3 -47.5c-20 -5.33301 -38.5 -8 -55.5 -8s-36.5 1 -58.5 3c-5.33301 22.667 -8 40.834 -8 54.501s1 29.5 3 47.5c20 5.33301 38.5 8 55.5 8s36.5 -1 58.5 -3zM417.999 683.002
c5.33301 -22.667 8 -40.834 8 -54.501s-1 -29.5 -3 -47.5c-20 -5.33301 -38.5 -8 -55.5 -8s-36.5 1 -58.5 3c-5.33301 22.667 -8 40.834 -8 54.501s1 29.5 3 47.5c20 5.33301 38.5 8 55.5 8s36.5 -1 58.5 -3z" />
    <glyph glyph-name="divide" unicode="&#xf7;" horiz-adv-x="566" 
d="M354 127c6 -24 9.00195 -44.5 9.00195 -61.5s-1 -36.167 -3 -57.5c-22.667 -6 -44.334 -9 -65.001 -9s-43.334 1 -68.001 3c-6.66699 26.667 -10 46.167 -10 58.5s1.33301 32.5 4 60.5c22 6 43.167 9 63.5 9s43.5 -1 69.5 -3zM354.002 512
c6 -24 9.00195 -44.667 9.00195 -62s-1 -36.333 -3 -57c-22.667 -6 -44.334 -9 -65.001 -9s-43.334 1 -68.001 3c-6.66699 26.667 -10 46.167 -10 58.5s1.33301 32.5 4 60.5c22 6 43.167 9 63.5 9s43.5 -1 69.5 -3zM50.0039 301c52 9.33301 92.499 13.999 121.499 13.999
s93.333 -1 193 -3s154.834 -3.33301 165.501 -4c3.33301 -13.333 5 -27.666 5 -42.999l-4 -42c-52 -10 -96.333 -15 -133 -15l-347 7c-4 20 -6 34 -6 42z" />
    <glyph glyph-name="oslash" unicode="&#xf8;" horiz-adv-x="538" 
d="M555 249c0 -84.667 -23.665 -149.333 -70.998 -194s-110.333 -67 -189 -67c-20 0 -42.333 2.33301 -67 7l-38 -95c-32.667 4 -56.334 13 -71.001 27l36 92c-79.333 42.667 -119 119.334 -119 230.001c0 85.333 23.667 151.833 71 199.5s110 71.5 188 71.5
c12 0 29.333 -1.33301 52 -4l40 101c34 -6.66699 61.667 -16.667 83 -30l-41 -99c39.333 -21.333 70.166 -52.333 92.499 -93s33.5 -89.334 33.5 -146.001zM389.002 113.001c19.333 26.667 29.002 72.168 29.002 136.501s-9 112.166 -27 143.499l-130 -317
c11.333 -2 22.666 -3 33.999 -3c43.333 0 74.666 13.333 93.999 40zM319.004 442.002c-10.667 1.33301 -20.332 2 -28.999 2c-20.667 0 -46.334 -6 -77.001 -18l-11 -19.5c-4.66699 -8.33301 -10.667 -27.833 -18 -58.5s-11 -69 -11 -115s7.33301 -82.667 22 -110z" />
    <glyph glyph-name="ugrave" unicode="&#xf9;" 
d="M509 512c12.667 0 20.668 -0.332031 24.001 -0.999023c0 -34 -5.66699 -63.333 -17 -88c-4 -146.667 -7.33301 -255 -10 -325c30 -2.66699 56.333 -7.66699 79 -15l-2 -70c-40.667 -12.667 -75.667 -19 -105 -19s-49.333 0.666992 -60 2c-8 16 -14.667 32 -20 48
c-55.333 -37.333 -95.333 -56 -120 -56c-119.333 0 -179 60.333 -179 181c0 32.667 2.66699 113 8 241c-35.333 0 -67.666 4.66699 -96.999 14c0 16.667 2.33301 40.667 7 72c39.333 10.667 106.666 16 201.999 16c12.667 0 20.667 -0.333008 24 -1
c0 -32.667 -5.66699 -63 -17 -91v-202c0 -42.667 4.5 -73.834 13.5 -93.501s28.333 -29.5 58 -29.5s60.167 10.333 91.5 31l-6 284c-29.333 1.33301 -57 6 -83 14c0 16.667 2.33301 40.667 7 72c39.333 10.667 106.666 16 201.999 16zM207.001 747.001l158.002 -130.999
c-18.667 -24 -39.334 -45 -62.001 -63c-67.333 33.333 -120.333 69 -159 107c1.33301 12 7.16602 25.167 17.499 39.5s25.5 30.166 45.5 47.499z" />
    <glyph glyph-name="uacute" unicode="&#xfa;" 
d="M509 512c12.667 0 20.668 -0.332031 24.001 -0.999023c0 -34 -5.66699 -63.333 -17 -88c-4 -146.667 -7.33301 -255 -10 -325c30 -2.66699 56.333 -7.66699 79 -15l-2 -70c-40.667 -12.667 -75.667 -19 -105 -19s-49.333 0.666992 -60 2c-8 16 -14.667 32 -20 48
c-55.333 -37.333 -95.333 -56 -120 -56c-119.333 0 -179 60.333 -179 181c0 32.667 2.66699 113 8 241c-35.333 0 -67.666 4.66699 -96.999 14c0 16.667 2.33301 40.667 7 72c39.333 10.667 106.666 16 201.999 16c12.667 0 20.667 -0.333008 24 -1
c0 -32.667 -5.66699 -63 -17 -91v-202c0 -42.667 4.5 -73.834 13.5 -93.501s28.333 -29.5 58 -29.5s60.167 10.333 91.5 31l-6 284c-29.333 1.33301 -57 6 -83 14c0 16.667 2.33301 40.667 7 72c39.333 10.667 106.666 16 201.999 16zM210.001 616.001l157.999 131
c39.333 -31.333 60.333 -60.333 63 -87c-17.333 -16.667 -39.166 -34 -65.499 -52s-57.5 -36.333 -93.5 -55c-21.333 16 -42 37 -62 63z" />
    <glyph glyph-name="ucircumflex" unicode="&#xfb;" 
d="M509 512c12.667 0 20.668 -0.332031 24.001 -0.999023c0 -34 -5.66699 -63.333 -17 -88c-4 -146.667 -7.33301 -255 -10 -325c30 -2.66699 56.333 -7.66699 79 -15l-2 -70c-40.667 -12.667 -75.667 -19 -105 -19s-49.333 0.666992 -60 2c-8 16 -14.667 32 -20 48
c-55.333 -37.333 -95.333 -56 -120 -56c-119.333 0 -179 60.333 -179 181c0 32.667 2.66699 113 8 241c-35.333 0 -67.666 4.66699 -96.999 14c0 16.667 2.33301 40.667 7 72c39.333 10.667 106.666 16 201.999 16c12.667 0 20.667 -0.333008 24 -1
c0 -32.667 -5.66699 -63 -17 -91v-202c0 -42.667 4.5 -73.834 13.5 -93.501s28.333 -29.5 58 -29.5s60.167 10.333 91.5 31l-6 284c-29.333 1.33301 -57 6 -83 14c0 16.667 2.33301 40.667 7 72c39.333 10.667 106.666 16 201.999 16zM392.001 555.001
c-48.667 24.667 -83.667 44.999 -105 60.999c-12 -9.33301 -47 -29.666 -105 -60.999c-25.333 24 -43 44 -53 60l158 131l159 -131c-9.33301 -14.667 -27.333 -34.667 -54 -60z" />
    <glyph glyph-name="udieresis" unicode="&#xfc;" 
d="M509 512c12.667 0 20.668 -0.332031 24.001 -0.999023c0 -34 -5.66699 -63.333 -17 -88c-4 -146.667 -7.33301 -255 -10 -325c30 -2.66699 56.333 -7.66699 79 -15l-2 -70c-40.667 -12.667 -75.667 -19 -105 -19s-49.333 0.666992 -60 2c-8 16 -14.667 32 -20 48
c-55.333 -37.333 -95.333 -56 -120 -56c-119.333 0 -179 60.333 -179 181c0 32.667 2.66699 113 8 241c-35.333 0 -67.666 4.66699 -96.999 14c0 16.667 2.33301 40.667 7 72c39.333 10.667 106.666 16 201.999 16c12.667 0 20.667 -0.333008 24 -1
c0 -32.667 -5.66699 -63 -17 -91v-202c0 -42.667 4.5 -73.834 13.5 -93.501s28.333 -29.5 58 -29.5s60.167 10.333 91.5 31l-6 284c-29.333 1.33301 -57 6 -83 14c0 16.667 2.33301 40.667 7 72c39.333 10.667 106.666 16 201.999 16zM263.001 683.001
c5.33301 -22.667 8 -40.834 8 -54.501s-1 -29.5 -3 -47.5c-20 -5.33301 -38.5 -8 -55.5 -8s-36.5 1 -58.5 3c-5.33301 22.667 -8 40.834 -8 54.501s1 29.5 3 47.5c20 5.33301 38.5 8 55.5 8s36.5 -1 58.5 -3zM426.001 683.001c5.33301 -22.667 8 -40.834 8 -54.501
s-1 -29.5 -3 -47.5c-20 -5.33301 -38.5 -8 -55.5 -8s-36.5 1 -58.5 3c-5.33301 22.667 -8 40.834 -8 54.501s1 29.5 3 47.5c20 5.33301 38.5 8 55.5 8s36.5 -1 58.5 -3z" />
    <glyph glyph-name="yacute" unicode="&#xfd;" horiz-adv-x="590" 
d="M169 -242c-19.333 0 -40.667 3.33301 -64 10s-48.333 16.667 -75 30c4 76.667 7.66699 122.334 11 137.001c25.333 6.66699 46.166 10 62.499 10s26.833 -0.333008 31.5 -1l32 -100l9 1c15.333 2 31 20.333 47 55s27.667 68 35 100h-42l-148 412l-78 9
c0 27.333 7.66699 56.333 23 87h249l9 -55c-27.333 -12.667 -50.333 -21.334 -69 -26.001l76 -237l9 -43h22l85 280c-22.667 4 -50.667 12.667 -84 26l9 55h249c15.333 -30.667 23 -59.667 23 -87c-26 -4 -52 -6.66699 -78 -8l-140.5 -408
c-33.667 -96 -64.167 -161.167 -91.5 -195.5s-64.666 -51.5 -111.999 -51.5zM239.999 616l157.999 131c39.333 -31.333 60.333 -60.333 63 -87c-17.333 -16.667 -39.166 -34 -65.499 -52s-57.5 -36.333 -93.5 -55c-21.333 16 -42 37 -62 63z" />
    <glyph glyph-name="thorn" unicode="&#xfe;" horiz-adv-x="579" 
d="M332 528c147.333 0 220.999 -89.6689 220.999 -269.002c0 -62.667 -17 -121.667 -51 -177c-17.333 -28 -41.166 -50.667 -71.499 -68s-64.5 -26 -102.5 -26c-22.667 0 -54.334 11.667 -95.001 35c-1.33301 -65.333 -2 -114.333 -2 -147l78 -9c0 -26 -7.66699 -55 -23 -87
h-249l-9 55c37.333 14 67.333 24 90 30c-1.33301 100.667 -4.66602 244.334 -9.99902 431.001s-8.33301 301.334 -9 344.001c-30.667 3.33301 -57 8.33301 -79 15c0 21.333 2.66699 45.333 8 72c42.667 10.667 107.334 16 194.001 16c15.333 0 25.666 -0.333008 30.999 -1
c0 -33.333 -4.33301 -63.666 -13 -90.999c-2 -34.667 -3 -86.334 -3 -155.001c48 21.333 79.667 32 95 32zM325.999 423.998c-24 0 -52.667 -8.66699 -86 -26c-3.33301 -148 -5 -237.333 -5 -268c39.333 -29.333 68 -44 86 -44c32 0 57.333 15 76 45s28 71 28 123
c0 113.333 -33 170 -99 170z" />
    <glyph glyph-name="ydieresis" unicode="&#xff;" horiz-adv-x="590" 
d="M169 -242c-19.333 0 -40.667 3.33301 -64 10s-48.333 16.667 -75 30c4 76.667 7.66699 122.334 11 137.001c25.333 6.66699 46.166 10 62.499 10s26.833 -0.333008 31.5 -1l32 -100l9 1c15.333 2 31 20.333 47 55s27.667 68 35 100h-42l-148 412l-78 9
c0 27.333 7.66699 56.333 23 87h249l9 -55c-27.333 -12.667 -50.333 -21.334 -69 -26.001l76 -237l9 -43h22l85 280c-22.667 4 -50.667 12.667 -84 26l9 55h249c15.333 -30.667 23 -59.667 23 -87c-26 -4 -52 -6.66699 -78 -8l-140.5 -408
c-33.667 -96 -64.167 -161.167 -91.5 -195.5s-64.666 -51.5 -111.999 -51.5zM253.999 683c5.33301 -22.667 8 -40.834 8 -54.501s-1 -29.5 -3 -47.5c-20 -5.33301 -38.5 -8 -55.5 -8s-36.5 1 -58.5 3c-5.33301 22.667 -8 40.834 -8 54.501s1 29.5 3 47.5
c20 5.33301 38.5 8 55.5 8s36.5 -1 58.5 -3zM416.999 683c5.33301 -22.667 8 -40.834 8 -54.501s-1 -29.5 -3 -47.5c-20 -5.33301 -38.5 -8 -55.5 -8s-36.5 1 -58.5 3c-5.33301 22.667 -8 40.834 -8 54.501s1 29.5 3 47.5c20 5.33301 38.5 8 55.5 8s36.5 -1 58.5 -3z" />
    <glyph glyph-name="Amacron" unicode="&#x100;" horiz-adv-x="739" 
d="M519 689l1.00195 -10.0029c0 -27.333 -4.33301 -50.666 -13 -69.999c-8.66699 -6.66699 -22.334 -12 -41.001 -16l167 -494l95 -12c0 -27.333 -7.66699 -56.333 -23 -87h-243l-9 55l55 21l-40 113h-225c-20 -59.333 -30.667 -90.333 -32 -93l69 -9
c0 -14 -2.66699 -30.167 -8 -48.5s-10.333 -31.166 -15 -38.499h-243l-9 55c30 12.667 57 22 81 28l168 514c-44.667 6.66699 -78.334 15.334 -101.001 26.001c0 19.333 3 36.333 9 51c14 4.66699 46.833 10.167 98.5 16.5s101 9.5 148 9.5s83.833 -3.66699 110.5 -11z
M390.002 413.997l-29 132h-10l-32 -138l-47 -125h167zM264.002 888.997c46 4.66699 86.5 7.00098 121.5 7.00098s77.167 -2.33301 126.5 -7c1.33301 -6 2 -19 2 -39l-3 -48c-46 -4 -83.667 -6 -113 -6l-133 5c-3.33301 15.333 -5 28.666 -5 39.999z" />
    <glyph glyph-name="amacron" unicode="&#x101;" horiz-adv-x="539" 
d="M219 -12c-56.667 0 -100.498 11.668 -131.498 35.001s-46.5 62.666 -46.5 117.999c0 52.667 18.333 95.667 55 129c21.333 19.333 51 30.666 89 33.999s90.333 5 157 5v16c0 40.667 -6.5 70.5 -19.5 89.5s-35.833 28.5 -68.5 28.5c-16.667 0 -31.667 -3.33301 -45 -10
l-24 -87l-74 2c-16.667 25.333 -25.667 65.666 -27 120.999c13.333 6.66699 44.666 16.834 93.999 30.501s81 20.5 95 20.5c72 0 124.333 -14.833 157 -44.5s49 -76.667 49 -141s-3 -149.166 -9 -254.499c38 -3.33301 67.333 -9 88 -17c0.666992 -8 1 -17.667 1 -29l-1 -22
c-48 -16 -96.333 -24 -145 -24c-12.667 0 -22 0.333008 -28 1c-10 20 -16 44 -18 72h-5c-12.667 -12 -34.834 -27.167 -66.501 -45.5s-57.167 -27.5 -76.5 -27.5zM189.502 86.501c13.667 -10.333 29.168 -15.501 46.501 -15.501s38 7.83301 62 23.5s43.333 29.834 58 42.501
l-5 92c-52.667 -2.66699 -92.334 -7.66699 -119.001 -15c-42 -8.66699 -63 -35 -63 -79c0 -22 6.83301 -38.167 20.5 -48.5zM163.003 697c46 4.66699 86.5 7.00098 121.5 7.00098s77.167 -2.33301 126.5 -7c1.33301 -6 2 -19 2 -39l-3 -48c-46 -4 -83.667 -6 -113 -6l-133 5
c-3.33301 15.333 -5 28.666 -5 39.999z" />
    <glyph glyph-name="Abreve" unicode="&#x102;" horiz-adv-x="739" 
d="M519 689l1.00195 -10.0029c0 -27.333 -4.33301 -50.666 -13 -69.999c-8.66699 -6.66699 -22.334 -12 -41.001 -16l167 -494l95 -12c0 -27.333 -7.66699 -56.333 -23 -87h-243l-9 55l55 21l-40 113h-225c-20 -59.333 -30.667 -90.333 -32 -93l69 -9
c0 -14 -2.66699 -30.167 -8 -48.5s-10.333 -31.166 -15 -38.499h-243l-9 55c30 12.667 57 22 81 28l168 514c-44.667 6.66699 -78.334 15.334 -101.001 26.001c0 19.333 3 36.333 9 51c14 4.66699 46.833 10.167 98.5 16.5s101 9.5 148 9.5s83.833 -3.66699 110.5 -11z
M390.002 413.997l-29 132h-10l-32 -138l-47 -125h167z" />
    <glyph glyph-name="abreve" unicode="&#x103;" horiz-adv-x="539" 
d="M219 -12c-56.667 0 -100.498 11.668 -131.498 35.001s-46.5 62.666 -46.5 117.999c0 52.667 18.333 95.667 55 129c21.333 19.333 51 30.666 89 33.999s90.333 5 157 5v16c0 40.667 -6.5 70.5 -19.5 89.5s-35.833 28.5 -68.5 28.5c-16.667 0 -31.667 -3.33301 -45 -10
l-24 -87l-74 2c-16.667 25.333 -25.667 65.666 -27 120.999c13.333 6.66699 44.666 16.834 93.999 30.501s81 20.5 95 20.5c72 0 124.333 -14.833 157 -44.5s49 -76.667 49 -141s-3 -149.166 -9 -254.499c38 -3.33301 67.333 -9 88 -17c0.666992 -8 1 -17.667 1 -29l-1 -22
c-48 -16 -96.333 -24 -145 -24c-12.667 0 -22 0.333008 -28 1c-10 20 -16 44 -18 72h-5c-12.667 -12 -34.834 -27.167 -66.501 -45.5s-57.167 -27.5 -76.5 -27.5zM189.502 86.501c13.667 -10.333 29.168 -15.501 46.501 -15.501s38 7.83301 62 23.5s43.333 29.834 58 42.501
l-5 92c-52.667 -2.66699 -92.334 -7.66699 -119.001 -15c-42 -8.66699 -63 -35 -63 -79c0 -22 6.83301 -38.167 20.5 -48.5zM425.003 737c0 -42.667 -14.333 -80.3311 -43 -112.998s-66.834 -49 -114.501 -49s-85 16.167 -112 48.5s-40.5 70.166 -40.5 113.499h82
c0 -18.667 5.83301 -34.834 17.5 -48.501s29.834 -20.5 54.501 -20.5c42 0 63 23 63 69h93z" />
    <glyph glyph-name="Emacron" unicode="&#x112;" 
d="M249 600c0 -76 -0.665039 -141.334 -1.99805 -196.001h102l10 69c34 0 67 -8.33301 99 -25v-200l-66 -3c-16 24 -25.333 45 -28 63h-118c-1.33301 -93.333 -2 -163.666 -2 -210.999h171l22 87c41.333 0 72.666 -2 93.999 -6c10 -38 15 -72.5 15 -103.5
s-1 -55.833 -3 -74.5h-496l-9 55c43.333 16.667 71.333 26.334 84 29.001c-0.666992 39.333 -1.33398 94.666 -2.00098 165.999c-2.66699 160 -5 281 -7 363l-83 26l8 61h491c2 -18 3 -40.5 3 -67.5s-5 -64.5 -15 -112.5c-20.667 -6.66699 -52 -10 -94 -10l-23 90h-151z
M191.002 888.999c46 4.66699 86.667 7.00098 122 7.00098s77.333 -2.33301 126 -7c1.33301 -6 2 -19 2 -39l-3 -48c-46 -4 -83.667 -6 -113 -6l-133 5c-3.33301 15.333 -5 28.666 -5 39.999z" />
    <glyph glyph-name="emacron" unicode="&#x113;" horiz-adv-x="512" 
d="M297 86c22.667 0 68.6689 15.668 138.002 47.001c14.667 -21.333 25.667 -46 33 -74c-36.667 -22.667 -72.5 -40.167 -107.5 -52.5s-59.833 -18.5 -74.5 -18.5c-80.667 0 -141.834 22.333 -183.501 67s-62.5 108.167 -62.5 190.5s20.667 148.666 62 198.999
s102.666 75.5 183.999 75.5c64.667 0 114 -21 148 -63s51 -96.667 51 -164c0 -14 -8 -30 -24 -48l-288 5c1.33301 -53.333 11.333 -94 30 -122s50 -42 94 -42zM277.002 437.001c-25.333 0 -49 -5 -71 -15c-15.333 -32 -25 -61.667 -29 -89c52 2 111 3.33301 177 4
c-3.33301 66.667 -29 100 -77 100zM132.002 697.001c46 4.66699 86.5 7.00098 121.5 7.00098s77.167 -2.33301 126.5 -7c1.33301 -6 2 -19 2 -39l-3 -48c-46 -4 -83.667 -6 -113 -6l-133 5c-3.33301 15.333 -5 28.666 -5 39.999z" />
    <glyph glyph-name="Ebreve" unicode="&#x114;" 
d="M249 600c0 -76 -0.665039 -141.334 -1.99805 -196.001h102l10 69c34 0 67 -8.33301 99 -25v-200l-66 -3c-16 24 -25.333 45 -28 63h-118c-1.33301 -93.333 -2 -163.666 -2 -210.999h171l22 87c41.333 0 72.666 -2 93.999 -6c10 -38 15 -72.5 15 -103.5
s-1 -55.833 -3 -74.5h-496l-9 55c43.333 16.667 71.333 26.334 84 29.001c-0.666992 39.333 -1.33398 94.666 -2.00098 165.999c-2.66699 160 -5 281 -7 363l-83 26l8 61h491c2 -18 3 -40.5 3 -67.5s-5 -64.5 -15 -112.5c-20.667 -6.66699 -52 -10 -94 -10l-23 90h-151z
M460.002 927.999c0 -42.667 -14.333 -80.3311 -43 -112.998s-66.834 -49 -114.501 -49s-85 16.167 -112 48.5s-40.5 70.166 -40.5 113.499h82c0 -18.667 5.83301 -34.834 17.5 -48.501s29.834 -20.5 54.501 -20.5c42 0 63 23 63 69h93z" />
    <glyph glyph-name="ebreve" unicode="&#x115;" horiz-adv-x="508" 
d="M297 86c22.667 0 68.6689 15.668 138.002 47.001c14.667 -21.333 25.667 -46 33 -74c-36.667 -22.667 -72.5 -40.167 -107.5 -52.5s-59.833 -18.5 -74.5 -18.5c-80.667 0 -141.834 22.333 -183.501 67s-62.5 108.167 -62.5 190.5s20.667 148.666 62 198.999
s102.666 75.5 183.999 75.5c64.667 0 114 -21 148 -63s51 -96.667 51 -164c0 -14 -8 -30 -24 -48l-288 5c1.33301 -53.333 11.333 -94 30 -122s50 -42 94 -42zM277.002 437.001c-25.333 0 -49 -5 -71 -15c-15.333 -32 -25 -61.667 -29 -89c52 2 111 3.33301 177 4
c-3.33301 66.667 -29 100 -77 100zM418.002 737.001c0 -42.667 -14.333 -80.3311 -43 -112.998s-66.834 -49 -114.501 -49s-85 16.167 -112 48.5s-40.5 70.166 -40.5 113.499h82c0 -18.667 5.83301 -34.834 17.5 -48.501s29.834 -20.5 54.501 -20.5c42 0 63 23 63 69h93z
" />
    <glyph glyph-name="Gbreve" unicode="&#x11e;" horiz-adv-x="676" 
d="M318 -13c-90.667 0 -162.999 30.667 -216.999 92s-81 152 -81 272s23.5 210.167 70.5 270.5s123.167 90.5 228.5 90.5c44.667 0 87.5 -6 128.5 -18s68.833 -22.167 83.5 -30.5s26.334 -15.833 35.001 -22.5c0 -42.667 -5.33301 -90 -16 -142
c-17.333 -8 -34.5 -12 -51.5 -12s-31.5 0.666992 -43.5 2l-21 104c-29.333 8 -58 12 -86 12c-39.333 0 -88.333 -8 -147 -24c-29.333 -58.667 -44 -130 -44 -214c0 -184 54 -276 162 -276c54 0 97 9 129 27c1.33301 34.667 2.66602 88 3.99902 160l-84 26l8 61h242
c8 -14.667 14 -41 18 -79c-22.667 -4.66699 -47 -8 -73 -10c4 -86 6 -160 6 -222c-19.333 -12.667 -54.333 -27 -105 -43s-99.334 -24 -146.001 -24zM480.001 928c0 -42.667 -14.333 -80.3311 -43 -112.998s-66.834 -49 -114.501 -49s-85 16.167 -112 48.5
s-40.5 70.166 -40.5 113.499h82c0 -18.667 5.83301 -34.834 17.5 -48.501s29.834 -20.5 54.501 -20.5c42 0 63 23 63 69h93z" />
    <glyph glyph-name="gbreve" unicode="&#x11f;" horiz-adv-x="578" 
d="M364 142.5c-24.667 -6.33301 -48.499 -9.50098 -71.499 -9.50098s-43.167 2.33301 -60.5 7c-7.33301 -17.333 -14.333 -30.333 -21 -39c5.33301 -8 61.333 -12 168 -12c66.667 0 113.667 -10.333 141 -31c12.667 -8.66699 23.834 -22.334 33.501 -41.001
s14.5 -42.834 14.5 -72.501s-14.667 -59.5 -44 -89.5s-66 -53.667 -110 -71s-87.667 -26 -131 -26c-72 0 -130.333 14.167 -175 42.5s-67 63.5 -67 105.5c0 8 11.667 27.5 35 58.5s38.666 48.833 45.999 53.5c-6.66699 3.33301 -18.334 14.5 -35.001 33.5s-26 32.5 -28 40.5
c8.66699 24 35.334 54 80.001 90c-52 31.333 -78 84 -78 158c0 58.667 20.167 103.334 60.5 134.001s93.666 46 159.999 46s116.5 -9 150.5 -27c56.667 10 96.834 15 120.501 15s39.167 -0.333008 46.5 -1c0 -16 -3.83301 -34.167 -11.5 -54.5s-14.834 -34.5 -21.501 -42.5
l-86 20c16.667 -24 25 -55 25 -93s-6.33301 -71.167 -19 -99.5s-30 -49.666 -52 -63.999s-45.333 -24.666 -70 -30.999zM436.001 -69.001c0 16.667 -7.33594 28.833 -22.0029 36.5s-32 11.5 -52 11.5c-78 0 -129.667 0.666992 -155 2c-5.33301 -11.333 -12 -27.5 -20 -48.5
s-12 -33.5 -12 -37.5s2.66699 -9.83301 8 -17.5s16.833 -15.834 34.5 -24.501s39.334 -13 65.001 -13s55.834 6 90.501 18s53.334 21.667 56.001 29c4.66699 12.667 7 27.334 7 44.001zM282.998 444.998c-28 0 -49.833 -9.00098 -65.5 -27.001s-23.5 -44.167 -23.5 -78.5
s8 -61.166 24 -80.499s37.667 -29 65 -29c59.333 0 89 36.667 89 110c0 34 -7.83301 60 -23.5 78s-37.5 27 -65.5 27z" />
    <glyph glyph-name="hbar" unicode="&#x127;" horiz-adv-x="617" 
d="M284 601c2.66699 -12.667 4.00098 -22.6631 4.00098 -29.9961s-1 -19 -3 -35c-14.667 -2 -30.334 -3.66699 -47.001 -5v-51c21.333 9.33301 45.666 18.333 72.999 27s44.333 13 51 13c68 0 116.833 -15.333 146.5 -46s44.5 -79 44.5 -145
c0 -6.66699 -3.33301 -84.334 -10 -233.001l78 -10c0 -28.667 -7.66699 -57.334 -23 -86.001h-249l-9 55c44.667 18 73.334 27.667 86.001 29c0 1.33301 -2 72.666 -6 213.999c-1.33301 40 -6.33301 69.167 -15 87.5s-22.5 27.5 -41.5 27.5s-40.667 -2.16699 -65 -6.5
s-43.166 -9.5 -56.499 -15.5l-11 -295l78 -9c0 -27.333 -7.66699 -56.333 -23 -87h-249l-9 55c41.333 15.333 71.333 25.333 90 30l-16 446l-75 4c-3.33301 11.333 -5 21.166 -5 29.499s1 20.5 3 36.5c25.333 2.66699 50.333 4.66699 75 6v43
c-32 3.33301 -58.667 8.33301 -80 15c0 13.333 2.33301 34 7 62c39.333 10.667 106.666 16 201.999 16c12.667 0 20.667 -0.333008 24 -1c0 -34.667 -4.33301 -65 -13 -91c-0.666992 -10.667 -1 -26.667 -1 -48z" />
    <glyph glyph-name="Itilde" unicode="&#x128;" horiz-adv-x="380" 
d="M323 700c-0.666992 0 -0.5 -0.666992 0.5 -2s2.33301 -4.16602 4 -8.49902s3.5 -9.5 5.5 -15.5c4 -10.667 6.66699 -28.334 8 -53.001c-34 -5.33301 -56.333 -8.66602 -67 -9.99902l-5 -515l69 -9c0 -27.333 -7.66699 -56.333 -23 -87h-243l-9 55
c37.333 15.333 65.333 25 84 29c-0.666992 39.333 -1.66699 94.666 -3 165.999c-2 160 -4 281 -6 363l-83 26l8 61h260zM50 757c-12.667 16.667 -23.334 34.333 -32.001 53c12 16.667 42.333 43.334 91 80.001c12.667 9.33301 25 14 37 14s33 -6.66699 63 -20
s50.667 -21.333 62 -24c58.667 28 88.334 42.333 89.001 43c16 -22.667 27 -40.334 33 -53.001c-18.667 -27.333 -49.667 -55 -93 -83c-13.333 -9.33301 -25 -14 -35 -14c-15.333 4.66699 -36 12.5 -62 23.5s-45.667 18.167 -59 21.5c-10 -6 -25.667 -13.167 -47 -21.5
s-37 -14.833 -47 -19.5z" />
    <glyph glyph-name="itilde" unicode="&#x129;" horiz-adv-x="308" 
d="M18 565c-12.667 16.667 -23.334 34.333 -32.001 53c12 16.667 42.333 43.334 91 80.001c12.667 9.33301 25 14 37 14s33 -6.66699 63 -20s50.667 -21.333 62 -24c58.667 28 88.334 42.333 89.001 43c16 -22.667 27 -40.334 33 -53.001
c-18.667 -27.333 -49.667 -55 -93 -83c-13.333 -9.33301 -25 -14 -35 -14c-15.333 4.66699 -36 12.5 -62 23.5s-45.667 18.167 -59 21.5c-10 -6 -25.667 -13.167 -47 -21.5s-37 -14.833 -47 -19.5zM239 511.999c12.667 0 20.6689 -0.333008 24.002 -1
c0 -32.667 -5.66699 -63 -17 -91c-2.66699 -144 -4.33398 -252 -5.00098 -324l78 -9c0 -27.333 -7.66699 -56.333 -23 -87h-249l-9 55c41.333 15.333 71.333 25.333 90 30l-11 324c-39.333 4 -68.333 9 -87 15c0 16.667 2.33301 40.667 7 72
c39.333 10.667 106.666 16 201.999 16z" />
    <glyph glyph-name="Imacron" unicode="&#x12a;" horiz-adv-x="380" 
d="M323 700c-0.666992 0 -0.5 -0.666992 0.5 -2s2.33301 -4.16602 4 -8.49902s3.5 -9.5 5.5 -15.5c4 -10.667 6.66699 -28.334 8 -53.001c-34 -5.33301 -56.333 -8.66602 -67 -9.99902l-5 -515l69 -9c0 -27.333 -7.66699 -56.333 -23 -87h-243l-9 55
c37.333 15.333 65.333 25 84 29c-0.666992 39.333 -1.66699 94.666 -3 165.999c-2 160 -4 281 -6 363l-83 26l8 61h260zM79 889c46 4.66699 86.667 7.00098 122 7.00098s77.333 -2.33301 126 -7c1.33301 -6 2 -19 2 -39l-3 -48c-46 -4 -83.667 -6 -113 -6l-133 5
c-3.33301 15.333 -5 28.666 -5 39.999z" />
    <glyph glyph-name="imacron" unicode="&#x12b;" horiz-adv-x="308" 
d="M239 512c12.667 0 20.6689 -0.333008 24.002 -1c0 -32.667 -5.66699 -63 -17 -91c-2.66699 -144 -4.33398 -252 -5.00098 -324l78 -9c0 -27.333 -7.66699 -56.333 -23 -87h-249l-9 55c41.333 15.333 71.333 25.333 90 30l-11 324c-39.333 4 -68.333 9 -87 15
c0 16.667 2.33301 40.667 7 72c39.333 10.667 106.666 16 201.999 16zM55.002 697c46 4.66699 86.5 7.00098 121.5 7.00098s77.167 -2.33301 126.5 -7c1.33301 -6 2 -19 2 -39l-3 -48c-46 -4 -83.667 -6 -113 -6l-133 5c-3.33301 15.333 -5 28.666 -5 39.999z" />
    <glyph glyph-name="Ibreve" unicode="&#x12c;" horiz-adv-x="380" 
d="M323 700c-0.666992 0 -0.5 -0.666992 0.5 -2s2.33301 -4.16602 4 -8.49902s3.5 -9.5 5.5 -15.5c4 -10.667 6.66699 -28.334 8 -53.001c-34 -5.33301 -56.333 -8.66602 -67 -9.99902l-5 -515l69 -9c0 -27.333 -7.66699 -56.333 -23 -87h-243l-9 55
c37.333 15.333 65.333 25 84 29c-0.666992 39.333 -1.66699 94.666 -3 165.999c-2 160 -4 281 -6 363l-83 26l8 61h260zM365 928c0 -42.667 -14.333 -80.3311 -43 -112.998s-66.834 -49 -114.501 -49s-85 16.167 -112 48.5s-40.5 70.166 -40.5 113.499h82
c0 -18.667 5.83301 -34.834 17.5 -48.501s29.834 -20.5 54.501 -20.5c42 0 63 23 63 69h93z" />
    <glyph glyph-name="ibreve" unicode="&#x12d;" horiz-adv-x="308" 
d="M239 512c12.667 0 20.6689 -0.333008 24.002 -1c0 -32.667 -5.66699 -63 -17 -91c-2.66699 -144 -4.33398 -252 -5.00098 -324l78 -9c0 -27.333 -7.66699 -56.333 -23 -87h-249l-9 55c41.333 15.333 71.333 25.333 90 30l-11 324c-39.333 4 -68.333 9 -87 15
c0 16.667 2.33301 40.667 7 72c39.333 10.667 106.666 16 201.999 16z" />
    <glyph glyph-name="dotlessi" unicode="&#x131;" horiz-adv-x="308" 
d="M239 512c12.667 0 20.6689 -0.333008 24.002 -1c0 -32.667 -5.66699 -63 -17 -91c-2.66699 -144 -4.33398 -252 -5.00098 -324l78 -9c0 -27.333 -7.66699 -56.333 -23 -87h-249l-9 55c41.333 15.333 71.333 25.333 90 30l-11 324c-39.333 4 -68.333 9 -87 15
c0 16.667 2.33301 40.667 7 72c39.333 10.667 106.666 16 201.999 16z" />
    <glyph glyph-name="IJ" unicode="&#x132;" horiz-adv-x="841" 
d="M323 700c-0.666992 0 -0.5 -0.666992 0.5 -2s2.33301 -4.16602 4 -8.49902s3.5 -9.5 5.5 -15.5c4 -10.667 6.66699 -28.334 8 -53.001c-34 -5.33301 -56.333 -8.66602 -67 -9.99902l-5 -515l69 -9c0 -27.333 -7.66699 -56.333 -23 -87h-243l-9 55
c37.333 15.333 65.333 25 84 29c-0.666992 39.333 -1.66699 94.666 -3 165.999c-2 160 -4 281 -6 363l-83 26l8 61h260zM562 93c42 0 62.9971 31.999 62.9971 95.999c0 24 -3.66699 165.333 -11 424l-83 26l8 61h260c12 -26 18 -52.333 18 -79
c-40 -6.66699 -62.333 -10 -67 -10c-0.666992 -38.667 -1.16699 -107.667 -1.5 -207s-1.16602 -177.166 -2.49902 -233.499s-16 -101 -44 -134s-68.667 -49.5 -122 -49.5c-38.667 0 -77.167 6 -115.5 18s-65.833 26 -82.5 42c0.666992 48.667 6 104 16 166
c26.667 7.33301 59.334 11 98.001 11l19 -127c10.667 -2.66699 26.334 -4 47.001 -4z" />
    <glyph glyph-name="ij" unicode="&#x133;" horiz-adv-x="613" 
d="M254 512c12.667 0 20.6689 -0.333008 24.002 -1c0 -32.667 -5.66699 -63 -17 -91c-2.66699 -144 -4.33398 -252 -5.00098 -324l78 -9c0 -27.333 -7.66699 -56.333 -23 -87h-249l-9 55c41.333 15.333 71.333 25.333 90 30l-11 324c-38.667 4 -67.667 9 -87 15
c0 24.667 2.33301 48.667 7 72c39.333 10.667 106.666 16 201.999 16zM359.002 -150l21.0029 -0.999023c22 0 38.167 11.5 48.5 34.5s15.5 51.5 15.5 85.5c0 83.333 -5 230 -15 440c-39.333 4 -68.333 9 -87 15c0 16.667 2.33301 40.667 7 72
c39.333 10.667 106.666 16 201.999 16c12.667 0 20.667 -0.333008 24 -1c0 -32.667 -5.66699 -63 -17 -91l-4 -433c-0.666992 -78.667 -13 -136.167 -37 -172.5s-71 -54.5 -141 -54.5c-22.667 0 -50.834 5.16699 -84.501 15.5s-57.5 20.166 -71.5 29.499
c3.33301 64 10.333 112 21 144c15.333 6 35.666 9 60.999 9l33 -1zM551.005 701.001c6 -30 9 -52.833 9 -68.5s-1.33301 -33.167 -4 -52.5c-26.667 -6 -49.167 -9 -67.5 -9s-40.5 1 -66.5 3c-6 30 -9 52.833 -9 68.5s1.33301 33.167 4 52.5c26.667 6 49.167 9 67.5 9
s40.5 -1 66.5 -3z" />
    <glyph glyph-name="Jcircumflex" unicode="&#x134;" horiz-adv-x="464" 
d="M135 93c42 0 62.9971 31.999 62.9971 95.999c0 24 -3.66699 165.333 -11 424l-83 26l8 61h260c12 -26 18 -52.333 18 -79c-40 -6.66699 -62.333 -10 -67 -10c-0.666992 -38.667 -1.16699 -107.667 -1.5 -207s-1.16602 -177.166 -2.49902 -233.499s-16 -101 -44 -134
s-68.667 -49.5 -122 -49.5c-38.667 0 -77.167 6 -115.5 18s-65.833 26 -82.5 42c0.666992 48.667 6 104 16 166c26.667 7.33301 59.334 11 98.001 11l19 -127c10.667 -2.66699 26.334 -4 47.001 -4zM428.997 746.999c-48.667 24.667 -83.667 44.999 -105 60.999
c-12 -9.33301 -47 -29.666 -105 -60.999c-25.333 24 -43 44 -53 60l158 131l159 -131c-9.33301 -14.667 -27.333 -34.667 -54 -60z" />
    <glyph glyph-name="jcircumflex" unicode="&#x135;" horiz-adv-x="305" 
d="M41 -150l21.002 -1c22 0 38.167 11.5 48.5 34.5s15.5 51.5 15.5 85.5c0 109.333 -5 256 -15 440c-39.333 4 -68.333 9 -87 15c0 16.667 2.33301 40.667 7 72c39.333 10.667 106.666 16 201.999 16c12.667 0 20.667 -0.333008 24 -1c0 -32.667 -5.66699 -63 -17 -91
c-1.33301 -95.333 -2.66602 -239.666 -3.99902 -432.999c-0.666992 -78.667 -13 -136.167 -37 -172.5s-71 -54.5 -141 -54.5c-22.667 0 -50.834 5.16699 -84.501 15.5s-57.5 20.166 -71.5 29.499c3.33301 64 10.333 112 21 144c15.333 6 35.666 9 60.999 9l33 -1z
M165.002 746l159 -130.999c-9.33301 -14.667 -27.333 -34.667 -54 -60l-33 18c-33.333 17.333 -57.333 31.666 -72 42.999c-16 -12.667 -43.333 -28.667 -82 -48l-23 -13c-25.333 24 -43 44 -53 60z" />
    <glyph glyph-name="kcedilla" unicode="&#x137;" horiz-adv-x="591" 
d="M228 743c12.667 0 20.667 -0.333008 24 -1c0 -34.667 -4.33301 -65 -13 -91c-4 -160 -6 -278.667 -6 -356l119 118l-62 8c0 27.333 7.66699 56.333 23 87h249l9 -55c-41.333 -15.333 -71.333 -25.333 -90 -30l-110 -110l140 -217l78 -9
c0 -27.333 -7.66699 -56.333 -23 -87h-128l-148 232l-59 -59c-0.666992 -17.333 -1 -43 -1 -77l78 -9c0 -27.333 -7.66699 -56.333 -23 -87h-249l-9 55c41.333 15.333 71.333 25.333 90 30l-19 555c-31.333 3.33301 -57.666 8.33301 -78.999 15
c0 24.667 2.33301 48.667 7 72c39.333 10.667 106.666 16 201.999 16zM383 -83c5.33301 -20 8 -42.499 8 -67.499s-11 -52.833 -33 -83.5s-42.333 -51.667 -61 -63c-20.667 9.33301 -37.667 20.666 -51 33.999c7.33301 20.667 22 44.667 44 72l-17 3
c-4.66699 14 -7 30.5 -7 49.5s0.666992 36.167 2 51.5c26.667 5.33301 48 8 64 8s33 -1.33301 51 -4z" />
    <glyph glyph-name="kgreenlandic" unicode="&#x138;" horiz-adv-x="591" 
d="M235 173l-0.996094 -76.999l78 -9c0 -27.333 -7.66699 -56.333 -23 -87h-249l-9 55c41.333 15.333 71.333 25.333 90 30c-0.666992 40.667 -2.33398 98.167 -5.00098 172.5s-4.33398 123.166 -5.00098 146.499c-32.667 1.33301 -63.334 6.66602 -92.001 15.999
c0 24.667 2.33301 48.667 7 72c39.333 10.667 106.666 16 201.999 16c12.667 0 20.667 -0.333008 24 -1c0 -34.667 -4.33301 -65 -13 -91c-1.33301 -53.333 -2 -93.666 -2 -120.999l119 118l-62 8c0 27.333 7.66699 56.333 23 87h249l9 -55
c-41.333 -15.333 -71.333 -25.333 -90 -30l-110 -110l140 -217l78 -9c0 -27.333 -7.66699 -56.333 -23 -87h-128l-148 232z" />
    <glyph glyph-name="Ldotaccent" unicode="&#x13f;" horiz-adv-x="592" 
d="M467 182c16 2.66699 28.168 4 36.501 4s26.5 -2.33301 54.5 -7c2.66699 -5.33301 6.5 -22.333 11.5 -51s7.5 -51.834 7.5 -69.501s-2 -37.167 -6 -58.5h-485l-9 55c32.667 13.333 60.667 23 84 29c0 2 -3 178.333 -9 529l-83 26l8 61h260
c-0.666992 0 -0.5 -0.666992 0.5 -2s2.33301 -4.16602 4 -8.49902s3.5 -9.5 5.5 -15.5c4 -10.667 6.66699 -28.334 8 -53.001c-34 -5.33301 -56.333 -8.66602 -67 -9.99902c-2.66699 -230 -4.33398 -401.667 -5.00098 -515h162zM545.001 415c6 -30 9 -52.833 9 -68.5
s-1.33301 -33.167 -4 -52.5c-26.667 -6 -49.167 -9 -67.5 -9s-40.5 1 -66.5 3c-6 30 -9 52.833 -9 68.5s1.33301 33.167 4 52.5c26.667 6 49.167 9 67.5 9s40.5 -1 66.5 -3z" />
    <glyph glyph-name="ldot" unicode="&#x140;" horiz-adv-x="503" 
d="M460 351c6 -24 9.00195 -44.5 9.00195 -61.5s-1 -36.167 -3 -57.5c-22.667 -6 -44.334 -9 -65.001 -9s-43.334 1 -68.001 3c-6.66699 26.667 -10 46.167 -10 58.5s1.33301 32.5 4 60.5c22 6 43.167 9 63.5 9s43.5 -1 69.5 -3zM228.002 743
c12.667 0 20.667 -0.333984 24 -1.00098c0 -34.667 -4.33301 -65 -13 -91c-0.666992 -41.333 -1.66699 -99.666 -3 -174.999l-6 -380l78 -9c0 -27.333 -7.66699 -56.333 -23 -87h-249l-9 55c41.333 15.333 71.333 25.333 90 30l-19 555
c-31.333 3.33301 -57.666 8.33301 -78.999 15c0 24.667 2.33301 48.667 7 72c39.333 10.667 106.666 16 201.999 16z" />
    <glyph glyph-name="Lslash" unicode="&#x141;" horiz-adv-x="592" 
d="M156 364l-4.00098 248.999l-83 26l8 61h259c10.667 -18 17 -44.333 19 -79c-34 -5.33301 -56.333 -8.66602 -67 -9.99902c0 -15.333 -0.333008 -37 -1 -65c-1.33301 -54.667 -2 -101 -2 -139c14.667 5.33301 38.334 12.333 71.001 21
c14.667 -30.667 23.667 -58.334 27 -83.001c-36 -17.333 -69 -30.666 -99 -39.999c-0.666992 -46.667 -1 -116.334 -1 -209.001h162l22 86c16 2.66699 28.167 4 36.5 4s26.5 -2.33301 54.5 -7c2.66699 -5.33301 6.5 -22.333 11.5 -51s7.5 -51.834 7.5 -69.501
s-2 -37.167 -6 -58.5h-485l-9 55c32.667 13.333 60.667 23 84 29c0 66 -1 126 -3 180l-65 -21c-13.333 22.667 -23.333 49.334 -30 80.001c33.333 16.667 64.333 30.334 93 41.001z" />
    <glyph glyph-name="lslash" unicode="&#x142;" horiz-adv-x="303" 
d="M223 743c12.667 0 20.6689 -0.333984 24.002 -1.00098c0 -34.667 -4.33301 -65 -13 -91c-2.66699 -109.333 -4.33398 -191.333 -5.00098 -246l72 23c14 -30.667 23 -58.334 27 -83.001c-38 -18 -71.667 -31.667 -101 -41c-1.33301 -93.333 -2 -162.666 -2 -207.999l78 -9
c0 -27.333 -7.66699 -56.333 -23 -87h-249l-9 55c41.333 15.333 71.333 25.333 90 30l-6 180l-68 -22c-13.333 22.667 -23.333 49.334 -30 80.001c33.333 16.667 64.666 30.667 93.999 42l-9 275c-31.333 3.33301 -57.666 8.33301 -78.999 15c0 16.667 2.33301 40.667 7 72
c39.333 10.667 106.666 16 201.999 16z" />
    <glyph glyph-name="Nacute" unicode="&#x143;" horiz-adv-x="785" 
d="M710 611l-2.99902 -611.002h-128l-330 538c-2.66699 -195.333 -4.33398 -342.666 -5.00098 -441.999l69 -9c0 -27.333 -7.66699 -56.333 -23 -87h-243l-9 55c37.333 15.333 65.333 25 84 29c0 2 -3 178.333 -9 529l-83 26l8 61h260l291 -522l-15 435l-83 26l8 61h260
c-0.666992 0 -0.5 -0.666992 0.5 -2s2.33301 -4.16602 4 -8.49902s3.5 -9.5 5.5 -15.5c4 -10.667 6.66699 -28.334 8 -53.001c-34 -5.33301 -56.333 -8.66602 -67 -9.99902zM380.001 807.998l157.999 131c39.333 -31.333 60.333 -60.333 63 -87
c-17.333 -16.667 -39.166 -34 -65.499 -52s-57.5 -36.333 -93.5 -55c-21.333 16 -42 37 -62 63z" />
    <glyph glyph-name="nacute" unicode="&#x144;" horiz-adv-x="616" 
d="M509 471c30 -32.667 45 -78.333 45 -137s-3.33301 -138 -10 -238l79 -9c0 -27.333 -7.66699 -56.333 -23 -87h-249l-9 55c31.333 12.667 60.333 22.667 87 30c-2 76.667 -4 141.167 -6 193.5s-7 87.833 -15 106.5s-25.667 28 -53 28c-41.333 0 -78.333 -7.33301 -111 -22
c-0.666992 -28.667 -2.5 -75.5 -5.5 -140.5s-4.83301 -116.5 -5.5 -154.5l78 -9c0 -27.333 -7.66699 -56.333 -23 -87h-249l-9 55c33.333 12.667 63.333 22.667 90 30c-0.666992 40 -2.83398 95.333 -6.50098 166s-5.83398 123 -6.50098 157
c-24.667 2.66699 -51 7.66699 -79 15l5 72c46.667 12.667 99.334 19 158.001 19c7.33301 -4.66699 17.333 -19 30 -43c22.667 11.333 50.334 22.333 83.001 33s52.667 16 60 16c66.667 0 115 -16.333 145 -49zM228 620.001l157.999 131
c39.333 -31.333 60.333 -60.333 63 -87c-17.333 -16.667 -39.166 -34 -65.499 -52s-57.5 -36.333 -93.5 -55c-21.333 16 -42 37 -62 63z" />
    <glyph glyph-name="Eng" unicode="&#x14a;" horiz-adv-x="785" 
d="M710 611l-3.00195 -609.004c0 -89.333 -14.333 -152.666 -43 -189.999c-11.333 -15.333 -27.666 -28.166 -48.999 -38.499s-48.833 -15.5 -82.5 -15.5s-69.667 6 -108 18s-65.833 26 -82.5 42c0.666992 48.667 6 104 16 166c26.667 7.33301 59.334 11 98.001 11l19 -127
c10.667 -2.66699 26.334 -4 47.001 -4c42 0 63 32 63 96v30l-336 548c-2.66699 -195.333 -4.33398 -342.666 -5.00098 -441.999l69 -9c0 -27.333 -7.66699 -56.333 -23 -87h-243l-9 55c37.333 15.333 65.333 25 84 29c0 2 -3 178.333 -9 529l-83 26l8 61h260l291 -522
l-15 435l-83 26l8 61h259c10.667 -18 17 -44.333 19 -79c-34 -5.33301 -56.333 -8.66602 -67 -9.99902z" />
    <glyph glyph-name="eng" unicode="&#x14b;" horiz-adv-x="616" 
d="M346 -150l21.002 -0.998047c22 0 38.167 11.5 48.5 34.5s15.5 51.5 15.5 85.5c0 78 -3 186 -9 324c-2 43.333 -6.83301 74.166 -14.5 92.499s-25.167 27.5 -52.5 27.5c-41.333 0 -78.333 -7.33301 -111 -22c-0.666992 -28.667 -2.5 -75.5 -5.5 -140.5
s-4.83301 -116.5 -5.5 -154.5l78 -9c0 -27.333 -7.66699 -56.333 -23 -87h-249l-9 55c33.333 12.667 63.333 22.667 90 30c-0.666992 40 -2.83398 95.333 -6.50098 166s-5.83398 123 -6.50098 157c-24.667 2.66699 -51 7.66699 -79 15l5 72
c46.667 12.667 99.334 19 158.001 19c7.33301 -4.66699 17.333 -19 30 -43c22.667 11.333 50.334 22.333 83.001 33s52.667 16 60 16c66.667 0 115 -16.333 145 -49s45 -81.667 45 -147c0 -14.667 -4.33301 -127 -13 -337c-2 -40 -5.33301 -72.333 -10 -97
s-13 -47.667 -25 -69c-22.667 -40.667 -70.334 -61 -143.001 -61c-22.667 0 -50.834 5.16699 -84.501 15.5s-57.5 20.166 -71.5 29.499c3.33301 64 10.333 112 21 144c14.667 6 35 9 61 9l33 -1z" />
    <glyph glyph-name="Omacron" unicode="&#x14c;" horiz-adv-x="647" 
d="M330 94c110.667 0 166 84.999 166 254.999s-55.333 255 -166 255c-48 0 -90 -7.33301 -126 -22c-30.667 -64 -46 -138.167 -46 -222.5s12.667 -149.666 38 -195.999s70 -69.5 134 -69.5zM330 711.999c111.333 0 189.667 -29.168 235 -87.501s68 -147.5 68 -267.5
c0 -75.333 -9.66699 -139.666 -29 -192.999s-52 -96 -98 -128s-104.667 -48 -176 -48c-108.667 0 -187.5 30.333 -236.5 91s-73.5 149 -73.5 265c0 245.333 103.333 368 310 368zM208.001 888.998c46 4.66699 86.5 7.00098 121.5 7.00098s77.167 -2.33301 126.5 -7
c1.33301 -6 2 -19 2 -39l-3 -48c-46 -4 -83.667 -6 -113 -6l-133 5c-3.33301 15.333 -5 28.666 -5 39.999z" />
    <glyph glyph-name="omacron" unicode="&#x14d;" horiz-adv-x="538" 
d="M295 440c-24 0 -51.334 -5.99805 -82.001 -17.998c-8.66699 -13.333 -16.834 -36.833 -24.501 -70.5s-11.5 -67.5 -11.5 -101.5c0 -62.667 9.33301 -107.167 28 -133.5s48.834 -39.5 90.501 -39.5s71.834 13.167 90.501 39.5s28 71.666 28 135.999
s-9.5 111.666 -28.5 141.999s-49.167 45.5 -90.5 45.5zM483.499 448.502c47.667 -47.667 71.5 -114 71.5 -199s-23.667 -149.833 -71 -194.5s-110.333 -67 -189 -67s-141.5 22.333 -188.5 67s-70.5 109.5 -70.5 194.5s23.667 151.333 71 199s110 71.5 188 71.5
s140.833 -23.833 188.5 -71.5zM169.999 697.002c46 4.66699 86.5 7.00098 121.5 7.00098s77.167 -2.33301 126.5 -7c1.33301 -6 2 -19 2 -39l-3 -48c-46 -4 -83.667 -6 -113 -6l-133 5c-3.33301 15.333 -5 28.666 -5 39.999z" />
    <glyph glyph-name="Obreve" unicode="&#x14e;" horiz-adv-x="647" 
d="M330 94c110.667 0 166 84.999 166 254.999s-55.333 255 -166 255c-48 0 -90 -7.33301 -126 -22c-30.667 -64 -46 -138.167 -46 -222.5s12.667 -149.666 38 -195.999s70 -69.5 134 -69.5zM330 711.999c111.333 0 189.667 -29.168 235 -87.501s68 -147.5 68 -267.5
c0 -75.333 -9.66699 -139.666 -29 -192.999s-52 -96 -98 -128s-104.667 -48 -176 -48c-108.667 0 -187.5 30.333 -236.5 91s-73.5 149 -73.5 265c0 245.333 103.333 368 310 368zM480.001 927.998c0 -42.667 -14.333 -80.3311 -43 -112.998s-66.834 -49 -114.501 -49
s-85 16.167 -112 48.5s-40.5 70.166 -40.5 113.499h82c0 -18.667 5.83301 -34.834 17.5 -48.501s29.834 -20.5 54.501 -20.5c42 0 63 23 63 69h93z" />
    <glyph glyph-name="obreve" unicode="&#x14f;" horiz-adv-x="538" 
d="M295 440c-24 0 -51.334 -5.99805 -82.001 -17.998c-8.66699 -13.333 -16.834 -36.833 -24.501 -70.5s-11.5 -67.5 -11.5 -101.5c0 -62.667 9.33301 -107.167 28 -133.5s48.834 -39.5 90.501 -39.5s71.834 13.167 90.501 39.5s28 71.666 28 135.999
s-9.5 111.666 -28.5 141.999s-49.167 45.5 -90.5 45.5zM483.499 448.502c47.667 -47.667 71.5 -114 71.5 -199s-23.667 -149.833 -71 -194.5s-110.333 -67 -189 -67s-141.5 22.333 -188.5 67s-70.5 109.5 -70.5 194.5s23.667 151.333 71 199s110 71.5 188 71.5
s140.833 -23.833 188.5 -71.5z" />
    <glyph glyph-name="OE" unicode="&#x152;" horiz-adv-x="888" 
d="M710 184l36 1.00098l58 -7c10.667 -43.333 16 -79.166 16 -107.499s-1.33301 -51.833 -4 -70.5h-395c-24 -2.66699 -54.667 -4 -92 -4c-102.667 0 -179.834 27.667 -231.501 83s-77.5 142.166 -77.5 260.499s24 208 72 269s125.333 91.5 232 91.5h478
c2.66699 -18.667 4 -36.667 4 -54c0 -36 -5.33301 -78.667 -16 -128c-20.667 -4.66699 -40 -7 -58 -7l-36 1l-22 89h-149c-1.33301 -54.667 -2.66602 -120.334 -3.99902 -197.001h102l10 69c33.333 0 66 -8.33301 98 -25v-204h-65c-16 24.667 -25.667 46 -29 64h-117
l-3 -212h171zM387 596.001c-19.333 5.33301 -39 8.00098 -59 8.00098c-42.667 0 -83.667 -7 -123 -21c-30 -54.667 -45 -134.334 -45 -239.001c0 -166 56.333 -249 169 -249c22 0 44.333 4 67 12z" />
    <glyph glyph-name="oe" unicode="&#x153;" horiz-adv-x="884" 
d="M644 87c25.333 0 71.9961 15.333 139.996 46c21.333 -29.333 32.333 -54 33 -74c-36.667 -22.667 -72.667 -40.167 -108 -52.5s-60.666 -18.5 -75.999 -18.5c-77.333 0 -137.666 22.333 -180.999 67c-39.333 -44.667 -96.666 -67 -171.999 -67
c-162.667 0 -244 88.667 -244 266s81.333 266 244 266c80 0 139 -21 177 -63c40.667 42 96.667 63 168 63s123.833 -22 157.5 -66s50.834 -101 51.501 -171c-8 -16 -16.333 -28.667 -25 -38l-286 5c1.33301 -54 10.833 -94.667 28.5 -122s48.5 -41 92.5 -41zM200.996 125
c15.333 -31.333 44 -47 86 -47s70.667 15.333 86 46s23 74.5 23 131.5s-7.5 101.5 -22.5 133.5s-42.833 48 -83.5 48c-28 0 -54.333 -5 -79 -15c-22 -44.667 -33 -97.5 -33 -158.5s7.66699 -107.167 23 -138.5zM625.996 437c-25.333 0 -49 -4.99902 -71 -14.999
c-14 -29.333 -23.667 -59 -29 -89c51.333 1.33301 110.333 2.66602 177 3.99902c-3.33301 66.667 -29 100 -77 100z" />
    <glyph glyph-name="Racute" unicode="&#x154;" horiz-adv-x="656" 
d="M281 700c116.667 0 194 -16.666 232 -49.999c34.667 -30 52 -76.333 52 -139c0 -97.333 -50.667 -163.666 -152 -198.999l144 -217l86 -9c0 -28.667 -7.66699 -57.334 -23 -86.001h-145l-196 299h-32l-3 -204l73 -8c0 -27.333 -7.66699 -56.333 -23 -87h-247l-9 55
c40 16 68 25.667 84 29l-5 297l-4 233l-83 25c0.666992 15.333 3.66699 35.666 9 60.999h242zM360 593.001c-20.667 4.66699 -48.333 6.99902 -83 6.99902h-28c-1.33301 -92 -2 -161 -2 -207l49 1c39.333 0.666992 70.5 8.83398 93.5 24.501s34.5 46.167 34.5 91.5
s-21.333 73 -64 83zM229.001 808l157.999 131c39.333 -31.333 60.333 -60.333 63 -87c-17.333 -16.667 -39.166 -34 -65.499 -52s-57.5 -36.333 -93.5 -55c-21.333 16 -42 37 -62 63z" />
    <glyph glyph-name="racute" unicode="&#x155;" horiz-adv-x="449" 
d="M326 412c-1.33301 3.33301 -8 5.00195 -20 5.00195s-32.667 -9 -62 -27c-2.66699 -130.667 -4.33398 -228.667 -5.00098 -294l78 -10c0 -28.667 -7.66699 -57.334 -23 -86.001h-249l-9 55c41.333 15.333 71.333 25.333 90 30l-11 324
c-34.667 2.66699 -63.667 7.66699 -87 15l7 72c18 8 83 13.333 195 16c6 -6 9 -17.667 9 -35c58.667 28.667 95.834 43 111.501 43s35 -3.83301 58 -11.5s40.5 -15.834 52.5 -24.501v-17c0 -54.667 -6.66699 -105.334 -20 -152.001c-11.333 -4.66699 -26.333 -7 -45 -7
s-36 1 -52 3c-2 8.66699 -8 42.334 -18 101.001zM140 616.002l157.999 131c39.333 -31.333 60.333 -60.333 63 -87c-17.333 -16.667 -39.166 -34 -65.499 -52s-57.5 -36.333 -93.5 -55c-21.333 16 -42 37 -62 63z" />
    <glyph glyph-name="Rcommaaccent" unicode="&#x156;" horiz-adv-x="656" 
d="M385 -83c5.33301 -20 7.99805 -42.499 7.99805 -67.499s-11 -52.833 -33 -83.5s-42.333 -51.667 -61 -63c-20.667 9.33301 -37.667 20.666 -51 33.999c7.33301 20.667 22 44.667 44 72l-17 3c-4.66699 14 -7 30.5 -7 49.5s0.666992 36.167 2 51.5
c26.667 5.33301 46.834 8 60.501 8s31.834 -1.33301 54.501 -4zM280.998 700.001c116.667 0 194 -16.666 232 -49.999c34.667 -30 52 -76.333 52 -139c0 -97.333 -50.667 -163.666 -152 -198.999l144 -217l86 -9c0 -28.667 -7.66699 -57.334 -23 -86.001h-145l-196 299h-32
l-3 -204l73 -8c0 -27.333 -7.66699 -56.333 -23 -87h-247l-9 55c40 16 68 25.667 84 29l-5 297l-4 233l-83 25c0.666992 15.333 3.66699 35.666 9 60.999h242zM359.998 593.002c-20.667 4.66699 -48.333 6.99902 -83 6.99902h-28c-1.33301 -92 -2 -161 -2 -207l49 1
c39.333 0.666992 70.5 8.83398 93.5 24.501s34.5 46.167 34.5 91.5s-21.333 73 -64 83z" />
    <glyph glyph-name="rcommaaccent" unicode="&#x157;" horiz-adv-x="449" 
d="M240 -83c5.33301 -20 8 -42.499 8 -67.499s-11 -52.833 -33 -83.5s-42.333 -51.667 -61 -63c-20.667 9.33301 -37.667 20.666 -51 33.999c7.33301 20.667 22 44.667 44 72l-17 3c-4.66699 14 -7 30.5 -7 49.5s0.666992 36.167 2 51.5c26.667 5.33301 46.5 8 59.5 8
s31.5 -1.33301 55.5 -4zM326 412.001c-1.33301 3.33301 -8 5.00195 -20 5.00195s-32.667 -9 -62 -27c-2.66699 -130.667 -4.33398 -228.667 -5.00098 -294l78 -10c0 -28.667 -7.66699 -57.334 -23 -86.001h-249l-9 55c41.333 15.333 71.333 25.333 90 30l-11 324
c-34.667 2.66699 -63.667 7.66699 -87 15l7 72c18 8 83 13.333 195 16c6 -6 9 -17.667 9 -35c58.667 28.667 95.834 43 111.501 43s35 -3.83301 58 -11.5s40.5 -15.834 52.5 -24.501v-17c0 -54.667 -6.66699 -105.334 -20 -152.001c-11.333 -4.66699 -26.333 -7 -45 -7
s-36 1 -52 3c-2 8.66699 -8 42.334 -18 101.001z" />
    <glyph glyph-name="Rcaron" unicode="&#x158;" horiz-adv-x="656" 
 />
    <glyph glyph-name="rcaron" unicode="&#x159;" horiz-adv-x="449" 
d="M407 680l-159.002 -130.001l-158 130c10.667 16 28.334 36 53.001 60c6.66699 -4 11.667 -6.66699 15 -8c38.667 -18 68.667 -35.333 90 -52c26 18.667 48.333 32.334 67 41.001s31.334 15 38.001 19c26 -24 44 -44 54 -60zM325.998 411.999
c-1.33301 3.33301 -8 5.00195 -20 5.00195s-32.667 -9 -62 -27c-2.66699 -130.667 -4.33398 -228.667 -5.00098 -294l78 -10c0 -28.667 -7.66699 -57.334 -23 -86.001h-249l-9 55c41.333 15.333 71.333 25.333 90 30l-11 324c-34.667 2.66699 -63.667 7.66699 -87 15l7 72
c18 8 83 13.333 195 16c6 -6 9 -17.667 9 -35c58.667 28.667 95.834 43 111.501 43s35 -3.83301 58 -11.5s40.5 -15.834 52.5 -24.501v-17c0 -54.667 -6.66699 -105.334 -20 -152.001c-11.333 -4.66699 -26.333 -7 -45 -7s-36 1 -52 3c-2 8.66699 -8 42.334 -18 101.001z
" />
    <glyph glyph-name="Scaron" unicode="&#x160;" horiz-adv-x="573" 
d="M294 96c77.333 0 116 32.999 116 98.999c0 28 -14.667 51.667 -44 71c-21.333 14.667 -50.5 30.5 -87.5 47.5s-64.667 30.5 -83 40.5s-39.5 24 -63.5 42c-46 35.333 -69 79.333 -69 132s20.5 96.5 61.5 131.5s96.5 52.5 166.5 52.5s144.667 -22.333 224 -67
c0 -48 -5 -100 -15 -156c-21.333 -6.66699 -53 -10 -95 -10l-29 119c-24.667 7.33301 -51.667 11 -81 11s-52 -6.33301 -68 -19s-24 -31.5 -24 -56.5s12.5 -47.333 37.5 -67s55.167 -37.667 90.5 -54s59.666 -27.833 72.999 -34.5s30.333 -16.667 51 -30
s36.334 -26 47.001 -38c27.333 -32 41 -67.667 41 -107c0 -69.333 -23 -122.666 -69 -159.999s-106 -56 -180 -56c-39.333 0 -82.5 6.83301 -129.5 20.5s-86.833 31.167 -119.5 52.5c1.33301 40.667 6.66602 95.667 15.999 165c26.667 5.33301 58.667 8 96 8l21 -120
c36.667 -11.333 75.334 -17 116.001 -17zM203 939.999c48.667 -24.667 83.667 -44.999 105 -60.999c12 9.33301 47 29.666 105 60.999c25.333 -24 43 -44 53 -60l-158 -131l-159 131c9.33301 14.667 27.333 34.667 54 60z" />
    <glyph glyph-name="scaron" unicode="&#x161;" horiz-adv-x="452" 
d="M399 477l1.00391 -30.9961c0 -52 -4 -86 -12 -102c-22 -8 -52.667 -12 -92 -12l-32 101c-8.66699 3.33301 -20.667 5 -36 5s-27.833 -4.66699 -37.5 -14s-14.5 -20.333 -14.5 -33s5 -24.167 15 -34.5s20.333 -18.5 31 -24.5s26.167 -13.833 46.5 -23.5
s35.666 -17.167 45.999 -22.5s23.666 -13.333 39.999 -24s28.833 -20.667 37.5 -30c21.333 -25.333 32 -53 32 -83c0 -51.333 -19.5 -91 -58.5 -119s-86.833 -42 -143.5 -42c-30 0 -62.833 5.33301 -98.5 16s-65.834 25 -90.501 43c0 48 4.66699 92.667 14 134
c26.667 3.33301 48.334 5 65.001 5s28 -0.333008 34 -1l12 -97c16.667 -6 36.667 -9 60 -9s41.833 4.66699 55.5 14s20.5 22.5 20.5 39.5s-7.66699 31.167 -23 42.5s-36.333 23.166 -63 35.499s-47.334 22.666 -62.001 30.999s-30.334 19.166 -47.001 32.499
c-34 26 -51 58 -51 96c0 47.333 16.5 84.166 49.5 110.499s77.5 39.5 133.5 39.5s112 -14.333 168 -43z" />
    <glyph glyph-name="Umacron" unicode="&#x16a;" horiz-adv-x="754" 
d="M574 363l-4.00098 249.996l-83 26l8 61h260c-0.666992 0 -0.5 -0.666992 0.5 -2s2.33301 -4.16602 4 -8.49902s3.5 -9.5 5.5 -15.5c4 -10.667 6.66699 -28.334 8 -53.001c-34 -5.33301 -56.333 -8.66602 -67 -9.99902l-2 -254
c-1.33301 -127.333 -24.5 -220.666 -69.5 -279.999s-121.833 -89 -230.5 -89s-184.334 27.667 -227.001 83s-64.667 144.833 -66 268.5s-2.66602 214.834 -3.99902 273.501l-83 26l8 61h260c-0.666992 0 -0.5 -0.666992 0.5 -2s2.33301 -4.16602 4 -8.49902
s3.5 -9.5 5.5 -15.5c4 -10.667 6.66699 -28.334 8 -53.001c-34 -5.33301 -56.333 -8.66602 -67 -9.99902l-3 -254c0 -74 4 -126.5 12 -157.5s18 -52.833 30 -65.5c26 -26.667 67.333 -40 124 -40c54.667 0 96 15.333 124 46c22.667 24.667 36.334 68 41.001 130
c2 24.667 3 55.667 3 93zM296.999 888.996c46 4.66699 86.667 7.00098 122 7.00098s77.333 -2.33301 126 -7c1.33301 -6 2 -19 2 -39l-3 -48c-46 -4 -83.667 -6 -113 -6l-133 5c-3.33301 15.333 -5 28.666 -5 39.999z" />
    <glyph glyph-name="umacron" unicode="&#x16b;" 
d="M509 512c12.667 0 20.668 -0.332031 24.001 -0.999023c0 -34 -5.66699 -63.333 -17 -88c-4 -146.667 -7.33301 -255 -10 -325c30 -2.66699 56.333 -7.66699 79 -15l-2 -70c-40.667 -12.667 -75.667 -19 -105 -19s-49.333 0.666992 -60 2c-8 16 -14.667 32 -20 48
c-55.333 -37.333 -95.333 -56 -120 -56c-119.333 0 -179 60.333 -179 181c0 32.667 2.66699 113 8 241c-35.333 0 -67.666 4.66699 -96.999 14c0 16.667 2.33301 40.667 7 72c39.333 10.667 106.666 16 201.999 16c12.667 0 20.667 -0.333008 24 -1
c0 -32.667 -5.66699 -63 -17 -91v-202c0 -42.667 4.5 -73.834 13.5 -93.501s28.333 -29.5 58 -29.5s60.167 10.333 91.5 31l-6 284c-29.333 1.33301 -57 6 -83 14c0 16.667 2.33301 40.667 7 72c39.333 10.667 106.666 16 201.999 16zM193.001 697.001
c46 4.66699 86.5 7.00098 121.5 7.00098s77.167 -2.33301 126.5 -7c1.33301 -6 2 -19 2 -39l-3 -48c-46 -4 -83.667 -6 -113 -6l-133 5c-3.33301 15.333 -5 28.666 -5 39.999z" />
    <glyph glyph-name="Ubreve" unicode="&#x16c;" horiz-adv-x="754" 
d="M574 363l-4.00098 249.996l-83 26l8 61h260c-0.666992 0 -0.5 -0.666992 0.5 -2s2.33301 -4.16602 4 -8.49902s3.5 -9.5 5.5 -15.5c4 -10.667 6.66699 -28.334 8 -53.001c-34 -5.33301 -56.333 -8.66602 -67 -9.99902l-2 -254
c-1.33301 -127.333 -24.5 -220.666 -69.5 -279.999s-121.833 -89 -230.5 -89s-184.334 27.667 -227.001 83s-64.667 144.833 -66 268.5s-2.66602 214.834 -3.99902 273.501l-83 26l8 61h260c-0.666992 0 -0.5 -0.666992 0.5 -2s2.33301 -4.16602 4 -8.49902
s3.5 -9.5 5.5 -15.5c4 -10.667 6.66699 -28.334 8 -53.001c-34 -5.33301 -56.333 -8.66602 -67 -9.99902l-3 -254c0 -74 4 -126.5 12 -157.5s18 -52.833 30 -65.5c26 -26.667 67.333 -40 124 -40c54.667 0 96 15.333 124 46c22.667 24.667 36.334 68 41.001 130
c2 24.667 3 55.667 3 93zM550.999 927.996c0 -42.667 -14.333 -80.3311 -43 -112.998s-66.834 -49 -114.501 -49s-85 16.167 -112 48.5s-40.5 70.166 -40.5 113.499h82c0 -18.667 5.83301 -34.834 17.5 -48.501s29.834 -20.5 54.501 -20.5c42 0 63 23 63 69h93z" />
    <glyph glyph-name="ubreve" unicode="&#x16d;" 
d="M509 512c12.667 0 20.668 -0.332031 24.001 -0.999023c0 -34 -5.66699 -63.333 -17 -88c-4 -146.667 -7.33301 -255 -10 -325c30 -2.66699 56.333 -7.66699 79 -15l-2 -70c-40.667 -12.667 -75.667 -19 -105 -19s-49.333 0.666992 -60 2c-8 16 -14.667 32 -20 48
c-55.333 -37.333 -95.333 -56 -120 -56c-119.333 0 -179 60.333 -179 181c0 32.667 2.66699 113 8 241c-35.333 0 -67.666 4.66699 -96.999 14c0 16.667 2.33301 40.667 7 72c39.333 10.667 106.666 16 201.999 16c12.667 0 20.667 -0.333008 24 -1
c0 -32.667 -5.66699 -63 -17 -91v-202c0 -42.667 4.5 -73.834 13.5 -93.501s28.333 -29.5 58 -29.5s60.167 10.333 91.5 31l-6 284c-29.333 1.33301 -57 6 -83 14c0 16.667 2.33301 40.667 7 72c39.333 10.667 106.666 16 201.999 16z" />
    <glyph glyph-name="Uring" unicode="&#x16e;" horiz-adv-x="754" 
d="M574 363l-4.00098 249.996l-83 26l8 61h260c-0.666992 0 -0.5 -0.666992 0.5 -2s2.33301 -4.16602 4 -8.49902s3.5 -9.5 5.5 -15.5c4 -10.667 6.66699 -28.334 8 -53.001c-34 -5.33301 -56.333 -8.66602 -67 -9.99902l-2 -254
c-1.33301 -127.333 -24.5 -220.666 -69.5 -279.999s-121.833 -89 -230.5 -89s-184.334 27.667 -227.001 83s-64.667 144.833 -66 268.5s-2.66602 214.834 -3.99902 273.501l-83 26l8 61h260c-0.666992 0 -0.5 -0.666992 0.5 -2s2.33301 -4.16602 4 -8.49902
s3.5 -9.5 5.5 -15.5c4 -10.667 6.66699 -28.334 8 -53.001c-34 -5.33301 -56.333 -8.66602 -67 -9.99902l-3 -254c0 -74 4 -126.5 12 -157.5s18 -52.833 30 -65.5c26 -26.667 67.333 -40 124 -40c54.667 0 96 15.333 124 46c22.667 24.667 36.334 68 41.001 130
c2 24.667 3 55.667 3 93zM360.999 898.496c-7.33301 -8.33301 -11 -19.666 -11 -33.999s3.66699 -25.5 11 -33.5s17.166 -12 29.499 -12s22.166 4 29.499 12s11 19.167 11 33.5s-3.66699 25.666 -11 33.999s-17.166 12.5 -29.499 12.5s-22.166 -4.16699 -29.499 -12.5z
M482.499 949.996c25.667 -21.333 38.501 -50.167 38.501 -86.5s-12.667 -64.333 -38 -84s-56 -29.5 -92 -29.5s-67 10 -93 30s-39 48 -39 84s13.167 64.667 39.5 86s57.166 32 92.499 32s65.833 -10.667 91.5 -32z" />
    <glyph glyph-name="uring" unicode="&#x16f;" 
d="M509 512c12.667 0 20.668 -0.332031 24.001 -0.999023c0 -34 -5.66699 -63.333 -17 -88c-4 -146.667 -7.33301 -255 -10 -325c30 -2.66699 56.333 -7.66699 79 -15l-2 -70c-40.667 -12.667 -75.667 -19 -105 -19s-49.333 0.666992 -60 2c-8 16 -14.667 32 -20 48
c-55.333 -37.333 -95.333 -56 -120 -56c-119.333 0 -179 60.333 -179 181c0 32.667 2.66699 113 8 241c-35.333 0 -67.666 4.66699 -96.999 14c0 16.667 2.33301 40.667 7 72c39.333 10.667 106.666 16 201.999 16c12.667 0 20.667 -0.333008 24 -1
c0 -32.667 -5.66699 -63 -17 -91v-202c0 -42.667 4.5 -73.834 13.5 -93.501s28.333 -29.5 58 -29.5s60.167 10.333 91.5 31l-6 284c-29.333 1.33301 -57 6 -83 14c0 16.667 2.33301 40.667 7 72c39.333 10.667 106.666 16 201.999 16z" />
    <glyph glyph-name="Ydieresis" unicode="&#x178;" horiz-adv-x="678" 
d="M408 262l-0.999023 -166.001l69 -9c0 -27.333 -7.66699 -56.333 -23 -87h-243l-9 55c46 18 74 27.667 84 29c0 39.333 -0.666992 98.333 -2 177l-189 351l-88 27l8 61h260c12 -22 18 -48.333 18 -79c-15.333 -2.66699 -35 -5.66699 -59 -9l107 -241h9l114 242
c-22.667 4.66699 -50.334 13.334 -83.001 26.001l7 61h261c11.333 -16.667 17.333 -43 18 -79c-26 -5.33301 -52 -9 -78 -11zM318.001 874.999c5.33301 -22.667 8 -40.834 8 -54.501s-1 -29.5 -3 -47.5c-20 -5.33301 -38.5 -8 -55.5 -8s-36.5 1 -58.5 3
c-5.33301 22.667 -8 40.834 -8 54.501s1 29.5 3 47.5c20 5.33301 38.5 8 55.5 8s36.5 -1 58.5 -3zM481.001 874.999c5.33301 -22.667 8 -40.834 8 -54.501s-1 -29.5 -3 -47.5c-20 -5.33301 -38.5 -8 -55.5 -8s-36.5 1 -58.5 3c-5.33301 22.667 -8 40.834 -8 54.501
s1 29.5 3 47.5c20 5.33301 38.5 8 55.5 8s36.5 -1 58.5 -3z" />
    <glyph glyph-name="Zcaron" unicode="&#x17d;" horiz-adv-x="596" 
d="M182 494l-30.999 -0.999023c-18.667 0 -38 4 -58 12c-12 52 -18 92.667 -18 122s1.33301 53.666 4 72.999h459c16 -21.333 26.667 -47.666 32 -78.999l-352 -525h217l22 107l32 1c18.667 0 38 -4 58 -12c11.333 -50 17 -89.333 17 -118s-1.33301 -53.334 -4 -74.001h-483
c-16.667 21.333 -27.334 47 -32.001 77l351 524h-190zM229.001 938.001c48.667 -24.667 83.667 -44.999 105 -60.999c12 9.33301 47 29.666 105 60.999c25.333 -24 43 -44 53 -60l-158 -131l-159 131c9.33301 14.667 27.333 34.667 54 60z" />
    <glyph glyph-name="zcaron" unicode="&#x17e;" horiz-adv-x="485" 
d="M442 183c10.667 -38 15.998 -71 15.998 -99s-1.33301 -56 -4 -84h-388c-13.333 19.333 -20.666 43 -21.999 71l254 351h-103l-22 -99c-5.33301 -0.666992 -17.166 -1 -35.499 -1s-38.166 2.33301 -59.499 7c-9.33301 48 -14 85.333 -14 112s1 49 3 67h367
c9.33301 -18.667 14 -43 14 -73l-243 -345h121l22 99c41.333 0 72.666 -2 93.999 -6z" />
    <glyph glyph-name="florin" unicode="&#x192;" horiz-adv-x="542" 
d="M318 443c41.333 0 73.6689 -2.33008 97.002 -6.99707c0 -28 -5.66699 -58 -17 -90h-106l-17 -363c-6 -141.333 -69 -212 -189 -212c-62 0 -114 19.333 -156 58c5.33301 51.333 15.333 92.666 30 123.999l7 15c12.667 2 29.667 3 51 3h17l14 -99
c20.667 -7.33301 36.5 -11 47.5 -11s20.167 3.33301 27.5 10s12.666 17.667 15.999 33c6 23.333 9.66699 55.666 11 96.999l16 345h-83l-3 65c33.333 14 62.666 23 87.999 27l6 99c2.66699 50.667 17 97 43 139c14 22 34.5 39.667 61.5 53s58.833 20 95.5 20
c64.667 0 120.334 -19 167.001 -57c-4 -26 -10 -50.667 -18 -74s-18 -45 -30 -65c-10 -2 -23.667 -3 -41 -3h-17l-13 99c-0.666992 0 -4.33398 1 -11.001 3c-22.667 5.33301 -38 8 -46 8c-25.333 0 -41.333 -8.66699 -48 -26c-8 -20.667 -15.667 -84.334 -23 -191.001h23z
" />
    <glyph glyph-name="circumflex" unicode="&#x2c6;" horiz-adv-x="458" 
d="M359 555c-48.667 24.667 -83.667 44.999 -105 60.999c-12 -9.33301 -47 -29.666 -105 -60.999c-25.333 24 -43 44 -53 60l158 131l159 -131c-9.33301 -14.667 -27.333 -34.667 -54 -60z" />
    <glyph glyph-name="caron" unicode="&#x2c7;" horiz-adv-x="458" 
d="M135 746c48.667 -24.667 83.667 -44.999 105 -60.999c12 9.33301 47 29.666 105 60.999c25.333 -24 43 -44 53 -60l-158 -131l-159 131c9.33301 14.667 27.333 34.667 54 60z" />
    <glyph glyph-name="breve" unicode="&#x2d8;" horiz-adv-x="458" 
d="M355 737c0 -42.667 -14.333 -80.3311 -43 -112.998s-66.834 -49 -114.501 -49s-85 16.167 -112 48.5s-40.5 70.166 -40.5 113.499h82c0 -18.667 5.83301 -34.834 17.5 -48.501s29.834 -20.5 54.501 -20.5c42 0 63 23 63 69h93z" />
    <glyph glyph-name="dotaccent" unicode="&#x2d9;" horiz-adv-x="154" 
d="M142 731c6 -30 9 -52.833 9 -68.5s-1.33301 -33.167 -4 -52.5c-26.667 -6 -49.167 -9 -67.5 -9s-40.5 1 -66.5 3c-6 30 -9 52.833 -9 68.5s1.33301 33.167 4 52.5c26.667 6 49.167 9 67.5 9s40.5 -1 66.5 -3z" />
    <glyph glyph-name="ring" unicode="&#x2da;" horiz-adv-x="472" 
d="M203 719.5c-7.33301 -8.33301 -11 -19.666 -11 -33.999s3.66699 -25.5 11 -33.5s17.166 -12 29.499 -12s22.166 4 29.499 12s11 19.167 11 33.5s-3.66699 25.666 -11 33.999s-17.166 12.5 -29.499 12.5s-22.166 -4.16699 -29.499 -12.5zM324.5 771
c25.667 -21.333 38.501 -50.167 38.501 -86.5s-12.667 -64.333 -38 -84s-56 -29.5 -92 -29.5s-67 10 -93 30s-39 48 -39 84s13.167 64.667 39.5 86s57.166 32 92.499 32s65.833 -10.667 91.5 -32z" />
    <glyph glyph-name="ogonek" unicode="&#x2db;" horiz-adv-x="302" 
d="M278 -170c-7.33301 -17.333 -18 -35.002 -32 -53.002c-18.667 0 -40.167 1.83301 -64.5 5.5s-41 7.5 -50 11.5s-18.167 8.66699 -27.5 14c-18 12 -27 29.833 -27 53.5s6 51.334 18 83.001s21.333 50.167 28 55.5c11.333 2 25.333 3 42 3s31 -1 43 -3
c0 -0.666992 -2 -9 -6 -25c-11.333 -45.333 -17 -72.666 -17 -81.999c0 -1.33301 31 -22.333 93 -63z" />
    <glyph glyph-name="tilde" unicode="&#x2dc;" horiz-adv-x="639" 
d="M163 565c-12.667 16.667 -23.334 34.333 -32.001 53c12 16.667 42.333 43.334 91 80.001c12.667 9.33301 25 14 37 14s33 -6.66699 63 -20s50.667 -21.333 62 -24c58.667 28 88.334 42.333 89.001 43c16 -22.667 27 -40.334 33 -53.001
c-18.667 -27.333 -49.667 -55 -93 -83c-13.333 -9.33301 -25 -14 -35 -14c-15.333 4.66699 -36 12.5 -62 23.5s-45.667 18.167 -59 21.5c-10 -6 -25.667 -13.167 -47 -21.5s-37 -14.833 -47 -19.5z" />
    <glyph glyph-name="hungarumlaut" unicode="&#x2dd;" horiz-adv-x="476" 
d="M44 616l148 131c39.333 -31.333 60.333 -60.333 63 -87c-16 -16.667 -36.333 -34 -61 -52s-54 -36.333 -88 -55c-21.333 16 -42 37 -62 63zM224 616l148 131c39.333 -31.333 60.333 -60.333 63 -87c-16 -16.667 -36.333 -34 -61 -52s-54 -36.333 -88 -55
c-21.333 16 -42 37 -62 63z" />
    <glyph glyph-name="Delta" unicode="&#x394;" horiz-adv-x="654" 
d="M269 704c12 1.33301 31 2.00098 57 2.00098s45 -1 57 -3c150 -386 229.333 -590.833 238 -614.5s13 -41.334 13 -53.001s-1 -23.5 -3 -35.5h-609c-2 20 -3 33.167 -3 39.5s3.33301 19.833 10 40.5zM328 547.001h-11l-170 -451h349z" />
    <glyph glyph-name="Delta" unicode="&#x2206;" horiz-adv-x="654" 
d="M269 704c12 1.33301 31 2.00098 57 2.00098s45 -1 57 -3c150 -386 229.333 -590.833 238 -614.5s13 -41.334 13 -53.001s-1 -23.5 -3 -35.5h-609c-2 20 -3 33.167 -3 39.5s3.33301 19.833 10 40.5zM328 547.001h-11l-170 -451h349z" />
    <glyph glyph-name="Omega" unicode="&#x3a9;" horiz-adv-x="742" 
d="M507 176c22.667 42 33.999 101.667 33.999 179s-14 138.166 -42 182.499s-72 66.5 -132 66.5c-38 0 -78 -7.66699 -120 -23c-3.33301 -6 -7.66602 -14.333 -12.999 -25s-12.5 -34.667 -21.5 -72s-13.5 -76.666 -13.5 -117.999c0 -76.667 8.5 -135.334 25.5 -176.001
s50.167 -72 99.5 -94c0 -33.333 -5.66699 -65.333 -17 -96h-238l-3 67c38.667 16.667 71.667 27.667 99 33c-32 30 -56.667 69.333 -74 118s-26 97 -26 145c0 108.667 24.333 194 73 256s126.5 93 233.5 93s183.833 -28.167 230.5 -84.5s70 -141.166 70 -254.499
c0 -48.667 -10.5 -99 -31.5 -151s-48.167 -92.667 -81.5 -122l111 -33l-3 -67h-246c-11.333 30.667 -17 62.667 -17 96c46 11.333 80.333 38 103 80z" />
    <glyph glyph-name="Omega" unicode="&#x2126;" horiz-adv-x="742" 
d="M507 176c22.667 42 33.999 101.667 33.999 179s-14 138.166 -42 182.499s-72 66.5 -132 66.5c-38 0 -78 -7.66699 -120 -23c-3.33301 -6 -7.66602 -14.333 -12.999 -25s-12.5 -34.667 -21.5 -72s-13.5 -76.666 -13.5 -117.999c0 -76.667 8.5 -135.334 25.5 -176.001
s50.167 -72 99.5 -94c0 -33.333 -5.66699 -65.333 -17 -96h-238l-3 67c38.667 16.667 71.667 27.667 99 33c-32 30 -56.667 69.333 -74 118s-26 97 -26 145c0 108.667 24.333 194 73 256s126.5 93 233.5 93s183.833 -28.167 230.5 -84.5s70 -141.166 70 -254.499
c0 -48.667 -10.5 -99 -31.5 -151s-48.167 -92.667 -81.5 -122l111 -33l-3 -67h-246c-11.333 30.667 -17 62.667 -17 96c46 11.333 80.333 38 103 80z" />
    <glyph glyph-name="pi" unicode="&#x3c0;" horiz-adv-x="566" 
d="M135 520l285 -24.001c14 6.66699 48.667 18.667 104 36l27 -59c-6.66699 -8.66699 -21.834 -21.167 -45.501 -37.5s-45.5 -28.5 -65.5 -36.5c-2.66699 -129.333 -5 -231 -7 -305c17.333 -1.33301 46 -6 86 -14l-2 -60c-12.667 -5.33301 -36 -11.166 -70 -17.499
s-67 -9.5 -99 -9.5c-10.667 21.333 -17.667 44.333 -21 69l-16 335l-70 11c-2.66699 -129.333 -4.66699 -219.833 -6 -271.5s-6 -97.5 -14 -137.5c-11.333 -4.66699 -40.333 -7 -87 -7c-7.33301 31.333 -14.666 170 -21.999 416c-23.333 -10 -53.333 -19.667 -90 -29l-27 59
c8.66699 12 30 28.667 64 50s59.333 32 76 32z" />
    <glyph glyph-name="endash" unicode="&#x2013;" horiz-adv-x="500" 
d="M506 344c4.66699 -20.667 7 -37.667 7 -51l-5 -52c-62 -5.33301 -114.667 -8 -158 -8l-344 7c-3.33301 23.333 -5 39.333 -5 48l5 53c62 6 114.667 9 158 9z" />
    <glyph glyph-name="emdash" unicode="&#x2014;" horiz-adv-x="1000" 
d="M970 343c6.66699 -19.333 10 -36 10 -50l-5 -52c-62 -5.33301 -114.667 -8 -158 -8l-811 7c-3.33301 22 -5 38 -5 48l5 53c62 6 114.667 9 158 9z" />
    <glyph glyph-name="quoteleft" unicode="&#x2018;" horiz-adv-x="225" 
d="M59 478c-6 24 -8.99902 51.501 -8.99902 82.501s13 64.667 39 101s50.333 61.833 73 76.5c23.333 -9.33301 42.333 -22.333 57 -39c-9.33301 -27.333 -28.333 -58 -57 -92c7.33301 0 15.666 -1 24.999 -3c6 -20 9 -40.833 9 -62.5s-1 -40.834 -3 -57.501
c-27.333 -6 -50 -9 -68 -9s-40 1 -66 3z" />
    <glyph glyph-name="quoteright" unicode="&#x2019;" horiz-adv-x="225" 
d="M200 731c6 -24 8.99902 -51.335 8.99902 -82.002s-13 -64.5 -39 -101.5s-50.333 -62.5 -73 -76.5c-23.333 10 -42.333 23.333 -57 40c8.66699 26 27.667 56.333 57 91l-25 3c-6 20.667 -9 41.834 -9 63.501s1 40.834 3 57.501c27.333 6 47.833 9 61.5 9
s37.834 -1.33301 72.501 -4z" />
    <glyph glyph-name="quotesinglbase" unicode="&#x201a;" horiz-adv-x="210" 
d="M185 127c6 -24 8.99902 -51.335 8.99902 -82.002s-13 -64.5 -39 -101.5s-50.333 -62.5 -73 -76.5c-23.333 10 -42.333 23.333 -57 40c8.66699 26 27.667 56.333 57 91l-25 3c-6 20.667 -9 41.834 -9 63.501s1 40.834 3 57.501c27.333 6 47.833 9 61.5 9
s37.834 -1.33301 72.501 -4z" />
    <glyph glyph-name="quotedblleft" unicode="&#x201c;" horiz-adv-x="394" 
d="M40 553c0 36 13.001 72.333 39.001 109s50.333 62 73 76c22.667 -9.33301 41.667 -22.333 57 -39c-10 -27.333 -29.333 -58 -58 -92c7.33301 0 15.666 -1 24.999 -3c6.66699 -19.333 10 -40 10 -62s-1.33301 -41.333 -4 -58c-27.333 -6 -50 -9 -68 -9s-40 1 -66 3
c-5.33301 26.667 -8 51.667 -8 75zM247.001 478c-6 24 -9 51.501 -9 82.501s13 64.667 39 101s50.333 61.833 73 76.5c22.667 -9.33301 41.667 -22.333 57 -39c-9.33301 -27.333 -28.333 -58 -57 -92c8 0 16.333 -1 25 -3c6 -20 9 -40.833 9 -62.5s-1 -40.834 -3 -57.501
c-27.333 -6 -50 -9 -68 -9s-40 1 -66 3z" />
    <glyph glyph-name="quotedblright" unicode="&#x201d;" horiz-adv-x="394" 
d="M200 731c6 -24 8.99902 -51.335 8.99902 -82.002s-13 -64.5 -39 -101.5s-50.333 -62.5 -73 -76.5c-23.333 10 -42.333 23.333 -57 40c8.66699 26 27.667 56.333 57 91l-25 3c-6 20.667 -9 41.834 -9 63.501s1 40.834 3 57.501c27.333 6 47.833 9 61.5 9
s37.834 -1.33301 72.501 -4zM396.999 655.998c0 -35.333 -13.001 -71.499 -39.001 -108.499s-50.333 -62.5 -73 -76.5c-23.333 10 -42.333 23.333 -57 40c8.66699 26 27.667 56.333 57 91l-25 3c-6 21.333 -9 42.666 -9 63.999s1 40.333 3 57c27.333 6 47.833 9 61.5 9
s37.834 -1.33301 72.501 -4c6 -30 9 -55 9 -75z" />
    <glyph glyph-name="quotedblbase" unicode="&#x201e;" horiz-adv-x="411" 
d="M383 52c0 -35.333 -13.002 -71.499 -39.002 -108.499s-50.333 -62.5 -73 -76.5c-23.333 10 -42.666 23.333 -57.999 40c10 26 29.333 56.333 58 91l-25 3c-6.66699 23.333 -10 45.166 -10 65.499s1.33301 38.833 4 55.5c27.333 6 47.833 9 61.5 9
s37.834 -1.33301 72.501 -4c6 -30 9 -55 9 -75zM199.998 127.001c6 -24 8.99902 -51.332 8.99902 -81.999s-13 -64.5 -39 -101.5s-50.333 -62.5 -73 -76.5c-23.333 10 -42.333 23.333 -57 40c8.66699 26 27.667 56.333 57 91l-25 3c-6 21.333 -9 42.666 -9 63.999
s1 40.333 3 57c27.333 6 47.833 9 61.5 9s37.834 -1.33301 72.501 -4z" />
    <glyph glyph-name="dagger" unicode="&#x2020;" horiz-adv-x="513" 
d="M290 716c12.667 -1.33301 28 -9.66895 46 -25.002c-3.33301 -27.333 -17 -82.666 -41 -165.999c57.333 16 111.666 28.667 162.999 38c14.667 -5.33301 23 -10.666 25 -15.999c0 -36 -8.66699 -83.333 -26 -142c-22 0 -76.667 13 -164 39
c1.33301 -3.33301 7.33301 -15 18 -35c28.667 -54 43 -83.667 43 -89l-71 -549c-23.333 0 -41.666 4.66699 -54.999 14l-67 536c0.666992 10 7.5 28.833 20.5 56.5s24.167 49.5 33.5 65.5c-88.667 -25.333 -141.667 -38 -159 -38c-17.333 54.667 -26 102 -26 142
c1.33301 5.33301 9.66602 10.666 24.999 15.999c56.667 -10 111.334 -23 164.001 -39c-27.333 96.667 -41 150.334 -41 161.001c42.667 20.667 80 31 112 31z" />
    <glyph glyph-name="daggerdbl" unicode="&#x2021;" horiz-adv-x="513" 
d="M290 716c12.667 -1.33301 28.001 -9.66602 46.001 -24.999c-3.33301 -27.333 -17 -82.666 -41 -165.999c57.333 16 111.666 28.667 162.999 38c14.667 -5.33301 23 -10.666 25 -15.999c0 -36 -8.66699 -83.333 -26 -142c-22 0 -76.667 13 -164 39
c1.33301 -2.66699 7.66602 -12.667 18.999 -30c28 -46 42 -72.333 42 -79c-0.666992 -13.333 -19.334 -48.333 -56.001 -105c88.667 25.333 141.667 38 159 38c17.333 -54.667 26 -102 26 -142c-1.33301 -5.33301 -9.66602 -10.666 -24.999 -15.999
c-56.667 10 -111.334 23 -164.001 39c27.333 -96.667 41 -150.334 41 -161.001c-42.667 -20.667 -80 -31 -112 -31c-12.667 1.33301 -28 9.66602 -46 24.999c3.33301 27.333 17 82.666 41 165.999c-57.333 -16 -111.666 -28.667 -162.999 -38
c-14.667 5.33301 -23 10.666 -25 15.999c0 36 8.66699 83.333 26 142c22 0 76.667 -13 164 -39c-1.33301 2.66699 -7.33301 13 -18 31c-28.667 45.333 -43 71.333 -43 78c0.666992 16.667 19.334 51.667 56.001 105c-88.667 -25.333 -141.667 -38 -159 -38
c-17.333 54.667 -26 102 -26 142c1.33301 5.33301 9.66602 10.666 24.999 15.999c56.667 -10 111.334 -23 164.001 -39c-27.333 96.667 -41 150.334 -41 161.001c42.667 20.667 80 31 112 31z" />
    <glyph glyph-name="bullet" unicode="&#x2022;" horiz-adv-x="408" 
d="M333 177c-28.667 -8.66699 -61.832 -13 -99.499 -13s-79.834 2.66699 -126.501 8c-10.667 41.333 -16 80.833 -16 118.5s2 70.834 6 99.501c41.333 8 81.5 12 120.5 12s75.167 -2.33301 108.5 -7c8.66699 -44.667 13 -84.334 13 -119.001s-2 -67.667 -6 -99z" />
    <glyph glyph-name="ellipsis" unicode="&#x2026;" horiz-adv-x="688" 
d="M188 127c6 -24 9.00195 -44.5 9.00195 -61.5s-1 -36.167 -3 -57.5c-22.667 -6 -44.334 -9 -65.001 -9s-43.334 1 -68.001 3c-6.66699 26.667 -10 46.167 -10 58.5s1.33301 32.5 4 60.5c22 6 43.167 9 63.5 9s43.5 -1 69.5 -3zM408.002 127
c6 -24 9.00195 -44.5 9.00195 -61.5s-1 -36.167 -3 -57.5c-22.667 -6 -44.334 -9 -65.001 -9s-43.334 1 -68.001 3c-6.66699 26.667 -10 46.167 -10 58.5s1.33301 32.5 4 60.5c22 6 43.167 9 63.5 9s43.5 -1 69.5 -3zM628.004 127c6 -24 9.00195 -44.5 9.00195 -61.5
s-1 -36.167 -3 -57.5c-22.667 -6 -44.334 -9 -65.001 -9s-43.334 1 -68.001 3c-6.66699 26.667 -10 46.167 -10 58.5s1.33301 32.5 4 60.5c22 6 43.167 9 63.5 9s43.5 -1 69.5 -3z" />
    <glyph glyph-name="perthousand" unicode="&#x2030;" horiz-adv-x="1240" 
d="M85.5 690.5c30.333 37 75.668 55.5 136.001 55.5s106.166 -18 137.499 -54s47 -84.833 47 -146.5s-15.667 -112 -47 -151s-77 -58.5 -137 -58.5c-121.333 0 -182 68 -182 204c0 63.333 15.167 113.5 45.5 150.5zM486.502 341.5c30.333 37 75.667 55.5 136 55.5
s106 -18 137 -54s46.5 -85 46.5 -147s-15.5 -112.333 -46.5 -151s-76.5 -58 -136.5 -58c-121.333 0 -182 68 -182 204c0 63.333 15.167 113.5 45.5 150.5zM709.003 677l-505 -696c-25.333 12 -49 28.333 -71 49l479 710c40 -16.667 72.333 -37.667 97 -63zM192.003 425
c8 -5.33301 18.502 -7.99609 31.502 -7.99609s24 3.33301 33 10s15.167 17 18.5 31c5.33301 21.333 8 44.166 8 68.499s-0.5 42.166 -1.5 53.499s-3.16699 24.666 -6.5 39.999c-6.66699 30 -24.334 45 -53.001 45c-22 0 -38 -8.33301 -48 -25
c-8 -13.333 -12.333 -29.333 -13 -48s-1 -35.834 -1 -51.501s0.166992 -27.667 0.5 -36s1.66602 -18.833 3.99902 -31.5s5.5 -22.5 9.5 -29.5s10 -13.167 18 -18.5zM593.005 77.0039c8 -5.33301 17.835 -8 29.502 -8s21.5 2.66699 29.5 8s14 11.333 18 18s7.33301 16 10 28
c2.66699 15.333 4 34.166 4 56.499s-0.5 39.333 -1.5 51s-3.16699 24.834 -6.5 39.501c-6.66699 30.667 -24.334 46 -53.001 46c-22 0 -38 -8.33301 -48 -25c-8 -13.333 -12.333 -29.333 -13 -48s-1 -35.667 -1 -51s0.166992 -27.333 0.5 -36s1.66602 -19.167 3.99902 -31.5
s5.5 -22 9.5 -29s10 -13.167 18 -18.5zM874.507 341.504c30.333 37 75.667 55.5 136 55.5s106 -18 137 -54s46.5 -85 46.5 -147s-15.5 -112.333 -46.5 -151s-76.5 -58 -136.5 -58c-121.333 0 -182 68 -182 204c0 63.333 15.167 113.5 45.5 150.5zM981.008 77.0039
c8 -5.33301 17.835 -8 29.502 -8s21.5 2.66699 29.5 8s14 11.333 18 18s7.33301 16 10 28c2.66699 15.333 4 34.166 4 56.499s-0.5 39.333 -1.5 51s-3.16699 24.834 -6.5 39.501c-6.66699 30.667 -24.334 46 -53.001 46c-22 0 -38 -8.33301 -48 -25
c-8 -13.333 -12.333 -29.333 -13 -48s-1 -35.667 -1 -51s0.166992 -27.333 0.5 -36s1.66602 -19.167 3.99902 -31.5s5.5 -22 9.5 -29s10 -13.167 18 -18.5z" />
    <glyph glyph-name="guilsinglleft" unicode="&#x2039;" horiz-adv-x="294" 
d="M53 245c-2 4 -3 9.83398 -3 17.501s0.333008 13.167 1 16.5l47 66c17.333 24 45.333 56 84 96c21.333 -5.33301 48 -22 80 -50c-54.667 -81.333 -84.334 -124.333 -89.001 -129c7.33301 -8.66699 13.333 -16.334 18 -23.001l70 -106c-25.333 -30 -52.333 -46.333 -81 -49
c-35.333 35.333 -62.666 67 -81.999 95z" />
    <glyph glyph-name="guilsinglright" unicode="&#x203a;" horiz-adv-x="294" 
d="M281 279c0.666992 -3.33301 1 -8.83301 1 -16.5s-1 -13.5 -3 -17.5l-45 -66c-16 -23.333 -43.333 -55 -82 -95c-12.667 1.33301 -25.834 6 -39.501 14s-27.5 19.667 -41.5 35c32.667 53.333 62 96.333 88 129c-5.33301 5.33301 -35 48.333 -89 129
c28.667 27.333 55.334 44 80.001 50c36.667 -36.667 64.667 -68.667 84 -96z" />
    <glyph glyph-name="fraction" unicode="&#x2044;" horiz-adv-x="478" 
d="M555 677l-505 -696c-25.333 12 -49 28.333 -71 49l479 710c40 -16.667 72.333 -37.667 97 -63z" />
    <glyph glyph-name="Euro" unicode="&#x20ac;" horiz-adv-x="634" 
d="M398 234c-42.667 -8 -77.999 -11.999 -105.999 -11.999s-49 0.333008 -63 1c7.33301 -42.667 20.833 -75.167 40.5 -97.5s49 -33.5 88 -33.5s66.5 5.33301 82.5 16l21 90l83 -3c10 -68.667 15 -124.334 15 -167.001c-12.667 -10 -37.167 -19.167 -73.5 -27.5
s-78.833 -12.5 -127.5 -12.5c-76.667 0 -137.167 18.667 -181.5 56s-72.833 98 -85.5 182l-73 3c-2 15.333 -3 31 -3 47l3 32c20.667 5.33301 43 9 67 11c-0.666992 10 -1 25.667 -1 47l-66 3c-2 15.333 -3 31 -3 47l3 32c22.667 5.33301 46.334 9 71.001 11
c22 168.667 113.667 253 275 253c41.333 0 72.166 -3.66699 92.499 -11s35.5 -14 45.5 -20c12.667 -7.33301 28 -19.333 46 -36c0 -37.333 -4.66699 -84.666 -14 -141.999c-21.333 -2 -49 -3 -83 -3l-30 103c-13.333 6.66699 -31.333 10 -54 10
c-44.667 0 -75.667 -4.66699 -93 -14l-10 -5c-26 -35.333 -39 -80.333 -39 -135l173 -6c1.33301 -7.33301 2 -17 2 -29l-2 -50c-42.667 -8 -78.334 -12 -107.001 -12s-52 0.333008 -70 1c0 -16.667 0.333008 -31.334 1 -44.001l176 -6c1.33301 -7.33301 2 -17 2 -29z" />
    <glyph glyph-name="trademark" unicode="&#x2122;" horiz-adv-x="808" 
d="M37 559c-11.333 42 -17.001 71.001 -17.001 87.001s0.333008 25.333 1 28h314c0.666992 -4 1 -11 1 -21l-7 -94c-10.667 -0.666992 -29 -1 -55 -1l-13 45h-39c-1.33301 -60 -2.66602 -108.333 -3.99902 -145l57 -9c0 -27.333 -3 -49.333 -9 -66h-176l-2 54
c30 9.33301 50.333 14.666 61 15.999l-13 150h-38l-12 -45zM381.999 453.001l32 157c-26 4 -42.667 6.66699 -50 8l1 57h153l37 -148h10l31 148h146c4 -27.333 6 -49.333 6 -66c-22 -1.33301 -38.333 -2 -49 -2l37 -149l57 -9c0 -27.333 -3 -49.333 -9 -66h-176l-2 54
c27.333 9.33301 46 16 56 20l-27 136l-52 -160h-42l-65 159l-16 -135l48 -8c0 -27.333 -3 -49.333 -9 -66h-176l-2 54c30.667 8.66699 51 14 61 16z" />
    <glyph glyph-name="partialdiff" unicode="&#x2202;" horiz-adv-x="654" 
d="M332 356c-41.333 0 -73.3311 -14.668 -95.998 -44.001s-34 -63.833 -34 -103.5s8.33301 -70.667 25 -93s40.167 -33.5 70.5 -33.5s57.166 12.667 80.499 38s39.833 54.333 49.5 87s16.167 68.334 19.5 107.001l-21 14.5c-3.33301 2.33301 -8.83301 5.5 -16.5 9.5
s-14.834 7.33301 -21.501 10c-17.333 5.33301 -36 8 -56 8zM451.002 420.999l1.00488 31.9971c0 62.667 -16.333 113.167 -49 151.5s-86.334 66.166 -161.001 83.499c0 32.667 11 56.667 33 72c81.333 -13.333 153.666 -51.333 216.999 -114
c31.333 -30 56.166 -67.667 74.499 -113s27.5 -90.166 27.5 -134.499s-3.83301 -84.666 -11.5 -120.999s-19.834 -72.166 -36.501 -107.499s-36.834 -66.666 -60.501 -93.999s-53.167 -49.333 -88.5 -66s-74 -25 -116 -25c-64.667 0 -117.5 21.5 -158.5 64.5
s-61.5 97.833 -61.5 164.5s23 122 69 166s110.333 66 193 66c52 0 94.667 -8.33301 128 -25z" />
    <glyph glyph-name="product" unicode="&#x220f;" horiz-adv-x="754" 
d="M648 611l-5 -515.001l69 -9c0 -27.333 -7.66699 -56.333 -23 -87h-243l-9 55c37.333 15.333 65.333 25 84 29c0 137.333 -1.33301 311.333 -4 522h-262c-1.33301 -100 -2 -270 -2 -510l69 -9c0 -27.333 -7.66699 -56.333 -23 -87h-243l-9 55
c37.333 15.333 65.333 25 84 29c0 2 -3 178.333 -9 529l-83 26l8 61h649c10.667 -18 17 -44.333 19 -79c-34 -5.33301 -56.333 -8.66602 -67 -9.99902z" />
    <glyph glyph-name="summation" unicode="&#x2211;" horiz-adv-x="627" 
d="M584 700c0 -58 -7.66797 -119.001 -23.001 -183.001c-34.667 -3.33301 -66.667 -5 -96 -5l-13 95h-223l172 -267c0.666992 -1.33301 1 -4.66602 1 -9.99902l-1 -15l-158 -222h212l13 94l96 -6c14.667 -52 22.334 -112.333 23.001 -181h-542l-7 35l232 291l-217 330l-28 9
l2 35h557z" />
    <glyph glyph-name="minus" unicode="&#x2212;" horiz-adv-x="596" 
d="M537 320c2 -18 3.00098 -33 3.00098 -45l-3 -42c-52.667 -10 -97.334 -15 -134.001 -15l-328 7c-3.33301 16.667 -5 30.667 -5 42l4 43c52 10 96.667 15 134 15z" />
    <glyph glyph-name="radical" unicode="&#x221a;" horiz-adv-x="610" 
d="M523 762c26 0 51.666 -1.66699 76.999 -5l-236 -759c-9.33301 -2 -20.333 -3 -33 -3l-111 5l-127 398c-36.667 2 -66 6 -88 12l4 82c38 10 94 15 168 15c20.667 0 35.334 -0.666992 44.001 -2c0 -15.333 -4.33301 -42.333 -13 -81c1.33301 -6 3.5 -13.833 6.5 -23.5
l16 -54l21.5 -74.5l44 -148l167 635c14 2 34 3 60 3z" />
    <glyph glyph-name="infinity" unicode="&#x221e;" horiz-adv-x="955" 
d="M920 262c0 -54.667 -17.1719 -100.334 -51.5049 -137.001s-83.166 -55 -146.499 -55c-37.333 0 -75.666 9.83301 -114.999 29.5s-83.666 47.834 -132.999 84.501c-47.333 -35.333 -90.833 -63.166 -130.5 -83.499s-79.167 -30.5 -118.5 -30.5
c-63.333 0 -110.833 17.333 -142.5 52s-47.5 79.167 -47.5 133.5s17.5 99.666 52.5 135.999s82.5 54.5 142.5 54.5c38.667 0 77.834 -10 117.501 -30s84.167 -48.333 133.5 -85c100.667 76.667 182.834 115 246.501 115s111.667 -17 144 -51s48.5 -78.333 48.5 -133z
M727.995 187c13.333 0 28.666 3.66797 45.999 11.001c6.66699 10 10 28.167 10 54.5s-5.5 46.666 -16.5 60.999s-26.5 21.5 -46.5 21.5c-30 0 -78.333 -25.667 -145 -77c54.667 -47.333 105.334 -71 152.001 -71zM284.495 321.501c-18.333 7 -34.501 10.5 -48.501 10.5
c-21.333 0 -39.333 -3.66699 -54 -11c-6.66699 -22 -10 -43.833 -10 -65.5s6.5 -39 19.5 -52s28.333 -19.5 46 -19.5s37.5 6.33301 59.5 19s49.667 32 83 58c-22.667 18 -39.667 30.833 -51 38.5s-26.166 15 -44.499 22z" />
    <glyph glyph-name="integral" unicode="&#x222b;" horiz-adv-x="450" 
d="M163 4l-10 537.001c0 138.667 61.667 208 185 208c47.333 -18 77.666 -31 90.999 -39c-5.33301 -28.667 -12.333 -55.667 -21 -81c-45.333 0 -79 7.33301 -101 22c-17.333 -14 -26 -55.333 -26 -124v-519c0 -86.667 -16.333 -149.334 -49 -188.001
c-13.333 -15.333 -31.5 -28.166 -54.5 -38.499s-50.167 -15.5 -81.5 -15.5c-47.333 18 -77.666 31 -90.999 39c11.333 28.667 20.666 55.667 27.999 81c44.667 0 78.334 -8 101.001 -24c19.333 15.333 29 62.666 29 141.999z" />
    <glyph glyph-name="approxequal" unicode="&#x2248;" 
d="M87 286c-10.667 18 -19.667 37.667 -27 59c8.66699 12 30.5 28.667 65.5 50s60.167 32 75.5 32l203 -50c12 6.66699 46.667 18.667 104 36c10.667 -18 19.667 -37.667 27 -59c-8 -11.333 -29.667 -27.833 -65 -49.5s-60.333 -32.5 -75 -32.5l-204 50
c-12 -6.66699 -46.667 -18.667 -104 -36zM87 111c-11.333 19.333 -20.333 39 -27 59c8.66699 12 30.5 28.667 65.5 50s60.167 32 75.5 32l203 -50c12 6.66699 46.667 18.667 104 36c10.667 -18 19.667 -37.667 27 -59c-8 -11.333 -29.667 -27.833 -65 -49.5
s-60.333 -32.5 -75 -32.5l-204 50c-12 -6.66699 -46.667 -18.667 -104 -36z" />
    <glyph glyph-name="notequal" unicode="&#x2260;" horiz-adv-x="639" 
d="M570 140c-60.667 -10 -111.168 -15 -151.501 -15s-77.5 0.333008 -111.5 1l-61 -134c-33.333 4 -57.666 14.667 -72.999 32l45 104l-150 4c-3.33301 16.667 -5 30.667 -5 42l4 44c60 10 104.5 15 133.5 15s49.833 -0.333008 62.5 -1l26 62l-221 5
c-3.33301 16.667 -5 30.667 -5 42l4 43c60 10 110.667 15 152 15s79.666 -0.333008 114.999 -1l51 118c2 -0.666992 7.5 -2 16.5 -4s16.167 -3.83301 21.5 -5.5s10.333 -3.5 15 -5.5c10.667 -5.33301 21.334 -12 32.001 -20l-39 -85l139 -2c2 -18 3 -33 3 -45l-3 -42
c-60.667 -10 -112 -15 -154 -15h-33l-28 -61l213 -4c3.33301 -17.333 5 -32.333 5 -45z" />
    <glyph glyph-name="lessequal" unicode="&#x2264;" horiz-adv-x="529" 
d="M41 341c-4 4 -6 13.166 -6 27.499s1.33301 23.166 4 26.499c162 102 268.333 164.333 319 187c18 8.66699 38 17.334 60 26.001l50 -89c-125.333 -71.333 -199 -113.666 -221 -126.999l-39 -20l39 -20l221 -127l-50 -89c-40 14.667 -70 28 -90 40
c-166 96.667 -261.667 151.667 -287 165zM492 89.999c2 -18 3.00098 -33 3.00098 -45l-3 -42c-52.667 -10 -97.334 -15 -134.001 -15l-328 7c-3.33301 16.667 -5 30.667 -5 42l4 43c52 10 96.667 15 134 15z" />
    <glyph glyph-name="greaterequal" unicode="&#x2265;" horiz-adv-x="526" 
d="M464 395c2.66699 -3.33301 4 -12.167 4 -26.5s-2 -23.5 -6 -27.5c-25.333 -13.333 -115 -65 -269 -155c-28 -16 -64 -32.667 -108 -50l-50 89c136 78.667 222.667 127.667 260 147l-39 20l-221 127l50 89c40 -14.667 85.5 -36.5 136.5 -65.5
s131.833 -78.167 242.5 -147.5zM492 89.999c2 -18 3.00098 -33 3.00098 -45l-3 -42c-52.667 -10 -97.334 -15 -134.001 -15l-328 7c-3.33301 16.667 -5 30.667 -5 42l4 43c52 10 96.667 15 134 15z" />
    <glyph glyph-name="lozenge" unicode="&#x25ca;" horiz-adv-x="614" 
d="M275 704h64c110 -147.333 171.667 -230.833 185 -250.5s25 -38.5 35 -56.5c20 -36 30 -56 30 -60c-94.667 -146.667 -149 -229.667 -163 -249c-24 -35.333 -52 -68.333 -84 -99c-10.667 -1.33301 -23.167 -2 -37.5 -2s-25.166 0.666992 -32.499 2
c-30.667 28.667 -53.334 53.667 -68.001 75l-64 96.5l-78.5 120.5c-24.333 37.333 -36.5 56.333 -36.5 57c17.333 40 37 75.333 59 106zM308 590l-176.001 -249.002c4.66699 -5.33301 12.5 -15 23.5 -29l26.5 -33.5c6.66699 -8.33301 47.334 -67.166 122.001 -176.499h4
c68 99.333 109.333 158.333 124 177c10.667 16.667 27 37.334 49 62.001c-108.667 152 -164.5 231 -167.5 237s-4.83301 10 -5.5 12z" />
    <glyph glyph-name=".null" unicode="&#xe000;" horiz-adv-x="0" 
 />
    <glyph glyph-name="CR" unicode="&#xe001;" horiz-adv-x="279" 
 />
    <glyph glyph-name="Ll" unicode="&#xe002;" horiz-adv-x="810" 
d="M685 182c16 2.66699 28.168 4 36.501 4s26.5 -2.33301 54.5 -7c2.66699 -5.33301 6.5 -22.333 11.5 -51s7.5 -51.834 7.5 -69.501s-2 -37.167 -6 -58.5h-723l-9 55c32.667 13.333 60.667 23 84 29c0 2 -3 178.333 -9 529l-83 26l8 61h260
c-0.666992 0 -0.5 -0.666992 0.5 -2s2.33301 -4.16602 4 -8.49902s3.5 -9.5 5.5 -15.5c4 -10.667 6.66699 -28.334 8 -53.001c-34 -5.33301 -56.333 -8.66602 -67 -9.99902c-2.66699 -230 -4.33398 -401.667 -5.00098 -515h400zM684.001 415
c16 2.66699 28.168 3.99902 36.501 3.99902s26.5 -2.33301 54.5 -7c2.66699 -5.33301 6.5 -22.333 11.5 -51s7.5 -52 7.5 -70s-2 -37.333 -6 -58h-405l-9 55c32.667 13.333 60.667 23 84 29c-0.666992 40.667 -2.16699 95.167 -4.5 163.5l-4.5 132.5l-83 26l8 61h260
c-0.666992 0 -0.5 -0.666992 0.5 -2s2.33301 -4.16602 4 -8.49902s3.5 -9.5 5.5 -15.5c4 -10.667 6.66699 -28.334 8 -53.001c-34 -5.33301 -56.333 -8.66602 -67 -9.99902c-2.66699 -145.333 -4.33398 -239.333 -5.00098 -282h82z" />
    </font>
</defs>
</svg>
